<svg xmlns="http://www.w3.org/2000/svg" viewBox="0 0 327.78 90.71"><defs><style>.cls-1,.cls-3{fill:#11194e;}.cls-1,.cls-2{fill-rule:evenodd;}.cls-2{fill:#00a7e1;}</style></defs><title>Recurso 12</title><g id="Capa_2" data-name="Capa 2"><g id="Capa_1-2" data-name="Capa 1"><polygon class="cls-1" points="37.09 50.47 20.81 33.79 53.6 0 90.71 38.03 90.71 72.17 53.25 33.79 37.09 50.47"/><polygon class="cls-2" points="0 52.62 0.04 19.05 37.04 56.95 53.33 40.17 69.95 56.92 37.17 90.71 0 52.62"/><path class="cls-3" d="M128.11,51.53h-5.7l-2.27-7.18H109.73l-2.16,7.18H102l10.13-31.71h5.56ZM118.45,39l-3.59-11.77L111.33,39Z"/><path class="cls-3" d="M130.88,51.53V19.82h11.05a15.42,15.42,0,0,1,6.06.85,6.74,6.74,0,0,1,3,3,10.35,10.35,0,0,1,1.16,5.05,9.41,9.41,0,0,1-1.78,6,7.92,7.92,0,0,1-5.07,2.86,13.12,13.12,0,0,1,2.79,2.65,38.44,38.44,0,0,1,3,5.16l3.16,6.18H148l-3.8-6.9A46.38,46.38,0,0,0,141.39,40a4.11,4.11,0,0,0-1.56-1.3,7,7,0,0,0-2.64-.36h-1.08V51.53Zm5.23-18.3H140a19.48,19.48,0,0,0,4.54-.31,2.88,2.88,0,0,0,1.58-1.27,4.69,4.69,0,0,0,.61-2.53,4.37,4.37,0,0,0-.61-2.43,3,3,0,0,0-1.64-1.27,20.79,20.79,0,0,0-4.27-.24h-4.11Z"/><path class="cls-3" d="M180.55,51.53h-5.69l-2.28-7.18H162.17L160,51.53h-5.58l10.12-31.71h5.57ZM170.89,39,167.3,27.22,163.78,39Z"/><path class="cls-3" d="M182,41.19l5.13-.6q.85,6.07,5.67,6.08a5.35,5.35,0,0,0,3.74-1.25,4,4,0,0,0,1.36-3.08,3.47,3.47,0,0,0-.47-1.84A3.51,3.51,0,0,0,196,39.26a41.44,41.44,0,0,0-4.72-1.63,15.83,15.83,0,0,1-4.91-2.21,8.29,8.29,0,0,1-2.48-3.12,9.62,9.62,0,0,1-.92-4.16,9.24,9.24,0,0,1,1.18-4.67,7.68,7.68,0,0,1,3.26-3.13,11.12,11.12,0,0,1,5.12-1.06,9.93,9.93,0,0,1,7.17,2.48,10,10,0,0,1,2.72,7.12l-5.26.28a5.66,5.66,0,0,0-1.49-3.57,4.78,4.78,0,0,0-3.26-1,5.24,5.24,0,0,0-3.27.88,2.67,2.67,0,0,0-1.15,2.2,2.77,2.77,0,0,0,1,2.18,14.68,14.68,0,0,0,4.79,1.94,19.76,19.76,0,0,1,5.72,2.42,8.23,8.23,0,0,1,2.69,3.26,11.51,11.51,0,0,1,.93,4.86,10,10,0,0,1-2.54,6.94q-2.55,2.82-8,2.82Q183.07,52.08,182,41.19Z"/><path class="cls-3" d="M207.55,51.53V19.82h19.3v5.36H212.79v7h13.07v5.35H212.79v8.61h14.54v5.36Z"/><path class="cls-3" d="M231.78,51.53V19.82h11.06a15.42,15.42,0,0,1,6.06.85,6.72,6.72,0,0,1,3,3,10.24,10.24,0,0,1,1.17,5.05,9.41,9.41,0,0,1-1.78,6,7.92,7.92,0,0,1-5.08,2.86A12.67,12.67,0,0,1,249,40.19a37.15,37.15,0,0,1,3,5.16l3.16,6.18h-6.26l-3.8-6.9A46.38,46.38,0,0,0,242.3,40a4.11,4.11,0,0,0-1.56-1.3,7.08,7.08,0,0,0-2.64-.36H237V51.53ZM237,33.23h3.89a19.59,19.59,0,0,0,4.55-.31A2.91,2.91,0,0,0,247,31.65a4.69,4.69,0,0,0,.6-2.53,4.37,4.37,0,0,0-.6-2.43,3.06,3.06,0,0,0-1.65-1.27,20.59,20.59,0,0,0-4.26-.24H237Z"/><path class="cls-3" d="M264.4,44l3.76-.44c.42,3,1.81,4.46,4.15,4.46a3.92,3.92,0,0,0,2.75-.92,2.94,2.94,0,0,0,1-2.26,2.47,2.47,0,0,0-.35-1.34,2.61,2.61,0,0,0-1.06-.92,32.34,32.34,0,0,0-3.46-1.19,12,12,0,0,1-3.61-1.62,6.09,6.09,0,0,1-1.81-2.29,7,7,0,0,1-.68-3A6.81,6.81,0,0,1,266,31a5.61,5.61,0,0,1,2.39-2.29,8.18,8.18,0,0,1,3.76-.78,7.27,7.27,0,0,1,5.25,1.82,7.31,7.31,0,0,1,2,5.22l-3.86.21a4.18,4.18,0,0,0-1.09-2.62,3.48,3.48,0,0,0-2.4-.74,3.84,3.84,0,0,0-2.39.64,2,2,0,0,0-.08,3.21,10.69,10.69,0,0,0,3.51,1.43,14.35,14.35,0,0,1,4.19,1.77,6,6,0,0,1,2,2.4,8.28,8.28,0,0,1,.69,3.56A7.29,7.29,0,0,1,278,49.87q-1.86,2.06-5.83,2.06C267.53,51.93,264.92,49.27,264.4,44Z"/><path class="cls-3" d="M283.15,51.53V28.28h8.11a11.28,11.28,0,0,1,4.44.62,4.9,4.9,0,0,1,2.19,2.18,7.52,7.52,0,0,1,.86,3.7,7,7,0,0,1-1.31,4.4,5.88,5.88,0,0,1-3.72,2.09,9.73,9.73,0,0,1,2,1.94A27.79,27.79,0,0,1,298,47l2.32,4.53h-4.6l-2.79-5.06a32.54,32.54,0,0,0-2-3.43,3,3,0,0,0-1.14-.95,5.13,5.13,0,0,0-1.94-.26H287v9.7ZM287,38.11h2.85a14,14,0,0,0,3.34-.23,2.13,2.13,0,0,0,1.16-.93,3.44,3.44,0,0,0,.44-1.85,3.27,3.27,0,0,0-.44-1.79,2.28,2.28,0,0,0-1.21-.93,15.94,15.94,0,0,0-3.13-.17h-3Z"/><path class="cls-3" d="M302.48,51.53V28.47h3.83V47.6h9.59v3.93Z"/><path class="cls-3" d="M104.41,71.2V60h-2.2V57.75h5.87V60h-2.19V71.2Z"/><path class="cls-3" d="M109.05,71.2V57.75h5.48V60h-4v3h3.71v2.27h-3.71v3.65h4.12V71.2Z"/><path class="cls-3" d="M116,71.2V57.86h1.48V68.93h3.71V71.2Z"/><path class="cls-3" d="M122.23,71.2V57.75h5.48V60h-4v3h3.71v2.27h-3.71v3.65h4.12V71.2Z"/><path class="cls-3" d="M133.83,66.26l1.45.83a7.33,7.33,0,0,1-1.13,3.3,2.33,2.33,0,0,1-1.93,1,2.66,2.66,0,0,1-2.34-1.66,10.93,10.93,0,0,1-1-5.17,11.47,11.47,0,0,1,1-5.39,2.72,2.72,0,0,1,2.42-1.69,2.46,2.46,0,0,1,2.08,1.27,6.72,6.72,0,0,1,.87,2.67l-1.47.64a3.6,3.6,0,0,0-.56-1.67,1.2,1.2,0,0,0-1-.58c-.54,0-1,.35-1.33,1.06a8.53,8.53,0,0,0-.52,3.51,9.17,9.17,0,0,0,.51,3.62c.33.71.77,1.07,1.3,1.07a1.21,1.21,0,0,0,1-.68A5.42,5.42,0,0,0,133.83,66.26Z"/><path class="cls-3" d="M136.25,64.56a14.12,14.12,0,0,1,.47-4A5.5,5.5,0,0,1,138,58.29a2.54,2.54,0,0,1,1.86-.77,2.94,2.94,0,0,1,2.58,1.81,10.76,10.76,0,0,1,1,5.15,10.83,10.83,0,0,1-1.06,5.27,2.74,2.74,0,0,1-5,0A10.81,10.81,0,0,1,136.25,64.56Zm1.53-.09a8,8,0,0,0,.59,3.48c.4.77.89,1.16,1.47,1.16s1.07-.38,1.46-1.15a8.37,8.37,0,0,0,.57-3.54,8,8,0,0,0-.56-3.46,1.53,1.53,0,0,0-2.95,0A8,8,0,0,0,137.78,64.47Z"/><path class="cls-3" d="M144.56,71.2V57.75h2.23l1.34,9.19,1.33-9.19h2.24V71.2h-1.39V60.61L148.84,71.2h-1.43L146,60.61V71.2Z"/><path class="cls-3" d="M153.16,57.75h1.48V65c0,1.13,0,1.87.06,2.21a2.71,2.71,0,0,0,.47,1.38,1.19,1.19,0,0,0,1,.48,1.08,1.08,0,0,0,.84-.34,1.87,1.87,0,0,0,.45-1,17.35,17.35,0,0,0,.12-2.62V57.75h1.49v7.07a27.26,27.26,0,0,1-.2,3.91,3.66,3.66,0,0,1-.87,2,2.3,2.3,0,0,1-1.79.75,2.46,2.46,0,0,1-1.8-.62,3.55,3.55,0,0,1-.94-1.74,19,19,0,0,1-.29-4.14Z"/><path class="cls-3" d="M160.63,71.2V57.75h1.45l3,9v-9h1.39V71.2H165l-3-8.77V71.2Z"/><path class="cls-3" d="M168,71.2V57.75h1.48V71.2Z"/><path class="cls-3" d="M175.66,66.26l1.44.83a7.46,7.46,0,0,1-1.12,3.3,2.35,2.35,0,0,1-1.94,1,2.66,2.66,0,0,1-2.34-1.66,10.93,10.93,0,0,1-1-5.17,11.47,11.47,0,0,1,1-5.39,2.72,2.72,0,0,1,2.43-1.69,2.45,2.45,0,0,1,2.07,1.27,6.87,6.87,0,0,1,.88,2.67l-1.48.64a3.6,3.6,0,0,0-.56-1.67,1.2,1.2,0,0,0-1-.58c-.55,0-1,.35-1.34,1.06a8.71,8.71,0,0,0-.52,3.51,9.17,9.17,0,0,0,.51,3.62c.33.71.77,1.07,1.31,1.07a1.24,1.24,0,0,0,1-.68A5.77,5.77,0,0,0,175.66,66.26Z"/><path class="cls-3" d="M185,71.2h-1.61l-.65-3h-3l-.61,3h-1.59l2.88-13.45h1.58Zm-2.74-5.32-1-5-1,5Z"/><path class="cls-3" d="M190.54,66.26l1.45.83a7.33,7.33,0,0,1-1.13,3.3,2.33,2.33,0,0,1-1.93,1,2.66,2.66,0,0,1-2.34-1.66,10.93,10.93,0,0,1-1-5.17,11.47,11.47,0,0,1,1-5.39A2.72,2.72,0,0,1,189,57.52a2.46,2.46,0,0,1,2.08,1.27,6.87,6.87,0,0,1,.88,2.67l-1.48.64a3.6,3.6,0,0,0-.56-1.67,1.2,1.2,0,0,0-1-.58c-.54,0-1,.35-1.33,1.06a8.53,8.53,0,0,0-.52,3.51A9.17,9.17,0,0,0,187.6,68c.33.71.77,1.07,1.3,1.07a1.21,1.21,0,0,0,1-.68A5.42,5.42,0,0,0,190.54,66.26Z"/><path class="cls-3" d="M193.22,71.2V57.75h1.48V71.2Z"/><path class="cls-3" d="M195.83,64.56a14.12,14.12,0,0,1,.47-4,5.39,5.39,0,0,1,1.25-2.31,2.54,2.54,0,0,1,1.86-.77A3,3,0,0,1,202,59.33a10.76,10.76,0,0,1,1,5.15,10.83,10.83,0,0,1-1.06,5.27,2.74,2.74,0,0,1-5.05,0A10.81,10.81,0,0,1,195.83,64.56Zm1.53-.09A8,8,0,0,0,198,68c.4.77.88,1.16,1.47,1.16s1.07-.38,1.45-1.15a8.19,8.19,0,0,0,.58-3.54,8,8,0,0,0-.56-3.46,1.68,1.68,0,0,0-1.47-1.11A1.7,1.7,0,0,0,197.93,61,8.16,8.16,0,0,0,197.36,64.47Z"/><path class="cls-3" d="M204.17,71.2V57.75h1.45l3,9v-9H210V71.2h-1.5l-3-8.77V71.2Z"/><path class="cls-3" d="M211.61,71.2V57.75h5.47V60h-4v3h3.71v2.27h-3.71v3.65h4.13V71.2Z"/><path class="cls-3" d="M218.1,66.82l1.46-.26c.16,1.72.7,2.58,1.61,2.58a1.25,1.25,0,0,0,1.06-.53,2.14,2.14,0,0,0,.39-1.31,2,2,0,0,0-.14-.77,1.19,1.19,0,0,0-.41-.53,8.49,8.49,0,0,0-1.34-.69,4,4,0,0,1-1.39-.94,3.52,3.52,0,0,1-.7-1.32,5.94,5.94,0,0,1,.07-3.75,3,3,0,0,1,.92-1.33,2.52,2.52,0,0,1,3.49.61,5.47,5.47,0,0,1,.78,3l-1.5.12A3,3,0,0,0,222,60.2a1.12,1.12,0,0,0-.93-.43,1.18,1.18,0,0,0-.93.38,1.4,1.4,0,0,0-.32.93,1.47,1.47,0,0,0,.29.92,3.66,3.66,0,0,0,1.36.83,4.87,4.87,0,0,1,1.63,1,3.63,3.63,0,0,1,.76,1.39,6.82,6.82,0,0,1,.27,2.06,5.6,5.6,0,0,1-.73,2.94,2.43,2.43,0,0,1-2.25,1.19Q218.42,71.43,218.1,66.82Z"/><path class="cls-3" d="M230.3,71.2V65.54l-2.7-7.79h1.74l1.73,5.32,1.72-5.32h1.71l-2.71,7.81V71.2Z"/><path class="cls-3" d="M237.63,64.56a13.75,13.75,0,0,1,.47-4,5.39,5.39,0,0,1,1.25-2.31,2.54,2.54,0,0,1,1.86-.77,3,3,0,0,1,2.58,1.81,10.76,10.76,0,0,1,1,5.15,10.83,10.83,0,0,1-1.06,5.27,2.74,2.74,0,0,1-5,0A10.81,10.81,0,0,1,237.63,64.56Zm1.53-.09a8,8,0,0,0,.59,3.48c.4.77.88,1.16,1.47,1.16s1.07-.38,1.45-1.15a8.19,8.19,0,0,0,.58-3.54,8.17,8.17,0,0,0-.56-3.46,1.68,1.68,0,0,0-1.47-1.11A1.7,1.7,0,0,0,239.73,61,8.16,8.16,0,0,0,239.16,64.47Z"/><path class="cls-3" d="M246,57.75h2.95a3.24,3.24,0,0,1,1.71.33,2.56,2.56,0,0,1,.83,1.17,5.13,5.13,0,0,1,.33,1.89,4.93,4.93,0,0,1-.29,1.76,2.6,2.6,0,0,1-.75,1.16,2.36,2.36,0,0,1,1,1.19,5,5,0,0,1,.37,2,6,6,0,0,1-.47,2.49A2.26,2.26,0,0,1,250.55,71a7.89,7.89,0,0,1-2.08.16H246ZM247.44,60V63.1h1a7.91,7.91,0,0,0,1.1,0,.9.9,0,0,0,.59-.48,2.17,2.17,0,0,0,.22-1.06,2.24,2.24,0,0,0-.18-1,.83.83,0,0,0-.42-.47A6.23,6.23,0,0,0,248.3,60Zm0,5.35v3.59h1.39a3.13,3.13,0,0,0,1.17-.14,1.13,1.13,0,0,0,.43-.56,2.71,2.71,0,0,0,.17-1.06,2.77,2.77,0,0,0-.18-1.08,1.15,1.15,0,0,0-.5-.59,3.19,3.19,0,0,0-1.27-.16Z"/><path class="cls-3" d="M253.41,71.2V57.75h3.13a3,3,0,0,1,1.72.37,2.53,2.53,0,0,1,.85,1.25,6.23,6.23,0,0,1,.33,2.15,5.6,5.6,0,0,1-.5,2.54,2.28,2.28,0,0,1-1.44,1.21,4.83,4.83,0,0,1,.79,1.12,19.21,19.21,0,0,1,.85,2.19l.9,2.62h-1.78l-1.08-2.92c-.39-1.06-.65-1.72-.79-2a1.07,1.07,0,0,0-1.19-.7h-.31V71.2Zm1.48-7.76H256a3.8,3.8,0,0,0,1.29-.13,1,1,0,0,0,.45-.54,2.85,2.85,0,0,0,.17-1.07,2.66,2.66,0,0,0-.17-1,1.06,1.06,0,0,0-.47-.54,3.91,3.91,0,0,0-1.21-.1h-1.17Z"/><path class="cls-3" d="M267.51,71.2h-1.62l-.65-3h-2.95l-.61,3h-1.59L263,57.75h1.58Zm-2.74-5.32-1-5-1,5Z"/><path class="cls-3" d="M267.91,66.82l1.46-.26c.16,1.72.7,2.58,1.61,2.58a1.25,1.25,0,0,0,1.06-.53,2.14,2.14,0,0,0,.39-1.31,2,2,0,0,0-.14-.77,1.19,1.19,0,0,0-.41-.53,8.49,8.49,0,0,0-1.34-.69,4,4,0,0,1-1.39-.94,3.67,3.67,0,0,1-.71-1.32,6,6,0,0,1-.26-1.77,5.41,5.41,0,0,1,.34-2,3,3,0,0,1,.92-1.33,2.52,2.52,0,0,1,3.49.61,5.47,5.47,0,0,1,.78,3l-1.5.12a3,3,0,0,0-.42-1.52,1.12,1.12,0,0,0-.93-.43,1.18,1.18,0,0,0-.93.38,1.4,1.4,0,0,0-.32.93,1.47,1.47,0,0,0,.29.92,3.66,3.66,0,0,0,1.36.83,4.87,4.87,0,0,1,1.63,1,3.63,3.63,0,0,1,.76,1.39,6.84,6.84,0,0,1,.26,2.06,5.59,5.59,0,0,1-.72,2.94,2.43,2.43,0,0,1-2.26,1.19Q268.23,71.43,267.91,66.82Z"/><path class="cls-3" d="M278,71.2V57.75h5.48V60h-4v3h3.71v2.27h-3.71v3.65h4.12V71.2Z"/><path class="cls-3" d="M284.91,57.75h2.72a2.84,2.84,0,0,1,1.55.35,3.14,3.14,0,0,1,1,1.16,7.64,7.64,0,0,1,.69,2.12,17.33,17.33,0,0,1,.25,3.24,15,15,0,0,1-.26,3,7.71,7.71,0,0,1-.67,2,3.06,3.06,0,0,1-1,1.13,2.55,2.55,0,0,1-1.47.38h-2.8ZM286.39,60v8.9h1.12a2.07,2.07,0,0,0,1-.2,1.52,1.52,0,0,0,.53-.61,4.47,4.47,0,0,0,.34-1.29,19.54,19.54,0,0,0,0-4.67A4,4,0,0,0,289,60.8a1.42,1.42,0,0,0-.71-.65,4,4,0,0,0-1.21-.12Z"/><path class="cls-3" d="M292.32,71.2V57.75h1.48V71.2Z"/><path class="cls-3" d="M295.27,71.2V57.86h1.49V68.93h3.71V71.2Z"/><path class="cls-3" d="M301.49,71.2V57.75H303V71.2Z"/><path class="cls-3" d="M309.13,66.26l1.44.83a7.46,7.46,0,0,1-1.12,3.3,2.35,2.35,0,0,1-1.94,1,2.66,2.66,0,0,1-2.34-1.66,10.93,10.93,0,0,1-1-5.17,11.6,11.6,0,0,1,1-5.39,2.72,2.72,0,0,1,2.43-1.69,2.45,2.45,0,0,1,2.07,1.27,6.87,6.87,0,0,1,.88,2.67l-1.48.64a3.6,3.6,0,0,0-.56-1.67,1.2,1.2,0,0,0-1-.58c-.55,0-1,.35-1.34,1.06a8.74,8.74,0,0,0-.51,3.51,9.21,9.21,0,0,0,.5,3.62c.33.71.77,1.07,1.31,1.07a1.24,1.24,0,0,0,1-.68A5.77,5.77,0,0,0,309.13,66.26Z"/><path class="cls-3" d="M311.8,71.2V57.75h1.48V71.2Z"/><path class="cls-3" d="M321.37,71.2h-1.61l-.65-3h-2.95l-.61,3H314l2.88-13.45h1.57Zm-2.74-5.32-1-5-1,5Z"/><path class="cls-3" d="M321.78,66.82l1.46-.26c.16,1.72.7,2.58,1.6,2.58a1.26,1.26,0,0,0,1.07-.53,2.21,2.21,0,0,0,.38-1.31,2,2,0,0,0-.13-.77,1.27,1.27,0,0,0-.41-.53,9,9,0,0,0-1.34-.69,4.09,4.09,0,0,1-1.4-.94,3.82,3.82,0,0,1-.7-1.32,6,6,0,0,1-.26-1.77,5.41,5.41,0,0,1,.34-2,3,3,0,0,1,.92-1.33,2.32,2.32,0,0,1,1.45-.45,2.36,2.36,0,0,1,2,1.06,5.47,5.47,0,0,1,.77,3l-1.49.12a3.27,3.27,0,0,0-.42-1.52,1.12,1.12,0,0,0-.93-.43,1.18,1.18,0,0,0-.93.38,1.35,1.35,0,0,0-.32.93,1.41,1.41,0,0,0,.29.92,3.66,3.66,0,0,0,1.36.83,4.71,4.71,0,0,1,1.62,1,3.52,3.52,0,0,1,.77,1.39,7.18,7.18,0,0,1,.26,2.06,5.59,5.59,0,0,1-.72,2.94,2.43,2.43,0,0,1-2.26,1.19C323,71.43,322,69.89,321.78,66.82Z"/></g></g></svg>