<svg xmlns="http://www.w3.org/2000/svg" viewBox="0 0 246.2 90.71"><defs><style>.cls-1,.cls-3{fill:#11194e;}.cls-1,.cls-2{fill-rule:evenodd;}.cls-2{fill:#00a7e1;}</style></defs><title>Recurso 2</title><g id="Capa_2" data-name="Capa 2"><g id="Capa_1-2" data-name="Capa 1"><polygon class="cls-1" points="37.09 50.47 20.81 33.79 53.6 0 90.71 38.03 90.71 72.17 53.25 33.79 37.09 50.47"/><polygon class="cls-2" points="0 52.62 0.04 19.05 37.04 56.95 53.33 40.17 69.95 56.92 37.17 90.71 0 52.62"/><path class="cls-3" d="M95.18,86.64V79.08H93.69V77.54h4v1.54H96.18v7.56Z"/><path class="cls-3" d="M98.32,86.64v-9.1H102v1.54h-2.7v2h2.51v1.54H99.33V85.1h2.79v1.54Z"/><path class="cls-3" d="M103,86.64v-9h1V85.1h2.51v1.54Z"/><path class="cls-3" d="M107.24,86.64v-9.1H111v1.54h-2.7v2h2.51v1.54h-2.51V85.1H111v1.54Z"/><path class="cls-3" d="M115.1,83.29l1,.57a5.14,5.14,0,0,1-.76,2.23,1.61,1.61,0,0,1-1.31.71,1.81,1.81,0,0,1-1.59-1.13,7.47,7.47,0,0,1-.7-3.5,7.83,7.83,0,0,1,.71-3.65,1.82,1.82,0,0,1,1.64-1.14,1.67,1.67,0,0,1,1.41.86,4.67,4.67,0,0,1,.59,1.8l-1,.44a2.42,2.42,0,0,0-.38-1.13A.82.82,0,0,0,114,79c-.37,0-.67.24-.91.72a5.94,5.94,0,0,0-.35,2.38,6.43,6.43,0,0,0,.34,2.45c.23.48.53.73.89.73a.82.82,0,0,0,.69-.47A3.94,3.94,0,0,0,115.1,83.29Z"/><path class="cls-3" d="M116.73,82.14a9.19,9.19,0,0,1,.33-2.68,3.58,3.58,0,0,1,.84-1.56,1.68,1.68,0,0,1,1.26-.52,2,2,0,0,1,1.75,1.22,7.35,7.35,0,0,1,.67,3.49,7.5,7.5,0,0,1-.71,3.57,1.86,1.86,0,0,1-3.42,0A7.26,7.26,0,0,1,116.73,82.14Zm1-.06a5.48,5.48,0,0,0,.4,2.36c.27.52.6.79,1,.79s.73-.26,1-.78a5.62,5.62,0,0,0,.39-2.4,5.36,5.36,0,0,0-.38-2.34,1.12,1.12,0,0,0-1-.76,1.15,1.15,0,0,0-1,.77A5.38,5.38,0,0,0,117.77,82.08Z"/><path class="cls-3" d="M122.36,86.64v-9.1h1.51l.91,6.21.9-6.21h1.52v9.1h-.94V79.47l-1,7.17h-1l-1-7.17v7.17Z"/><path class="cls-3" d="M128.18,77.54h1v4.93c0,.76,0,1.26,0,1.49a1.89,1.89,0,0,0,.31.94.8.8,0,0,0,.67.33.75.75,0,0,0,.57-.24,1.2,1.2,0,0,0,.3-.64,11.18,11.18,0,0,0,.08-1.78v-5h1v4.78A18.47,18.47,0,0,1,132,85a2.59,2.59,0,0,1-.59,1.32,1.56,1.56,0,0,1-1.21.51,1.69,1.69,0,0,1-1.22-.42,2.4,2.4,0,0,1-.64-1.18,13.27,13.27,0,0,1-.2-2.81Z"/><path class="cls-3" d="M133.24,86.64v-9.1h1l2.05,6.08V77.54h.94v9.1h-1l-2-5.94v5.94Z"/><path class="cls-3" d="M138.24,86.64v-9.1h1v9.1Z"/><path class="cls-3" d="M143.41,83.29l1,.57a4.89,4.89,0,0,1-.76,2.23,1.59,1.59,0,0,1-1.31.71,1.8,1.8,0,0,1-1.58-1.13,7.34,7.34,0,0,1-.7-3.5,7.84,7.84,0,0,1,.7-3.65,1.85,1.85,0,0,1,1.65-1.14,1.65,1.65,0,0,1,1.4.86,4.51,4.51,0,0,1,.59,1.8l-1,.44a2.53,2.53,0,0,0-.39-1.13.8.8,0,0,0-.67-.4q-.56,0-.9.72a5.76,5.76,0,0,0-.35,2.38,6.24,6.24,0,0,0,.34,2.45c.23.48.52.73.88.73a.82.82,0,0,0,.69-.47A3.59,3.59,0,0,0,143.41,83.29Z"/><path class="cls-3" d="M149.76,86.64h-1.09l-.44-2.06h-2l-.41,2.06h-1.08l1.95-9.1h1.07ZM147.91,83l-.69-3.38L146.54,83Z"/><path class="cls-3" d="M153.49,83.29l1,.57a4.89,4.89,0,0,1-.76,2.23,1.59,1.59,0,0,1-1.31.71,1.8,1.8,0,0,1-1.58-1.13,7.34,7.34,0,0,1-.7-3.5,7.84,7.84,0,0,1,.7-3.65,1.85,1.85,0,0,1,1.65-1.14,1.65,1.65,0,0,1,1.4.86,4.51,4.51,0,0,1,.59,1.8l-1,.44a2.53,2.53,0,0,0-.39-1.13.8.8,0,0,0-.67-.4q-.56,0-.9.72a5.76,5.76,0,0,0-.35,2.38,6.24,6.24,0,0,0,.34,2.45c.23.48.52.73.88.73a.82.82,0,0,0,.69-.47A3.59,3.59,0,0,0,153.49,83.29Z"/><path class="cls-3" d="M155.3,86.64v-9.1h1v9.1Z"/><path class="cls-3" d="M157.07,82.14a9.58,9.58,0,0,1,.32-2.68,3.79,3.79,0,0,1,.84-1.56,1.71,1.71,0,0,1,1.26-.52,2,2,0,0,1,1.75,1.22,9.25,9.25,0,0,1,0,7.06,1.88,1.88,0,0,1-1.7,1.14,1.9,1.9,0,0,1-1.71-1.13A7.26,7.26,0,0,1,157.07,82.14Zm1-.06a5.33,5.33,0,0,0,.4,2.36c.27.52.6.79,1,.79s.73-.26,1-.78a5.62,5.62,0,0,0,.39-2.4,5.52,5.52,0,0,0-.38-2.34,1.14,1.14,0,0,0-1-.76,1.15,1.15,0,0,0-1,.77A5.38,5.38,0,0,0,158.11,82.08Z"/><path class="cls-3" d="M162.72,86.64v-9.1h1l2.05,6.08V77.54h.94v9.1h-1l-2-5.94v5.94Z"/><path class="cls-3" d="M167.75,86.64v-9.1h3.71v1.54h-2.7v2h2.51v1.54h-2.51V85.1h2.79v1.54Z"/><path class="cls-3" d="M172.15,83.67l1-.17c.11,1.16.47,1.74,1.09,1.74a.87.87,0,0,0,.72-.35,1.51,1.51,0,0,0,.26-.89,1.4,1.4,0,0,0-.09-.53.87.87,0,0,0-.28-.35,5.53,5.53,0,0,0-.91-.47A2.94,2.94,0,0,1,173,82a2.56,2.56,0,0,1-.48-.9,4.19,4.19,0,0,1-.17-1.2,3.81,3.81,0,0,1,.22-1.34,2,2,0,0,1,.63-.9,1.57,1.57,0,0,1,1-.3,1.6,1.6,0,0,1,1.38.71,3.74,3.74,0,0,1,.53,2l-1,.08a2.17,2.17,0,0,0-.28-1,.76.76,0,0,0-.63-.29.8.8,0,0,0-.63.26.9.9,0,0,0-.22.63,1,1,0,0,0,.2.62,2.39,2.39,0,0,0,.92.56,3.37,3.37,0,0,1,1.1.69,2.44,2.44,0,0,1,.52.94,4.72,4.72,0,0,1,.18,1.4,3.83,3.83,0,0,1-.49,2,1.67,1.67,0,0,1-1.53.81C173,86.8,172.29,85.75,172.15,83.67Z"/><path class="cls-3" d="M180.2,86.64V82.81l-1.83-5.27h1.18l1.18,3.6,1.15-3.6H183l-1.83,5.28v3.82Z"/><path class="cls-3" d="M185.16,82.14a9.58,9.58,0,0,1,.32-2.68,3.69,3.69,0,0,1,.85-1.56,1.68,1.68,0,0,1,1.26-.52,2,2,0,0,1,1.74,1.22,9.25,9.25,0,0,1,0,7.06,1.88,1.88,0,0,1-1.7,1.14,1.91,1.91,0,0,1-1.71-1.13A7.26,7.26,0,0,1,185.16,82.14Zm1-.06a5.33,5.33,0,0,0,.4,2.36c.27.52.6.79,1,.79s.73-.26,1-.78a5.62,5.62,0,0,0,.39-2.4,5.52,5.52,0,0,0-.38-2.34,1.13,1.13,0,0,0-1-.76,1.15,1.15,0,0,0-1,.77A5.38,5.38,0,0,0,186.2,82.08Z"/><path class="cls-3" d="M190.8,77.54h2a2.21,2.21,0,0,1,1.16.22,1.66,1.66,0,0,1,.56.79,3.4,3.4,0,0,1,.23,1.28,3.45,3.45,0,0,1-.2,1.19,1.77,1.77,0,0,1-.51.78,1.62,1.62,0,0,1,.7.81A3.56,3.56,0,0,1,195,84a4,4,0,0,1-.32,1.68,1.54,1.54,0,0,1-.76.85,5.51,5.51,0,0,1-1.41.11h-1.7Zm1,1.51v2.11h.66a5.08,5.08,0,0,0,.74,0,.66.66,0,0,0,.41-.33,1.62,1.62,0,0,0,.14-.72,1.48,1.48,0,0,0-.12-.65.57.57,0,0,0-.28-.32,4.37,4.37,0,0,0-1-.06Zm0,3.62V85.1h.93a1.91,1.91,0,0,0,.8-.1.76.76,0,0,0,.29-.37,1.87,1.87,0,0,0,.12-.72,1.7,1.7,0,0,0-.13-.73.73.73,0,0,0-.34-.4,2.21,2.21,0,0,0-.86-.11Z"/><path class="cls-3" d="M195.84,86.64v-9.1H198a2.11,2.11,0,0,1,1.16.24,1.7,1.7,0,0,1,.58.85,4.21,4.21,0,0,1,.22,1.45,3.68,3.68,0,0,1-.34,1.72,1.5,1.5,0,0,1-1,.82,3.29,3.29,0,0,1,.54.76,14.8,14.8,0,0,1,.58,1.48l.61,1.78h-1.21l-.73-2c-.26-.72-.44-1.16-.53-1.35a1.09,1.09,0,0,0-.3-.37,1,1,0,0,0-.51-.1h-.21v3.8Zm1-5.25h.75a2.5,2.5,0,0,0,.87-.09.65.65,0,0,0,.31-.37,2,2,0,0,0,.11-.72,1.9,1.9,0,0,0-.11-.7.74.74,0,0,0-.32-.37,3.06,3.06,0,0,0-.82-.06h-.79Z"/><path class="cls-3" d="M205.39,86.64H204.3l-.44-2.06h-2l-.41,2.06h-1.08l1.95-9.1h1.07ZM203.54,83l-.69-3.38L202.17,83Z"/><path class="cls-3" d="M205.67,83.67l1-.17c.11,1.16.48,1.74,1.09,1.74a.85.85,0,0,0,.72-.35,1.44,1.44,0,0,0,.26-.89,1.4,1.4,0,0,0-.09-.53.8.8,0,0,0-.28-.35,5.28,5.28,0,0,0-.9-.47,3,3,0,0,1-.95-.63,2.4,2.4,0,0,1-.47-.9,3.87,3.87,0,0,1-.18-1.2,3.8,3.8,0,0,1,.23-1.34,2.1,2.1,0,0,1,.62-.9,1.62,1.62,0,0,1,1-.3,1.58,1.58,0,0,1,1.37.71,3.74,3.74,0,0,1,.53,2l-1,.08a2.15,2.15,0,0,0-.29-1,.76.76,0,0,0-.63-.29.8.8,0,0,0-.63.26,1,1,0,0,0-.22.63,1,1,0,0,0,.2.62,2.47,2.47,0,0,0,.92.56,3.26,3.26,0,0,1,1.1.69,2.44,2.44,0,0,1,.52.94,4.72,4.72,0,0,1,.18,1.4,3.74,3.74,0,0,1-.49,2,1.66,1.66,0,0,1-1.53.81C206.49,86.8,205.8,85.75,205.67,83.67Z"/><path class="cls-3" d="M212.52,86.64v-9.1h3.71v1.54h-2.7v2H216v1.54h-2.51V85.1h2.8v1.54Z"/><path class="cls-3" d="M217.17,77.54H219a1.92,1.92,0,0,1,1.06.23,2.19,2.19,0,0,1,.65.78,5,5,0,0,1,.47,1.44,12.17,12.17,0,0,1,.17,2.19,10.21,10.21,0,0,1-.18,2,5.27,5.27,0,0,1-.45,1.39,2,2,0,0,1-.66.76,1.73,1.73,0,0,1-1,.26h-1.9Zm1,1.54v6h.76a1.27,1.27,0,0,0,.7-.14.91.91,0,0,0,.36-.41,3.09,3.09,0,0,0,.23-.87,13.91,13.91,0,0,0,0-3.16,2.62,2.62,0,0,0-.29-.92,1,1,0,0,0-.48-.44,2.54,2.54,0,0,0-.82-.08Z"/><path class="cls-3" d="M222.19,86.64v-9.1h1v9.1Z"/><path class="cls-3" d="M224.19,86.64v-9h1V85.1h2.51v1.54Z"/><path class="cls-3" d="M228.4,86.64v-9.1h1v9.1Z"/><path class="cls-3" d="M233.57,83.29l1,.57a5.14,5.14,0,0,1-.76,2.23,1.61,1.61,0,0,1-1.31.71,1.82,1.82,0,0,1-1.59-1.13,7.47,7.47,0,0,1-.7-3.5,7.83,7.83,0,0,1,.71-3.65,1.82,1.82,0,0,1,1.64-1.14,1.67,1.67,0,0,1,1.41.86,4.67,4.67,0,0,1,.59,1.8l-1,.44a2.42,2.42,0,0,0-.38-1.13.8.8,0,0,0-.67-.4c-.37,0-.67.24-.91.72a5.94,5.94,0,0,0-.35,2.38,6.43,6.43,0,0,0,.34,2.45c.23.48.53.73.89.73a.82.82,0,0,0,.69-.47A3.94,3.94,0,0,0,233.57,83.29Z"/><path class="cls-3" d="M235.38,86.64v-9.1h1v9.1Z"/><path class="cls-3" d="M241.86,86.64h-1.09l-.44-2.06h-2l-.41,2.06h-1.08l1.95-9.1h1.07ZM240,83l-.7-3.38L238.64,83Z"/><path class="cls-3" d="M242.14,83.67l1-.17c.11,1.16.48,1.74,1.09,1.74a.85.85,0,0,0,.72-.35,1.44,1.44,0,0,0,.26-.89,1.4,1.4,0,0,0-.09-.53.8.8,0,0,0-.28-.35,5.28,5.28,0,0,0-.9-.47A3,3,0,0,1,243,82a2.4,2.4,0,0,1-.47-.9,3.87,3.87,0,0,1-.18-1.2,3.59,3.59,0,0,1,.23-1.34,2.1,2.1,0,0,1,.62-.9,1.62,1.62,0,0,1,1-.3,1.59,1.59,0,0,1,1.37.71,3.74,3.74,0,0,1,.53,2l-1,.08a2.15,2.15,0,0,0-.29-1,.76.76,0,0,0-.63-.29.8.8,0,0,0-.63.26,1,1,0,0,0-.22.63,1,1,0,0,0,.2.62,2.47,2.47,0,0,0,.92.56,3.26,3.26,0,0,1,1.1.69,2.44,2.44,0,0,1,.52.94,4.72,4.72,0,0,1,.18,1.4,3.74,3.74,0,0,1-.49,2,1.66,1.66,0,0,1-1.53.81C243,86.8,242.27,85.75,242.14,83.67Z"/><path class="cls-3" d="M115.33,73.32h-3.85l-1.54-4.86h-7l-1.46,4.86H97.65l6.86-21.47h3.77Zm-6.54-8.49-2.43-8-2.38,8Z"/><path class="cls-3" d="M117.21,73.32V51.85h7.48a10.41,10.41,0,0,1,4.11.58,4.5,4.5,0,0,1,2,2,7,7,0,0,1,.79,3.42,6.38,6.38,0,0,1-1.21,4A5.4,5.4,0,0,1,127,63.85a8.33,8.33,0,0,1,1.89,1.79,25.35,25.35,0,0,1,2,3.5L133,73.32h-4.24l-2.58-4.67a30.85,30.85,0,0,0-1.88-3.17,2.83,2.83,0,0,0-1.06-.88,4.81,4.81,0,0,0-1.78-.24h-.74v9Zm3.54-12.39h2.64a13.39,13.39,0,0,0,3.08-.21,2,2,0,0,0,1.07-.86,3.18,3.18,0,0,0,.41-1.71,3,3,0,0,0-.41-1.65,2.18,2.18,0,0,0-1.12-.86,14.65,14.65,0,0,0-2.88-.16h-2.79Z"/><path class="cls-3" d="M150.84,73.32H147l-1.55-4.86h-7l-1.46,4.86h-3.78L140,51.85h3.76Zm-6.54-8.49-2.43-8-2.39,8Z"/><path class="cls-3" d="M151.81,66.32l3.47-.41q.58,4.13,3.84,4.12a3.61,3.61,0,0,0,2.53-.84,2.7,2.7,0,0,0,.92-2.09,2.22,2.22,0,0,0-.32-1.24,2.29,2.29,0,0,0-1-.85,28.19,28.19,0,0,0-3.19-1.1,11.08,11.08,0,0,1-3.33-1.49,5.62,5.62,0,0,1-1.67-2.12,6.4,6.4,0,0,1-.63-2.82,6.32,6.32,0,0,1,.8-3.16,5.25,5.25,0,0,1,2.21-2.12,7.52,7.52,0,0,1,3.47-.72A6.1,6.1,0,0,1,165.62,58l-3.56.19a3.82,3.82,0,0,0-1-2.42,3.22,3.22,0,0,0-2.21-.69,3.53,3.53,0,0,0-2.21.6,1.82,1.82,0,0,0-.78,1.49,1.87,1.87,0,0,0,.71,1.48A10,10,0,0,0,159.79,60a13.45,13.45,0,0,1,3.88,1.64,5.61,5.61,0,0,1,1.82,2.21,7.75,7.75,0,0,1,.63,3.29,6.75,6.75,0,0,1-1.72,4.7c-1.15,1.27-2.94,1.9-5.39,1.9Q152.54,73.69,151.81,66.32Z"/><path class="cls-3" d="M169.12,73.32V51.85h13.07v3.63h-9.52v4.76h8.84v3.62h-8.84v5.83h9.84v3.63Z"/><path class="cls-3" d="M185.53,73.32V51.85H193a10.37,10.37,0,0,1,4.11.58,4.5,4.5,0,0,1,2,2,7,7,0,0,1,.79,3.42,6.32,6.32,0,0,1-1.21,4,5.4,5.4,0,0,1-3.44,1.94,8.33,8.33,0,0,1,1.89,1.79,25.35,25.35,0,0,1,2,3.5l2.14,4.18h-4.24l-2.58-4.67a30.85,30.85,0,0,0-1.88-3.17,2.83,2.83,0,0,0-1.06-.88,4.81,4.81,0,0,0-1.78-.24h-.74v9Zm3.54-12.39h2.64a13.39,13.39,0,0,0,3.08-.21,2,2,0,0,0,1.07-.86,3.18,3.18,0,0,0,.41-1.71,3,3,0,0,0-.41-1.65,2.18,2.18,0,0,0-1.12-.86,14.65,14.65,0,0,0-2.88-.16h-2.79Z"/><path class="cls-3" d="M207.61,68.19l2.54-.3c.29,2,1.23,3,2.82,3a2.66,2.66,0,0,0,1.86-.62,2,2,0,0,0,.67-1.53,1.73,1.73,0,0,0-.23-.91,1.77,1.77,0,0,0-.72-.62,21,21,0,0,0-2.34-.81,8.08,8.08,0,0,1-2.44-1.09,4.08,4.08,0,0,1-1.23-1.56,4.85,4.85,0,0,1,.13-4.38,3.84,3.84,0,0,1,1.61-1.56,5.6,5.6,0,0,1,2.55-.52,4.48,4.48,0,0,1,4.91,4.77l-2.61.14a2.87,2.87,0,0,0-.74-1.78,2.41,2.41,0,0,0-1.63-.5,2.62,2.62,0,0,0-1.62.44,1.33,1.33,0,0,0-.57,1.09,1.37,1.37,0,0,0,.52,1.08,7.12,7.12,0,0,0,2.37,1,9.68,9.68,0,0,1,2.84,1.2,4.06,4.06,0,0,1,1.34,1.62,5.63,5.63,0,0,1,.46,2.41,5,5,0,0,1-1.26,3.45,5.08,5.08,0,0,1-4,1.39Q208.15,73.59,207.61,68.19Z"/><path class="cls-3" d="M220.31,73.32V57.58h5.48a7.71,7.71,0,0,1,3,.42,3.28,3.28,0,0,1,1.48,1.47,5.09,5.09,0,0,1,.59,2.51,4.72,4.72,0,0,1-.89,3,3.92,3.92,0,0,1-2.52,1.41,6.77,6.77,0,0,1,1.39,1.32,19.55,19.55,0,0,1,1.49,2.56l1.57,3.07H228.8l-1.89-3.42a23.59,23.59,0,0,0-1.38-2.33,2.14,2.14,0,0,0-.78-.64,3.48,3.48,0,0,0-1.31-.18h-.53v6.57Zm2.6-9.08h1.93a9.18,9.18,0,0,0,2.25-.16,1.39,1.39,0,0,0,.79-.63,2.29,2.29,0,0,0,.3-1.25,2.15,2.15,0,0,0-.3-1.21,1.47,1.47,0,0,0-.82-.63,10.11,10.11,0,0,0-2.11-.12h-2Z"/><path class="cls-3" d="M233.39,73.32V57.71H236V70.66h6.49v2.66Z"/><path class="cls-3" d="M95.18,86.64V79.08H93.69V77.54h4v1.54H96.18v7.56Z"/><path class="cls-3" d="M98.32,86.64v-9.1H102v1.54h-2.7v2h2.51v1.54H99.33V85.1h2.79v1.54Z"/><path class="cls-3" d="M103,86.64v-9h1V85.1h2.51v1.54Z"/><path class="cls-3" d="M107.24,86.64v-9.1H111v1.54h-2.7v2h2.51v1.54h-2.51V85.1H111v1.54Z"/><path class="cls-3" d="M115.1,83.29l1,.57a5.14,5.14,0,0,1-.76,2.23,1.61,1.61,0,0,1-1.31.71,1.81,1.81,0,0,1-1.59-1.13,7.47,7.47,0,0,1-.7-3.5,7.83,7.83,0,0,1,.71-3.65,1.82,1.82,0,0,1,1.64-1.14,1.67,1.67,0,0,1,1.41.86,4.67,4.67,0,0,1,.59,1.8l-1,.44a2.42,2.42,0,0,0-.38-1.13A.82.82,0,0,0,114,79c-.37,0-.67.24-.91.72a5.94,5.94,0,0,0-.35,2.38,6.43,6.43,0,0,0,.34,2.45c.23.48.53.73.89.73a.82.82,0,0,0,.69-.47A3.94,3.94,0,0,0,115.1,83.29Z"/><path class="cls-3" d="M116.73,82.14a9.19,9.19,0,0,1,.33-2.68,3.58,3.58,0,0,1,.84-1.56,1.68,1.68,0,0,1,1.26-.52,2,2,0,0,1,1.75,1.22,7.35,7.35,0,0,1,.67,3.49,7.5,7.5,0,0,1-.71,3.57,1.86,1.86,0,0,1-3.42,0A7.26,7.26,0,0,1,116.73,82.14Zm1-.06a5.48,5.48,0,0,0,.4,2.36c.27.52.6.79,1,.79s.73-.26,1-.78a5.62,5.62,0,0,0,.39-2.4,5.36,5.36,0,0,0-.38-2.34,1.12,1.12,0,0,0-1-.76,1.15,1.15,0,0,0-1,.77A5.38,5.38,0,0,0,117.77,82.08Z"/><path class="cls-3" d="M122.36,86.64v-9.1h1.51l.91,6.21.9-6.21h1.52v9.1h-.94V79.47l-1,7.17h-1l-1-7.17v7.17Z"/><path class="cls-3" d="M128.18,77.54h1v4.93c0,.76,0,1.26,0,1.49a1.89,1.89,0,0,0,.31.94.8.8,0,0,0,.67.33.75.75,0,0,0,.57-.24,1.2,1.2,0,0,0,.3-.64,11.18,11.18,0,0,0,.08-1.78v-5h1v4.78A18.47,18.47,0,0,1,132,85a2.59,2.59,0,0,1-.59,1.32,1.56,1.56,0,0,1-1.21.51,1.69,1.69,0,0,1-1.22-.42,2.4,2.4,0,0,1-.64-1.18,13.27,13.27,0,0,1-.2-2.81Z"/><path class="cls-3" d="M133.24,86.64v-9.1h1l2.05,6.08V77.54h.94v9.1h-1l-2-5.94v5.94Z"/><path class="cls-3" d="M138.24,86.64v-9.1h1v9.1Z"/><path class="cls-3" d="M143.41,83.29l1,.57a4.89,4.89,0,0,1-.76,2.23,1.59,1.59,0,0,1-1.31.71,1.8,1.8,0,0,1-1.58-1.13,7.34,7.34,0,0,1-.7-3.5,7.84,7.84,0,0,1,.7-3.65,1.85,1.85,0,0,1,1.65-1.14,1.65,1.65,0,0,1,1.4.86,4.51,4.51,0,0,1,.59,1.8l-1,.44a2.53,2.53,0,0,0-.39-1.13.8.8,0,0,0-.67-.4q-.56,0-.9.72a5.76,5.76,0,0,0-.35,2.38,6.24,6.24,0,0,0,.34,2.45c.23.48.52.73.88.73a.82.82,0,0,0,.69-.47A3.59,3.59,0,0,0,143.41,83.29Z"/><path class="cls-3" d="M149.76,86.64h-1.09l-.44-2.06h-2l-.41,2.06h-1.08l1.95-9.1h1.07ZM147.91,83l-.69-3.38L146.54,83Z"/><path class="cls-3" d="M153.49,83.29l1,.57a4.89,4.89,0,0,1-.76,2.23,1.59,1.59,0,0,1-1.31.71,1.8,1.8,0,0,1-1.58-1.13,7.34,7.34,0,0,1-.7-3.5,7.84,7.84,0,0,1,.7-3.65,1.85,1.85,0,0,1,1.65-1.14,1.65,1.65,0,0,1,1.4.86,4.51,4.51,0,0,1,.59,1.8l-1,.44a2.53,2.53,0,0,0-.39-1.13.8.8,0,0,0-.67-.4q-.56,0-.9.72a5.76,5.76,0,0,0-.35,2.38,6.24,6.24,0,0,0,.34,2.45c.23.48.52.73.88.73a.82.82,0,0,0,.69-.47A3.59,3.59,0,0,0,153.49,83.29Z"/><path class="cls-3" d="M155.3,86.64v-9.1h1v9.1Z"/><path class="cls-3" d="M157.07,82.14a9.58,9.58,0,0,1,.32-2.68,3.79,3.79,0,0,1,.84-1.56,1.71,1.71,0,0,1,1.26-.52,2,2,0,0,1,1.75,1.22,9.25,9.25,0,0,1,0,7.06,1.88,1.88,0,0,1-1.7,1.14,1.9,1.9,0,0,1-1.71-1.13A7.26,7.26,0,0,1,157.07,82.14Zm1-.06a5.33,5.33,0,0,0,.4,2.36c.27.52.6.79,1,.79s.73-.26,1-.78a5.62,5.62,0,0,0,.39-2.4,5.52,5.52,0,0,0-.38-2.34,1.14,1.14,0,0,0-1-.76,1.15,1.15,0,0,0-1,.77A5.38,5.38,0,0,0,158.11,82.08Z"/><path class="cls-3" d="M162.72,86.64v-9.1h1l2.05,6.08V77.54h.94v9.1h-1l-2-5.94v5.94Z"/><path class="cls-3" d="M167.75,86.64v-9.1h3.71v1.54h-2.7v2h2.51v1.54h-2.51V85.1h2.79v1.54Z"/><path class="cls-3" d="M172.15,83.67l1-.17c.11,1.16.47,1.74,1.09,1.74a.87.87,0,0,0,.72-.35,1.51,1.51,0,0,0,.26-.89,1.4,1.4,0,0,0-.09-.53.87.87,0,0,0-.28-.35,5.53,5.53,0,0,0-.91-.47A2.94,2.94,0,0,1,173,82a2.56,2.56,0,0,1-.48-.9,4.19,4.19,0,0,1-.17-1.2,3.81,3.81,0,0,1,.22-1.34,2,2,0,0,1,.63-.9,1.57,1.57,0,0,1,1-.3,1.6,1.6,0,0,1,1.38.71,3.74,3.74,0,0,1,.53,2l-1,.08a2.17,2.17,0,0,0-.28-1,.76.76,0,0,0-.63-.29.8.8,0,0,0-.63.26.9.9,0,0,0-.22.63,1,1,0,0,0,.2.62,2.39,2.39,0,0,0,.92.56,3.37,3.37,0,0,1,1.1.69,2.44,2.44,0,0,1,.52.94,4.72,4.72,0,0,1,.18,1.4,3.83,3.83,0,0,1-.49,2,1.67,1.67,0,0,1-1.53.81C173,86.8,172.29,85.75,172.15,83.67Z"/><path class="cls-3" d="M180.2,86.64V82.81l-1.83-5.27h1.18l1.18,3.6,1.15-3.6H183l-1.83,5.28v3.82Z"/><path class="cls-3" d="M185.16,82.14a9.58,9.58,0,0,1,.32-2.68,3.69,3.69,0,0,1,.85-1.56,1.68,1.68,0,0,1,1.26-.52,2,2,0,0,1,1.74,1.22,9.25,9.25,0,0,1,0,7.06,1.88,1.88,0,0,1-1.7,1.14,1.91,1.91,0,0,1-1.71-1.13A7.26,7.26,0,0,1,185.16,82.14Zm1-.06a5.33,5.33,0,0,0,.4,2.36c.27.52.6.79,1,.79s.73-.26,1-.78a5.62,5.62,0,0,0,.39-2.4,5.52,5.52,0,0,0-.38-2.34,1.13,1.13,0,0,0-1-.76,1.15,1.15,0,0,0-1,.77A5.38,5.38,0,0,0,186.2,82.08Z"/><path class="cls-3" d="M190.8,77.54h2a2.21,2.21,0,0,1,1.16.22,1.66,1.66,0,0,1,.56.79,3.4,3.4,0,0,1,.23,1.28,3.45,3.45,0,0,1-.2,1.19,1.77,1.77,0,0,1-.51.78,1.62,1.62,0,0,1,.7.81A3.56,3.56,0,0,1,195,84a4,4,0,0,1-.32,1.68,1.54,1.54,0,0,1-.76.85,5.51,5.51,0,0,1-1.41.11h-1.7Zm1,1.51v2.11h.66a5.08,5.08,0,0,0,.74,0,.66.66,0,0,0,.41-.33,1.62,1.62,0,0,0,.14-.72,1.48,1.48,0,0,0-.12-.65.57.57,0,0,0-.28-.32,4.37,4.37,0,0,0-1-.06Zm0,3.62V85.1h.93a1.91,1.91,0,0,0,.8-.1.76.76,0,0,0,.29-.37,1.87,1.87,0,0,0,.12-.72,1.7,1.7,0,0,0-.13-.73.73.73,0,0,0-.34-.4,2.21,2.21,0,0,0-.86-.11Z"/><path class="cls-3" d="M195.84,86.64v-9.1H198a2.11,2.11,0,0,1,1.16.24,1.7,1.7,0,0,1,.58.85,4.21,4.21,0,0,1,.22,1.45,3.68,3.68,0,0,1-.34,1.72,1.5,1.5,0,0,1-1,.82,3.29,3.29,0,0,1,.54.76,14.8,14.8,0,0,1,.58,1.48l.61,1.78h-1.21l-.73-2c-.26-.72-.44-1.16-.53-1.35a1.09,1.09,0,0,0-.3-.37,1,1,0,0,0-.51-.1h-.21v3.8Zm1-5.25h.75a2.5,2.5,0,0,0,.87-.09.65.65,0,0,0,.31-.37,2,2,0,0,0,.11-.72,1.9,1.9,0,0,0-.11-.7.74.74,0,0,0-.32-.37,3.06,3.06,0,0,0-.82-.06h-.79Z"/><path class="cls-3" d="M205.39,86.64H204.3l-.44-2.06h-2l-.41,2.06h-1.08l1.95-9.1h1.07ZM203.54,83l-.69-3.38L202.17,83Z"/><path class="cls-3" d="M205.67,83.67l1-.17c.11,1.16.48,1.74,1.09,1.74a.85.85,0,0,0,.72-.35,1.44,1.44,0,0,0,.26-.89,1.4,1.4,0,0,0-.09-.53.8.8,0,0,0-.28-.35,5.28,5.28,0,0,0-.9-.47,3,3,0,0,1-.95-.63,2.4,2.4,0,0,1-.47-.9,3.87,3.87,0,0,1-.18-1.2,3.8,3.8,0,0,1,.23-1.34,2.1,2.1,0,0,1,.62-.9,1.62,1.62,0,0,1,1-.3,1.58,1.58,0,0,1,1.37.71,3.74,3.74,0,0,1,.53,2l-1,.08a2.15,2.15,0,0,0-.29-1,.76.76,0,0,0-.63-.29.8.8,0,0,0-.63.26,1,1,0,0,0-.22.63,1,1,0,0,0,.2.62,2.47,2.47,0,0,0,.92.56,3.26,3.26,0,0,1,1.1.69,2.44,2.44,0,0,1,.52.94,4.72,4.72,0,0,1,.18,1.4,3.74,3.74,0,0,1-.49,2,1.66,1.66,0,0,1-1.53.81C206.49,86.8,205.8,85.75,205.67,83.67Z"/><path class="cls-3" d="M212.52,86.64v-9.1h3.71v1.54h-2.7v2H216v1.54h-2.51V85.1h2.8v1.54Z"/><path class="cls-3" d="M217.17,77.54H219a1.92,1.92,0,0,1,1.06.23,2.19,2.19,0,0,1,.65.78,5,5,0,0,1,.47,1.44,12.17,12.17,0,0,1,.17,2.19,10.21,10.21,0,0,1-.18,2,5.27,5.27,0,0,1-.45,1.39,2,2,0,0,1-.66.76,1.73,1.73,0,0,1-1,.26h-1.9Zm1,1.54v6h.76a1.27,1.27,0,0,0,.7-.14.91.91,0,0,0,.36-.41,3.09,3.09,0,0,0,.23-.87,13.91,13.91,0,0,0,0-3.16,2.62,2.62,0,0,0-.29-.92,1,1,0,0,0-.48-.44,2.54,2.54,0,0,0-.82-.08Z"/><path class="cls-3" d="M222.19,86.64v-9.1h1v9.1Z"/><path class="cls-3" d="M224.19,86.64v-9h1V85.1h2.51v1.54Z"/><path class="cls-3" d="M228.4,86.64v-9.1h1v9.1Z"/><path class="cls-3" d="M233.57,83.29l1,.57a5.14,5.14,0,0,1-.76,2.23,1.61,1.61,0,0,1-1.31.71,1.82,1.82,0,0,1-1.59-1.13,7.47,7.47,0,0,1-.7-3.5,7.83,7.83,0,0,1,.71-3.65,1.82,1.82,0,0,1,1.64-1.14,1.67,1.67,0,0,1,1.41.86,4.67,4.67,0,0,1,.59,1.8l-1,.44a2.42,2.42,0,0,0-.38-1.13.8.8,0,0,0-.67-.4c-.37,0-.67.24-.91.72a5.94,5.94,0,0,0-.35,2.38,6.43,6.43,0,0,0,.34,2.45c.23.48.53.73.89.73a.82.82,0,0,0,.69-.47A3.94,3.94,0,0,0,233.57,83.29Z"/><path class="cls-3" d="M235.38,86.64v-9.1h1v9.1Z"/><path class="cls-3" d="M241.86,86.64h-1.09l-.44-2.06h-2l-.41,2.06h-1.08l1.95-9.1h1.07ZM240,83l-.7-3.38L238.64,83Z"/><path class="cls-3" d="M242.14,83.67l1-.17c.11,1.16.48,1.74,1.09,1.74a.85.85,0,0,0,.72-.35,1.44,1.44,0,0,0,.26-.89,1.4,1.4,0,0,0-.09-.53.8.8,0,0,0-.28-.35,5.28,5.28,0,0,0-.9-.47A3,3,0,0,1,243,82a2.4,2.4,0,0,1-.47-.9,3.87,3.87,0,0,1-.18-1.2,3.59,3.59,0,0,1,.23-1.34,2.1,2.1,0,0,1,.62-.9,1.62,1.62,0,0,1,1-.3,1.59,1.59,0,0,1,1.37.71,3.74,3.74,0,0,1,.53,2l-1,.08a2.15,2.15,0,0,0-.29-1,.76.76,0,0,0-.63-.29.8.8,0,0,0-.63.26,1,1,0,0,0-.22.63,1,1,0,0,0,.2.62,2.47,2.47,0,0,0,.92.56,3.26,3.26,0,0,1,1.1.69,2.44,2.44,0,0,1,.52.94,4.72,4.72,0,0,1,.18,1.4,3.74,3.74,0,0,1-.49,2,1.66,1.66,0,0,1-1.53.81C243,86.8,242.27,85.75,242.14,83.67Z"/></g></g></svg>