<svg xmlns="http://www.w3.org/2000/svg" viewBox="0 0 359.41 383.31"><defs><style>.cls-1{fill:#11184e;}</style></defs><title>Recurso 1</title><g id="Capa_2" data-name="Capa 2"><g id="Capa_1-2" data-name="Capa 1"><path class="cls-1" d="M35.3,383.31c-7.32-2.69-10-7.94-9.8-15.67.93-32.17,2.65-64.28,5.83-96.32.72-7.31,1.64-5.53-4.93-9a66.38,66.38,0,0,0-19-6.4c-7.17-1.3-9.19-5.41-5.64-11.82,6.9-12.44,17.49-19.52,31.66-21,2.3-.23,3.17-.85,3.48-3.2,3.4-25.7,7.81-51.23,13.6-76.51a6.32,6.32,0,0,0-1.1-5.49C41.82,126.79,35.88,115,35,101.19a32.84,32.84,0,0,1,3-16.73C40.61,79,44,78,49.12,80.91c4.34,2.46,8.76,4.8,12.91,7.54,2.68,1.76,3.3.79,4.13-1.72,2.23-6.73,4.6-13.43,7.19-20C74.4,64,73.72,63.35,71.1,63A68.38,68.38,0,0,1,38.79,50.29a70.5,70.5,0,0,1-24.87-32C10.23,8.9,16.06.3,26.05.05,42-.37,57.37,1.94,71.23,10.57A60.31,60.31,0,0,1,89.86,29.29c1.29-2.27,2.35-4.19,3.46-6.08a19.08,19.08,0,0,1,34.12,16.91,61.87,61.87,0,0,1-4.24,8.31c-1.29,2.12-.78,3,1.22,4.3C134.84,59.49,141,69,142.48,81.46c.66,5.65-2.27,8.54-7.93,7.82a75,75,0,0,0-26.75,1.23A4.42,4.42,0,0,0,104,94c-1.25,4.43-2.77,8.79-4.2,13.17-.49,1.51-.65,2.68,1.14,3.7q25.47,14.56,50.86,29.28a4.84,4.84,0,0,0,1.06.26c.78-1.48.4-3,.4-4.44q0-56.68,0-113.38c0-8.61,2.55-10.74,10.94-9.34,11.28,1.89,19.47,8.6,26.33,17.14,12.88,16,19.53,34.86,23.56,54.73,4.59,22.58,3.72,45.12-1.13,67.56a5.47,5.47,0,0,0,1.09,5.13,42,42,0,0,1,9.06,21.39,4.24,4.24,0,0,0,2.31,3.51q12,6.93,23.86,14a4.92,4.92,0,0,0,3.87.55,18,18,0,0,1,13,1.84c28,16.1,56,32.11,83.84,48.4,9.24,5.41,11.88,16.36,6.7,25.77q-6.12,11.13-12.71,22c-5.83,9.64-16.77,12.62-26.6,7-27.58-15.78-55.06-31.73-82.57-47.63a18.63,18.63,0,0,1-8.7-10.8,4.18,4.18,0,0,0-1.77-2.72c-6.46-3.72-12.9-7.46-20-11.57v23.86c0,1,.77,1.5,1.34,2.15a19.6,19.6,0,0,1,4.92,13.36q0,47.34,0,94.67c0,10.47-6,16.35-15.21,19.71H162.55c-9.46-3-15.59-9-15.64-19.37-.14-31.81-.06-63.62,0-95.43a17.9,17.9,0,0,1,4.58-12.34,7.25,7.25,0,0,0,1.9-5.4c-.08-8.48-.1-17,0-25.45a5.93,5.93,0,0,0-2.51-5.35,41,41,0,0,1-13.28-17.76,6.4,6.4,0,0,0-4.66-4.16c-16.6-5.3-32.25-12.6-46.38-22.9-2.62-1.92-3.18-1.45-3.73,1.54C76.68,209.93,72.23,243.39,69.05,277c-.22,2.35.12,3.38,2.88,3.86,13.42,2.38,23.22,9.83,29.18,22.12,2.23,4.59.28,8.52-4.61,9.79-2.29.6-4.64,1-6.91,1.65C82.15,316.6,74.81,319,68.66,324c-1.74,1.39-3.32,2.84-3.4,5.47-.39,12.59-1.3,25.18-1.29,37.76,0,7.8-2.6,13.22-10,16.09ZM257,209.56c-3-.09-4.73,1.75-6.11,4.16-3.78,6.59-7.62,13.15-11.38,19.75-2.69,4.73-1.86,7.91,2.79,10.6q40.31,23.28,80.63,46.51c4.75,2.73,7.85,1.91,10.6-2.78Q339.33,278,345,268.07c2.74-4.81,2-7.85-2.78-10.6q-40.28-23.3-80.61-46.53A7.45,7.45,0,0,0,257,209.56Zm-97.4,106.76q0,23,0,46c0,6,2.23,8.23,8,8.25q11.22.06,22.43,0c5.5,0,7.8-2.22,7.8-7.66q0-46.72,0-93.45c0-5.25-2.27-7.41-7.58-7.44q-11.22,0-22.43,0c-6.15,0-8.26,2.14-8.27,8.35Q159.59,293.33,159.61,316.32ZM48.31,95.24a12.54,12.54,0,0,0-.64,6.87c1.56,13.56,8.6,24.64,16.65,35,17.46,22.44,40.09,37.81,66.87,47.19,2.22.78,2.88.7,3.06-1.94a42.67,42.67,0,0,1,11.57-26.93c2.05-2.18,1.94-2.92-.69-4.42-23.26-13.27-46.44-26.71-69.64-40.09Zm152.87,51.6c5.46-28,4-55.19-5.71-81.71-4.13-11.3-9.52-21.94-18.08-30.65A28.18,28.18,0,0,0,166.27,27c-.07,1.4-.16,2.39-.16,3.37V138.78c0,.63,0,1.25,0,1.87,0,1.35.56,1.71,1.87,1.38C179.53,139.08,190.43,140.92,201.18,146.84ZM62.71,153.17l-1.14.88c-.26.93-.59,1.85-.78,2.8q-6.67,34.31-11.48,68.93A1222.18,1222.18,0,0,0,38.43,361c-.25,9.73-.19,9.68,9.6,9.57,2.09,0,3-.31,3.1-2.8.46-24.19,1.93-48.34,3.71-72.47,1.8-24.37,4.48-48.66,7.89-72.86,2.61-18.5,5.59-36.95,9.1-55.31.26-1.38.82-2.83-.48-4.22C68.39,159.76,65.58,156.44,62.71,153.17Zm116.14,64a31.66,31.66,0,0,0,31.57-31.69,31.78,31.78,0,1,0-31.57,31.69ZM25.57,12.82c.87,2,1.42,3.55,2.14,5C37.4,36.68,52.8,47.57,73.8,50.61c5.71.83,6.06.58,8.17-4.73A4.94,4.94,0,0,0,81.76,42a39.68,39.68,0,0,0-9.62-14.54C59.23,15,43.2,12.37,25.57,12.82Zm84.75,12.75c-3.27.07-5.09,2-6.59,4.7-10.33,18.43-18,38-24.59,58C76.36,96.66,76.39,96.67,84,101c3.79,2.14,3.86,2.17,5.24-2.19,5.86-18.53,12.54-36.74,21.52-54,1.72-3.31,3.67-6.51,5.25-9.89C118.1,30.28,115.15,25.58,110.32,25.57Zm68.35,223.66c3.37,0,6.74-.13,10.09.05,2.37.12,3-.79,2.93-3-.13-5.11-.11-10.22,0-15.33,0-2.19-.45-2.77-2.77-2.17a39.74,39.74,0,0,1-20,0c-2.72-.7-2.9.32-2.86,2.45.09,4.61.28,9.24-.05,13.83-.27,3.62,1.14,4.5,4.42,4.2C173.17,249,175.93,249.23,178.67,249.23Zm30.88-31.47c5.65,3.16,11.09,6.14,16.46,9.25,1.55.9,2.17.28,2.89-1,3.5-6,7-12.06,10.6-18,.82-1.37.7-2.07-.76-2.87-4.9-2.72-9.74-5.55-14.57-8.38-1.2-.71-2-.85-2.47.79A46.13,46.13,0,0,1,209.55,217.76ZM66.3,310.08c6-2.94,11.33-5.45,17.1-6.94,1.56-.41,1.76-1.09.55-2.25a27.64,27.64,0,0,0-14.42-7.25c-1.75-.34-2.08.45-2.17,2C67.09,300.17,66.7,304.74,66.3,310.08ZM34.69,237.74c.38-1.53-.49-2.11-2.48-1.7a27.22,27.22,0,0,0-13.43,6.75c-1.46,1.37-2.2,2.24.55,3.09a93.92,93.92,0,0,1,11.06,4.28c2,.88,2.87.87,3.08-1.52C33.77,245.19,34.23,241.75,34.69,237.74Zm76-161.12c5.69-1,11.07-1,16.83-1A24.67,24.67,0,0,0,118,64c-1-.7-1.92-1.13-2.55.49C113.92,68.32,111.86,72,110.69,76.62Z"/><path class="cls-1" d="M179,166.2a19.12,19.12,0,0,1-.36,38.23A19.12,19.12,0,1,1,179,166.2Zm0,25.46a6.29,6.29,0,0,0,6.1-6.63,6.23,6.23,0,0,0-6.64-6.06,6.35,6.35,0,0,0,.54,12.69Z"/></g></g></svg>