<svg xmlns="http://www.w3.org/2000/svg" viewBox="0 0 383.36 383.21"><defs><style>.cls-1{fill:#11184e;}</style></defs><title>Recurso 10</title><g id="Capa_2" data-name="Capa 2"><g id="Capa_1-2" data-name="Capa 1"><path class="cls-1" d="M9.84,383.21c-7.26-3-9.93-8.34-9.84-16.16.3-23.82.1-47.65.11-71.47,0-8.18,3-12.19,10.79-14.29,1.51-.41,2.1-1,2-2.53-.08-1,0-2,0-3q0-99.16,0-198.33c0-23,15.1-41.14,37.64-44.84,15-2.47,28.14,2,38.91,12.81,2.19,2.18,3.28,2.25,5.49,0,9.61-9.76,20.31-9.63,30.05.09,4.43,4.43,4.43,4.43,8.83,0,2.29-2.29,4.58-4.6,6.88-6.88,9.17-9.09,20.29-9.14,29.38-.06q33.36,33.32,66.67,66.69c1,1,1.78,2.08,2.92,3.43,5.78-8.51,13.22-13.11,23.08-12.89a24.53,24.53,0,0,1,18.41,8.62c9.5,10.69,9,28.75-5.91,38.74.38,1.52,1.74,2.28,2.73,3.28q40.32,40.38,80.68,80.72c8.47,8.47,7.32,17.25-3,23.18-3.14,1.8-6.19,3.77-9.43,5.34-2.61,1.26-2.22,2.27-.41,3.88s3.78,3.63,5.55,5.55c5.61,6.07,5.18,14.5-1.46,19.33q-26.32,19.13-53,37.81c-5.54,3.89-11.58,3.06-16.65-1.87q-8.73-8.48-17.19-17.21c-1.4-1.43-2.24-1.54-4-.31-8.54,6.15-18.1,5.33-25.74-2.23q-19.68-19.49-39.13-39.2c-2.09-2.12-3.15-2.44-5.43-.11-10.06,10.32-20.66,10.21-30.91,0-2.29-2.28-4.65-6.23-7-6.24s-4.67,4-7,6.19c-4.89,4.62-9.16,9.91-14.67,13.85-1.73,1.24-1.29,2.83-1.3,4.36,0,19.21,0,38.42,0,57.63,0,13.24-7.62,23.15-19.73,26.16A33.58,33.58,0,0,1,100,364c-17.09,0-34.18.06-51.27,0-2.65,0-3.91.52-4.36,3.46-1.32,8.64-7.28,13.16-15.06,15.8ZM155.37,44.79c-2.5-.14-4.14,1.36-5.76,3C138.78,58.63,128,69.53,117,80.26c-2.07,2-1.81,3,.1,4.9q90.15,90,180.13,180.16c1.84,1.85,3.08,2.05,5.36.73,15-8.7,30-17.24,45.06-25.83,3.75-2.14,3.76-2.14.75-5.15l-95-95-91.8-91.79C159.9,46.54,158.21,44.63,155.37,44.79ZM25.62,176.33q0,50.5,0,101c0,2.15,0,3.61,2.87,4,9.19,1.35,15.41,8.07,16.28,17.35a69,69,0,0,1,.09,10.47c-.17,2.84.59,3.87,3.65,3.78q12.15-.33,24.31,0c3,.08,4-.65,4-3.86-.17-15.34-.12-30.68-.06-46,0-12.45,5.79-20.77,17.31-25.24a7.74,7.74,0,0,0,2.82-1.75C102.2,230.7,107.55,225.29,113,220c1.31-1.29,1.63-2.14.08-3.49-2-1.72-3.73-3.67-5.58-5.52-10-10-10-20.71.11-30.64,2.18-2.13,2.36-3.21.08-5.45q-19-18.6-37.61-37.53c-8.24-8.34-8.16-19.66,0-28,2.43-2.5,5-4.89,7.38-7.43,2.13-2.24,5.89-4,6-6.76.1-2.53-3.68-4.34-5.67-6.54a19.12,19.12,0,0,1,0-26.15c1.26-1.38,2.57-2.73,4-4,1.06-1,1.11-1.66.09-2.74C76,49.48,69,45.48,60.33,44.89c-19.4-1.31-34.64,12.84-34.69,32.29C25.56,110.23,25.62,143.28,25.62,176.33ZM247.11,294.14c3,0,4.65-1.51,6.26-3.13,7.84-7.86,15.63-15.76,23.59-23.5,1.91-1.85,1.8-2.84,0-4.66q-84.59-84.45-169-169c-1.76-1.76-2.69-1.7-4.38,0C96,101.5,88.38,109,80.79,116.62c-5.41,5.41-5.41,8,0,13.36L240.82,290c.88.88,1.75,1.77,2.7,2.58A5.68,5.68,0,0,0,247.11,294.14Zm-132,6.27c0-11.84,0-23.69,0-35.53a26.6,26.6,0,0,0-.49-5.57,13.09,13.09,0,0,0-11.55-10.14,12.64,12.64,0,0,0-12.79,8.39,20,20,0,0,0-.77,6.66c0,15.71,0,31.42,0,47.13,0,9.41-5,14.29-14.3,14.31-8.85,0-17.7.11-26.55-.05-2.82-.05-4,.54-3.84,3.65.26,6.1.25,12.22,0,18.32-.12,3,.9,3.72,3.77,3.69,17.21-.12,34.41,0,51.62-.06,10.1,0,14.9-4.8,14.92-14.89C115.16,324.35,115.14,312.38,115.14,300.41ZM12.86,332.31c0,11.73.05,23.46,0,35.18,0,2.19.43,3.22,2.87,3s5,0,7.48-.05c6.88,0,8.93-2,8.94-8.92q0-20.39,0-40.79c0-6.49.07-13,0-19.46-.07-5.05-2.34-7.3-7.32-7.46-2.87-.08-5.75.14-8.61-.06-2.63-.19-3.37.76-3.34,3.37C12.94,308.86,12.86,320.59,12.86,332.31Zm160.86-76.26c2.8.11,4.31-2,6.21-3.6,2.16-1.8,2.4-3.08.15-5.21-6.24-5.91-12.21-12.11-18.29-18.19q-19.95-20-39.93-39.88c-.85-.83-1.38-2.63-3.21-1.87-5.5,2.3-7.37,9.26-3.36,13.28q26.47,26.65,53.1,53.15A6.56,6.56,0,0,0,173.72,256.05Zm136.8,40.69c-.44-.51-.74-.9-1.08-1.25-6.52-6.53-13.08-13-19.52-19.61-1.47-1.51-2.31-1.14-3.58.17q-7.18,7.36-14.54,14.55c-1.17,1.14-1.59,1.86-.16,3.23,5.55,5.38,11,10.87,16.42,16.38,1.17,1.19,2.05,1.42,3.47.38,5.84-4.27,11.74-8.44,17.62-12.65C309.62,297.6,310,297.17,310.52,296.74ZM109.52,51A6.61,6.61,0,0,0,105.34,53c-6,6-12,11.93-18,17.94-2.15,2.17-2.72,4.81-1.2,7.52s4.18,4.58,6.31,6.83c1.15,1.21,1.74-.14,2.34-.73q11.91-11.85,23.77-23.77c.57-.58,1.48-1,1.23-2.11C119.35,56.69,111.8,51,109.52,51Zm165.16,70.77A12.93,12.93,0,0,0,264.85,109a12.65,12.65,0,0,0-14.14,6.45c-.93,1.79-.92,3.09.66,4.58,3.44,3.23,6.7,6.65,10,10,4.23,4.22,6.49,4.07,10.36-.65A13.33,13.33,0,0,0,274.68,121.81Zm-147.14,137,1.09.61c1.33-1.63,2.59-3.34,4-4.88,2.87-3.1,7.93-5.94,8.19-9.2s-5.13-6.13-8.1-9.08-5.7-8.36-9.11-8-6.13,5.32-9.17,8.27c-.18.17-.34.36-.54.52-1.2.95-1.11,1.66.26,2.43C121.75,243.72,125.91,250.39,127.54,258.8ZM342,274a6.87,6.87,0,0,0-.66-.87c-2.72-2.74-5.48-5.44-8.16-8.21-1.09-1.12-2-.53-3,0-6.36,3.66-12.7,7.36-19.12,10.91-1.87,1-1.48,1.74-.24,2.93,3,2.94,6.06,5.92,9,9,1.22,1.29,2.13,1.17,3.47.19,5.72-4.19,11.52-8.27,17.28-12.42C341.09,275.15,341.91,274.94,342,274Z"/><path class="cls-1" d="M383.36,123.47c-1.74,2.33-3.61,4.49-6.92,4.19-3.77-.33-5.72-3.09-5.86-8.13-.72-25.83-9.09-48.86-26-68.47-21.14-24.55-48.15-37.15-80.52-38.31-.62,0-1.24,0-1.87-.05-3.88-.25-6.54-2.78-6.6-6.25S258.39,0,262.39,0c14.47,0,28.65,2.21,42,7.7,45.8,18.8,72.09,52.77,78.33,102a19.84,19.84,0,0,0,.62,2.5Z"/><path class="cls-1" d="M265.25,32c43,1.22,80,35,85.31,77.22a91.33,91.33,0,0,1,.75,11.56c0,4-2.42,6.64-5.93,6.87a6.36,6.36,0,0,1-6.73-6.52,83.37,83.37,0,0,0-2.93-20.67,76.48,76.48,0,0,0-71.66-55.74,14.44,14.44,0,0,1-4.05-.54,5.78,5.78,0,0,1-4.27-6.61,5.81,5.81,0,0,1,5.6-5.55A36.76,36.76,0,0,1,265.25,32Z"/><path class="cls-1" d="M319.5,120c.06,4.6-2.43,7.66-6.29,7.74-3.69.08-6.3-2.58-6.45-7.15a45,45,0,0,0-36.32-43.1c-2.55-.49-5.18-.63-7.79-.87-4.49-.4-7.18-2.89-7-6.59.16-3.86,3.21-6.32,7.86-6.15a57.64,57.64,0,0,1,56,56.12Z"/></g></g></svg>