<svg xmlns="http://www.w3.org/2000/svg" viewBox="0 0 316.19 382.9"><defs><style>.cls-1{fill:#11184e;}</style></defs><title>Recurso 11</title><g id="Capa_2" data-name="Capa 2"><g id="Capa_1-2" data-name="Capa 1"><path class="cls-1" d="M157.36,382.9c-11.25-5.87-22.49-11.76-33.2-18.6C90.33,342.7,60.24,317,36.65,284.24,17.52,257.68,5,228.42,1.14,195.73A171.77,171.77,0,0,1,.08,174.82c0-24.95.1-49.9-.08-74.85,0-3.64,1-5.16,4.56-6,17.77-4.37,30.78-14.77,38.56-31.45,4-8.67,5.31-17.87,4.9-27.33-.11-2.54.41-3.89,3.26-4.7Q103.36,15.6,155.36.41a9.85,9.85,0,0,1,5.79.05q51.84,15,103.72,29.93c3,.86,3.42,2.39,3.33,5-.74,20.36,6.64,37,23.07,49.31,6.39,4.79,13.69,7.64,21.37,9.5,2.61.63,3.56,1.69,3.55,4.52-.12,25.94-.05,51.89-.08,77.84-.05,36.07-10.75,69-30.26,99-25.87,39.89-61.26,69.56-101.7,93.71-8.22,4.91-16.86,9-25.3,13.54Zm12-31c3.64-2.15,6.74-3.9,9.76-5.79,34.72-21.74,65.36-47.86,87.84-82.6,16.54-25.55,26.2-53.4,26.62-84,.3-21.57.05-43.15.15-64.73,0-2.37-.83-3.42-2.92-4.43-24.77-12-39.44-31.71-44.15-58.77-.41-2.34-1.21-3.37-3.44-4-23.46-6.7-46.92-13.43-70.32-20.35-3.34-1-3.61,0-3.59,2.89.09,20.58.12,41.16,0,61.74,0,3.25.92,4.28,4.11,4.9,45.14,8.77,74.37,48.49,69.43,94.11-4,36.61-33.61,68-69.77,73.71-3,.48-3.77,1.52-3.75,4.46.11,26.32.07,52.64.07,79Zm-22.46-.14V273c0-7.53,0-7.53-7.54-9.09-43.41-9-73.51-53.86-65.4-97.39,6.81-36.62,33-62.93,69.77-70,2.06-.39,3.25-.67,3.23-3.28q-.18-32,0-64c0-2.63-.71-2.76-3-2.09q-35.49,10.36-71,20.51a4,4,0,0,0-3.3,3.69c-4.65,27.23-19.37,47-44.29,59.07-2.15,1-2.8,2.2-2.79,4.5.08,20.58.06,41.16,0,61.74A150,150,0,0,0,35,236.22C43.48,256,55.41,273.6,69.65,289.64,91.69,314.5,117.65,334.5,146.88,351.78Zm11.08-234a62.89,62.89,0,1,0,63,62.59A62.82,62.82,0,0,0,158,117.79Z"/><path class="cls-1" d="M197.77,164.45c-.56.63-1,1.19-1.51,1.7Q172.47,190,148.69,213.81c-1.57,1.58-2.42,1.34-3.85-.1q-13-13.19-26.19-26.19c-1.48-1.46-1.62-2.27-.05-3.76,4.17-3.94,8.23-8,12.18-12.16,1.52-1.61,2.46-1.4,3.87.08,3.26,3.44,6.8,6.62,10,10.12,1.74,1.92,2.73,1.57,4.37-.09,10.16-10.29,20.48-20.43,30.6-30.77,2-2,3.07-2,5,0,3.62,3.95,7.54,7.63,11.32,11.43C196.49,163,197.05,163.66,197.77,164.45Z"/></g></g></svg>