<svg xmlns="http://www.w3.org/2000/svg" viewBox="0 0 215.23 191.38"><defs><style>.cls-1{fill:#11184e;}</style></defs><title>Recurso 12</title><g id="Capa_2" data-name="Capa 2"><g id="Capa_1-2" data-name="Capa 1"><path class="cls-1" d="M107.72,95.4h-82C10,95.39.14,85.63.06,69.82Q0,47.58.07,25.33C.17,10.3,10.21.09,25.17.06q82.5-.12,165,0c15,0,25,10.27,25.05,25.21q0,22.74,0,45.49c0,14.47-10,24.58-24.49,24.62C163.05,95.45,135.39,95.4,107.72,95.4Zm.2-11.22c14.83,0,29.66,0,44.49,0,13.49,0,27,0,40.47-.28,6.21-.13,10.48-4.13,10.8-10.23a512.93,512.93,0,0,0,0-51.43c-.27-5.82-3.94-9.49-9.63-10.41a53.06,53.06,0,0,0-8.44-.66q-78-.06-156,0a51.66,51.66,0,0,0-7.46.5c-7,1-10.83,5.08-10.9,12-.14,16.16-.16,32.32,0,48.48C11.45,79.22,16,83.52,23,84c2.15.14,4.32.19,6.49.2Z"/><path class="cls-1" d="M95.32,136.47c-.56,7.81.87,17.31-.9,26.75-3.75,20.05-25,32.85-44.41,26.55-12.59-4.1-21.49-18-19.76-30.75,2.08-15.41,12.79-25.85,27.09-26.53,3.77-.18,7.46.07,7.81,4.76s-3,6.08-7.1,6.49c-7,.69-12.13,4.19-15,10.76-2.93,6.76-1.85,13.05,2.4,18.83,5.32,7.22,17,8.87,25.86,3.72,9.08-5.3,12.89-13.53,12.92-23.76,0-13.32,0-26.64,0-40,0-1.68-1-4.2,1.34-4.81a14.3,14.3,0,0,1,8.82.21c1.47.57.83,2.37.84,3.62C95.35,119.84,95.32,127.34,95.32,136.47Z"/><path class="cls-1" d="M120,128.34c0-5.33.13-10.67,0-16s3.69-3.88,6.59-4.19c3.32-.34,4.74.71,4.64,4.41q-.37,14.48,0,29c.35,16,10.91,27,25.13,26.48a18.39,18.39,0,0,0,17.83-17.56c.46-8.85-6.46-17.16-15.54-18.67-1.14-.19-2.3-.34-3.43-.58-3.5-.73-5.16-2.86-4.71-6.45s3.31-4.48,6.23-4.36c10.93.45,19.68,5,24.87,14.86,5.86,11.14,5.34,22.31-2.19,32.45-7.33,9.86-17.7,13.28-29.65,11.13-17.92-3.23-29.23-16.93-29.68-35.52C119.88,138.34,120,133.34,120,128.34Z"/><path class="cls-1" d="M107.4,48.25q31.48,0,63,0a21.33,21.33,0,0,1,5.42.55c2.37.65,3.43,2.62,3.39,5s-1,4.6-3.72,5.22a16,16,0,0,1-3.44.42q-64.23,0-128.45,0c-3.11,0-6.13-.29-7-4.1-1.1-4.65,1.17-7.08,6.88-7.09,17.49-.05,35,0,52.47,0Z"/></g></g></svg>