<svg xmlns="http://www.w3.org/2000/svg" viewBox="0 0 215.24 191.4"><defs><style>.cls-1{fill:#11184e;}</style></defs><title>Recurso 13</title><g id="Capa_2" data-name="Capa 2"><g id="Capa_1-2" data-name="Capa 1"><path class="cls-1" d="M115.92,0c15.6.39,29.76,5.21,41.58,15.6C164.74,22,171.41,29,178.07,36a25.6,25.6,0,0,1,7.45,19,7.82,7.82,0,0,0,2.76,6.6q6.71,6,13.19,12.2c1.63,1.56,2.84,1.91,4.56.14,2.59-2.67,5.34-2.46,7.75.29s1.71,5.19-.61,7.51q-20.67,20.69-41.36,41.34c-2.27,2.25-5,3-7.55.7s-2.77-5.68-.2-7.92c4.68-4.07,2.84-6.74-1.13-9.56a36.35,36.35,0,0,1-4-3.74c-4.52-4.4-8.88-8.28-16.12-8.32-6.95,0-13-3.82-17.95-8.85-5.16-5.21-10.38-10.36-15.53-15.57-5.71-5.77-9.19-12.67-9.63-20.81-.16-2.86-1.62-4.08-3.84-5.17-8.22-4-16.42-8.1-24.57-12.27-6.29-3.22-6.61-7-1.6-12C82.48,6.89,97.92.57,115.92,0Zm-1.16,11.65a46.62,46.62,0,0,0-28.2,8.7c-5.08,3.56-5,3.79.34,6.49C93,29.89,99,33.13,105.22,36c4,1.83,5.83,4.5,5.58,8.93a20.08,20.08,0,0,0,5.46,15.58c5.89,6.11,11.85,12.18,18,18,4.45,4.17,9.95,6.16,16.08,5,2.91-.55,4.78.68,6.68,2.36,5.36,4.74,10.8,9.4,16,14.28,2.31,2.16,4,2.31,6.24-.08,4.22-4.49,8.55-8.88,13.08-13,2.63-2.43,2.49-4.16-.07-6.45-5-4.44-9.66-9.17-14.64-13.59a9.31,9.31,0,0,1-3.36-8.83c.82-6.39-1.49-11.75-6-16.24-5.19-5.16-10.29-10.44-15.62-15.46C142.35,16.63,130.06,11.48,114.76,11.65Z"/><path class="cls-1" d="M26.27,191.39C15.14,190.86,7,185.65,2.34,175.46A25.14,25.14,0,0,1,7.58,146.8c20.14-19.18,40.56-38.06,60.88-57.05,5.11-4.77,10.3-9.47,15.37-14.29,3-2.82,6-5.26,9.87-1.64,2.89,2.69,2.16,6.06-2.23,10.14q-36,33.54-72.11,67c-1.34,1.25-2.71,2.47-3.94,3.83-5.78,6.39-5.4,14.85.9,21,6,5.88,14.6,6.11,20.52-.1C51.55,160.23,66,144.54,80.52,129q13.8-14.79,27.63-29.57c3.59-3.83,6.67-4.34,9.44-1.7,2.58,2.46,2.21,6.08-1.12,9.66q-34.05,36.56-68.1,73.12C42.34,187,35.59,191.61,26.27,191.39Z"/></g></g></svg>