<svg xmlns="http://www.w3.org/2000/svg" viewBox="0 0 192.27 191.15"><defs><style>.cls-1{fill:#11184e;}</style></defs><title>Recurso 14</title><g id="Capa_2" data-name="Capa 2"><g id="Capa_1-2" data-name="Capa 1"><path class="cls-1" d="M1.05,160.86c-4-12.94,3.86-23.18,14.8-33.15,15.25-13.9,29.33-29.09,44-43.62,2.09-2.08,3-4,2.39-7-6.47-32.86,15.36-67,47.91-75,36.22-9,71.58,12.51,80.34,48.79,9.19,38.11-18.21,76.21-57.33,79.81-4.66.42-9.28.9-13.92,0a5.19,5.19,0,0,0-5.38,1.8c-.63.76-1.61,1.24-2.19,2C106,142,98.53,144.72,89.38,143.33c-4-.61-5.42,1-5,5a67.41,67.41,0,0,1,0,9c-.26,6.49-3.54,9.77-10,10-3.5.11-7,.12-10.5,0-2.59-.09-3.54,1-3.45,3.53a95.73,95.73,0,0,1-.09,11c-.5,6.39-3.61,9.25-10,9.29-13.16.07-26.32.09-39.48,0-6.43,0-9.5-3-9.73-9.51C.89,175.58,1.05,169.58,1.05,160.86Zm29.47,18.82H38c11,0,11,0,11-11,0-12.86,0-12.86,13.08-12.86,11.15,0,11.15,0,11.15-11.06,0-13.14,0-13.71,13.26-12.94,9,.52,15.85-1.67,21.05-9,2.74-3.84,6.26-4.32,10.89-3.7,37.61,5,67.78-25.88,61.63-62.81a53.88,53.88,0,0,0-64.62-43.89C85.05,18.86,65.75,50,74,79.72c1.06,3.81.28,6-2.39,8.61-18.59,18.38-37,36.92-55.51,55.4-2,2-3.93,3.81-3.84,7.15.22,8.15.17,16.32,0,24.47-.06,3.18.94,4.53,4.27,4.38C21.19,179.51,25.86,179.67,30.52,179.68Z"/><path class="cls-1" d="M138.69,61.88c-5.12,0-8.43-3.31-8.43-8.38a8.47,8.47,0,0,1,8.45-8.6,8.71,8.71,0,0,1,8.55,8.6A8.22,8.22,0,0,1,138.69,61.88Z"/></g></g></svg>