<svg xmlns="http://www.w3.org/2000/svg" viewBox="0 0 238.93 167.58"><defs><style>.cls-1{fill:#11184e;}</style></defs><title>Recurso 15</title><g id="Capa_2" data-name="Capa 2"><g id="Capa_1-2" data-name="Capa 1"><path class="cls-1" d="M119.74,167.57q-35.23,0-70.45,0c-9.31,0-13.1-3.68-13.24-12.88,0-3.66-.12-7.33,0-11,.33-7.47,4.21-11.28,11.73-11.32,15.66-.08,31.31,0,47,0q47.22,0,94.43,0c10,0,13.82,3.84,13.83,13.88,0,3,0,6,0,9-.07,8-4.33,12.31-12.36,12.33Q155.21,167.62,119.74,167.57Zm-.26-11.41c22.47,0,45-.17,67.41.13,5.22.07,5.12-2.59,5-6.14-.13-3.38.9-6.73-4.94-6.7q-67.41.35-134.83,0c-5.82,0-4.84,3.26-4.94,6.67s-.36,6.24,4.91,6.17C74.54,156,97,156.16,119.48,156.16Z"/><path class="cls-1" d="M119.69,24.61c10.65,0,21.31,0,32,0,15.6,0,27.77,9.89,30,25.23,3,20.74,5.34,41.57,7.87,62.37.39,3.22-.47,6.16-4.22,6.82-4.06.71-6.4-1.37-6.94-5.31-1.42-10.55-2.73-21.11-4.07-31.67-1.31-10.23-2.51-20.48-3.93-30.7a17.74,17.74,0,0,0-17.85-15.6c-21.32-.08-42.64,0-64,0-11.85,0-19,6.35-20.4,18.07q-3.6,29.46-7.21,58.93c-.48,3.87-2,6.85-6.56,6.4s-5.27-3.68-4.84-7.28C51.2,97.65,53,83.46,54.81,69.26c.84-6.6,1.49-13.23,2.68-19.77C60.32,34,71.57,24.67,87.21,24.62,98,24.58,108.86,24.61,119.69,24.61Z"/><path class="cls-1" d="M74.93,112.62c3-19.53,5.91-39.26,9-59,.54-3.45,2.64-6,6.56-5.17,3.65.79,5.07,3.6,4.53,7.22q-4.4,29.07-8.85,58.13c-.57,3.7-2.51,5.75-6.42,5.31C76,118.73,74.87,116.22,74.93,112.62Z"/><path class="cls-1" d="M40.72,22.89a19.33,19.33,0,0,1-2.94-1c-7.2-3.43-14.36-7-21.56-10.38C12.42,9.68,11,6.84,12.82,3c2-4,5.25-3.3,8.51-1.67C28.76,5,36.19,8.73,43.59,12.51c2.64,1.35,4.06,3.43,3.08,6.54C45.89,21.54,44.34,23,40.72,22.89Z"/><path class="cls-1" d="M17.48,71.56c-3.82,0-7.63,0-11.44,0S0,69.48,0,65.77c0-3.47,2.32-5.5,5.78-5.56,7.79-.12,15.59-.16,23.37,0,3.31.08,5.73,1.8,5.75,5.53,0,4-2.32,5.66-6,5.76C25.11,71.64,21.29,71.56,17.48,71.56Z"/><path class="cls-1" d="M221.39,71.56c-3.81,0-7.62.07-11.43,0-3.46-.08-5.69-1.76-5.87-5.39s2.1-5.73,5.41-5.84q12.17-.39,24.35,0c3.19.09,5.16,2.31,5.08,5.64-.08,3.51-2,5.54-5.61,5.61C229.34,71.62,225.37,71.56,221.39,71.56Z"/><path class="cls-1" d="M226.92,6.61c.17,2.62-1.58,4-3.55,4.93-7.45,3.66-14.92,7.3-22.45,10.78-3,1.4-6.52,1.85-8.34-1.64-2-3.73.23-6.18,3.69-7.87,7.31-3.57,14.51-7.4,21.86-10.9C223.08-.45,227,1.79,226.92,6.61Z"/></g></g></svg>