<svg xmlns="http://www.w3.org/2000/svg" viewBox="0 0 167.16 191.23"><defs><style>.cls-1{fill:#11184e;}</style></defs><title>Recurso 16</title><g id="Capa_2" data-name="Capa 2"><g id="Capa_1-2" data-name="Capa 1"><path class="cls-1" d="M87.8,191.23c-45,0-81-32-87-72.34C-2.09,99.18,2.9,81.6,11.74,64.64,23.61,41.87,39.13,21.77,57.49,3.84c5.14-5,7.23-5.14,12.55-.21a222.89,222.89,0,0,1,25.57,28c2.32,3,3.8,3.44,6.37.34a146.63,146.63,0,0,1,10.26-10.9c3.68-3.63,7.49-3.92,11-.34,22.26,22.94,39,49.12,43.45,81.32,2.09,15.26-2.35,30.17-9.8,43.69C141,174.58,116.5,190,87.8,191.23Zm67.68-83.68c.06-4,.15-8-.92-11.93-6.38-23.07-18-43.2-33.93-61-2.2-2.46-3.74-2-5.6.18-3.49,4-7.08,8-10.59,12-4.63,5.3-7.75,5.18-11.92-.38A343.84,343.84,0,0,0,67.87,17.53c-3.14-3.34-4.91-2.9-7.89.15A226,226,0,0,0,23.6,66.37C13.83,84,8.06,102.15,13,122.78c7.35,30.53,34,54.64,64,56.91C118.93,182.85,154.78,149.86,155.48,107.55Z"/><path class="cls-1" d="M131,113.88c-.42,10.92-5.45,22.75-16.84,31.49-3,2.31-6.08,3.19-8.68-.32s-1.17-6.19,1.85-8.6c12-9.58,14.54-22.06,10.91-36.33-.39-1.54-.45-3.69-2.31-4.09-1.64-.35-2.36,1.6-3.34,2.64-3.31,3.51-6.48,7.16-9.75,10.71-3.93,4.29-6.91,4.17-10.6-.52-8-10.2-16.15-20.35-24-30.72-2.31-3-3.66-3-5.84,0-7.07,9.46-14.92,18.44-15.6,31.16-.17,3.3-2.74,4.8-6.05,4.53s-4.56-2.31-4.7-5.38c-.37-7.6,1.94-14.48,5.81-20.86A169,169,0,0,1,60,63.13c4-4.49,7.26-4.31,11,.48C79,73.69,87,83.71,94.74,93.91c2.39,3.14,4.05,3.81,6.71.32,3.13-4.1,6.62-7.92,10.06-11.77,4.14-4.65,7.57-4.54,10.76.57A52.88,52.88,0,0,1,131,113.88Z"/></g></g></svg>