<svg xmlns="http://www.w3.org/2000/svg" viewBox="0 0 191.41 191.48"><defs><style>.cls-1{fill:#11184e;}</style></defs><title>Recurso 17</title><g id="Capa_2" data-name="Capa 2"><g id="Capa_1-2" data-name="Capa 1"><path class="cls-1" d="M78,0q25.47,0,50.94,0c16,0,26,9.57,26.48,25.5a75.75,75.75,0,0,1-.32,12c-1.7,13.32-10.62,21.93-24.07,22q-53.18.45-106.37,0C9.48,59.42.14,49.12,0,33.88c0-3,0-6,0-9C.3,10.25,10.33.18,25.05.07,42.7-.06,60.35,0,78,0Zm-.37,11.71c-17.82,0-35.63,0-53.44,0-8.4,0-12.79,4.48-12.87,13,0,3,0,6,0,9,0,10.17,4.37,14.51,14.67,14.53q27.47,0,54.93,0c16.48,0,33,0,49.44,0,9,0,13.42-4.49,13.63-13.51.08-3.33.09-6.66,0-10-.27-8.93-4.44-13-13.42-13Q104.09,11.72,77.62,11.75Z"/><path class="cls-1" d="M135,95.41c-10.66,0-21.32-.06-32,0C94,95.49,89.43,100.15,89.35,109a17.37,17.37,0,0,1,0,2.5c-.89,5.62.52,8.89,6.92,10.47,7.45,1.84,10.74,8.24,10.92,15.63q.43,18.23,0,36.48c-.22,10.07-7.59,17.09-17.6,17.35-4.16.1-8.34.15-12.49,0-9-.39-15.86-6.63-16.67-15.56a227.11,227.11,0,0,1,0-39.89c.66-7.65,5.27-13.32,12.7-14.81,4.39-.88,5.28-2.93,5.09-6.81s-.4-8,.6-11.94C81.72,90.92,91.08,84.05,104.17,84c20.49-.09,41,0,61.47,0C176,84,180,80,180,69.43c0-7,.06-14,0-21s-2.7-10.38-9.18-12.61c-2.26-.78-3.78-6.31-2.53-9.8,1.05-3,3.49-1.28,5-1,9.81,2.06,17.62,11.62,17.9,22,.23,8.32.21,16.66,0,25-.32,13.2-10.53,23.17-23.83,23.32C156.61,95.51,145.78,95.41,135,95.41ZM71.36,155.55c0,5.83-.1,11.67,0,17.49.12,5,2.09,6.82,7.1,6.91,3.66.07,7.33,0,11,0,4.11,0,6.35-2.3,6.4-6.12q.26-18,0-36c0-4.2-2.51-6.28-6.82-6.14-3.5.11-7,0-10.5,0-5.31.09-7.08,1.85-7.18,7.3S71.36,150.06,71.36,155.55Z"/></g></g></svg>