<svg xmlns="http://www.w3.org/2000/svg" viewBox="0 0 239.43 190.23"><defs><style>.cls-1{fill:#11184e;}</style></defs><title>Recurso 18</title><g id="Capa_2" data-name="Capa 2"><g id="Capa_1-2" data-name="Capa 1"><path class="cls-1" d="M119.54,190.23H44.61c-6.94,0-8.73-1.5-8.75-8.4-.09-32.3-.15-64.61,0-96.91,0-10.15,4.43-14,14.59-14H188.87c10.68,0,14.49,3.76,14.5,14.39q0,48.21,0,96.42c0,7.12-1.39,8.53-8.39,8.53Q157.27,190.25,119.54,190.23ZM120,117.8c-22.48,0-45,.07-67.45-.07-3.91,0-5.39,1.17-5.15,5.16a94.58,94.58,0,0,1,0,14.48c-.45,4.86,1.58,5.81,6,5.79,27.82-.16,55.64-.08,83.45-.08,16.83,0,33.65-.09,50.47.06,3.67,0,5.1-1.11,4.93-4.84a133.68,133.68,0,0,1,0-15c.29-4.48-1.45-5.65-5.76-5.61C164.26,117.9,142.11,117.79,120,117.8Zm0,36.71c-22.64,0-45.27.06-67.91-.06-3.34,0-4.85.76-4.66,4.42.26,5.31.2,10.65,0,16-.11,3.07,1,4,4,4q68.4-.1,136.82,0c3.27,0,3.93-1.37,3.87-4.16-.12-5.16-.21-10.33,0-15.48.17-3.66-1-4.82-4.8-4.79C164.88,154.6,142.4,154.51,119.93,154.51Zm-.48-72.14c-22.31,0-44.62.07-66.93-.07-3.77,0-5.48.9-5.17,5a90.53,90.53,0,0,1,0,13.48c-.35,4.5,1,6,5.78,6,27.8-.22,55.61-.11,83.41-.11,17,0,34-.08,50.94.07,3.42,0,4.82-.95,4.66-4.49a125.2,125.2,0,0,1,0-14c.3-4.43-1-6-5.79-6C164.07,82.51,141.76,82.37,119.45,82.37Z"/><path class="cls-1" d="M11.38,124.12q0,28.5,0,57a26.86,26.86,0,0,1-.16,4.49c-.52,3.11-2.67,4.56-5.65,4.56a4.92,4.92,0,0,1-5.21-4.44,33.33,33.33,0,0,1-.25-5.48c0-37.16.17-74.33-.1-111.5-.1-13.49,5.47-22.3,18-27.5C49,28.35,79.92,15.09,110.86,1.93a21.06,21.06,0,0,1,17.39-.1Q175.53,22,222.93,42c10.95,4.6,16.44,12.64,16.46,24.37q.09,58,0,116a15.91,15.91,0,0,1-.41,4,4.8,4.8,0,0,1-5.17,3.83c-2.44-.09-4.56-.94-5.3-3.69a28.54,28.54,0,0,1-.72-7.43q0-56,0-112c0-8.7-1.91-11.62-9.72-14.9Q171.37,32.5,124.65,12.84a11.3,11.3,0,0,0-9.53-.16C83.39,26.08,51.6,39.35,19.86,52.73c-5.83,2.45-8.53,7-8.51,13.39C11.42,85.45,11.38,104.79,11.38,124.12Z"/></g></g></svg>