<svg xmlns="http://www.w3.org/2000/svg" viewBox="0 0 191.39 191.33"><defs><style>.cls-1{fill:#11184e;}</style></defs><title>Recurso 19</title><g id="Capa_2" data-name="Capa 2"><g id="Capa_1-2" data-name="Capa 1"><path class="cls-1" d="M191.31,56.77c0,27.19-21.11,51.36-47.29,55-6,.83-11.94,1.37-17.83-.16-4.17-1.09-7,.18-10,3.24q-33.54,34-67.45,67.59c-8.88,8.84-21.07,11.24-31.7,6.49a28.39,28.39,0,0,1-8.56-46.3q34-34.23,68.35-68.1c2.84-2.81,3.9-5.26,3.05-9.55-6-30,16.25-60.26,46.77-64.45a67.34,67.34,0,0,1,18.87.3c4.61.65,8.15,2.83,9.84,7.37s-.17,8.09-3.32,11.24c-6.37,6.36-12.6,12.86-19.16,19-2.87,2.7-3.76,5.29-3,9.21,2.26,11.6,2.13,11.47,13.77,13.73,3.89.76,6.51,0,9.22-2.94,6.15-6.56,12.67-12.77,19-19.16,3-3,6.25-4.94,10.71-3.56s6.65,4.87,7.35,9.2C190.63,49,191.71,53.11,191.31,56.77Zm-55.48,44.09c25.31,0,46.3-22.43,44.13-47.17-.12-1.4.3-3.33-1.45-3.89-1.47-.47-2.23,1.19-3.12,2.08C169,58.2,162.57,64.5,156.34,71a7.67,7.67,0,0,1-7.53,2.61c-7.69-1.39-15.39-2.72-23.11-3.89-2.54-.39-3.66-1.44-4.06-4-1.22-8-2.67-16.07-4.13-24.09-.44-2.42.46-4.07,2.13-5.72,6.89-6.77,13.7-13.63,20.5-20.5.74-.75,2.16-1.37,1.48-2.81-.5-1-1.69-1-2.66-.94-4,.09-8.05-.19-12,.44-25.09,4.07-42,29.9-35.25,54.39,1.59,5.76.36,9.11-3.72,12.94-9.1,8.56-17.76,17.58-26.6,26.42Q38.81,128.41,16.2,151.05c-5.26,5.28-6.84,12.76-3.82,18.81,3.33,6.67,8.62,10.25,16.41,10,5.51-.19,9.3-3.15,12.9-6.73q35.94-35.82,71.84-71.66c2.74-2.75,5.09-4.24,9-2.4C126.71,101,131.31,100.93,135.83,100.86Z"/><path class="cls-1" d="M29.54,155.78c3.62.2,5.56,2,5.55,5.65,0,3.53-2.1,5.26-5.3,5.3-3.54.05-5.69-2.08-5.6-5.63C24.28,157.89,26.15,155.9,29.54,155.78Z"/></g></g></svg>