<svg xmlns="http://www.w3.org/2000/svg" viewBox="0 0 335.91 335.47"><defs><style>.cls-1{fill:#11184e;}</style></defs><title>Recurso 2</title><g id="Capa_2" data-name="Capa 2"><g id="Capa_1-2" data-name="Capa 1"><path class="cls-1" d="M190.82,107.88c-14.17-28-14.24-55.59-.3-83.22-.11-.14-.24-.47-.38-.47-21.86-.56-43.7-.7-64.77,6.43-48.44,16.4-80.86,48.92-95.28,98C7,207.08,56.28,289.75,136,307.78a154.14,154.14,0,0,0,34.12,3.72q76.35,0,152.7,0c9.29,0,15.31,7.79,12.32,15.94-1.75,4.78-5.33,7.39-10.37,7.95a35.83,35.83,0,0,1-3.74.05H170.58c-72,0-133.71-41-158.83-108.34-22.56-60.46-12.39-116.93,28.32-167,24.41-30,56.5-48.44,94.41-56.51A166.37,166.37,0,0,1,169.39.09c18.47,0,36.94.28,55.39-.08,15.76-.31,27.55,6.48,36.73,18.69A55,55,0,0,1,269.44,33c.87,2.42,2.16,3.07,4.66,3.05C290.19,36,306.29,36,322.38,36c8,0,13.43,4.82,13.49,11.86.06,7.2-5.43,12.08-13.65,12.08-14.47,0-28.94.05-43.42,0-2.33,0-3.56.38-2.95,3a14.45,14.45,0,0,1,.13,3.36c0,5.62,0,5.62,5.44,5.62h40.42c8.57,0,14.09,4.76,14,12.07-.06,7.16-5.53,11.87-13.86,11.88-15.84,0-31.69.08-47.53-.07-2.79,0-4.16.72-5.2,3.38A57.06,57.06,0,0,1,254,121.51,39.23,39.23,0,0,1,227,131.86c-19.84-.06-39.68-.19-59.51,0a35.89,35.89,0,0,0-.37,71.75c1.5.05,3,0,4.49,0q75.6,0,151.21,0c9.27,0,15.27,7.84,12.27,16-1.71,4.62-5.17,7.19-10,7.89a13,13,0,0,1-1.87.07c-52.15,0-104.3.16-156.44-.09-30.72-.14-56.79-25.54-58.4-56.17-1.64-31.39,20.86-58.82,51.54-62.89,8.71-1.15,17.45-.36,26.17-.61C187.55,107.85,189,107.88,190.82,107.88Zm53.16-12c-5.41,0-10.4,0-15.38,0-7.23-.09-12.55-5.31-12.47-12.12s5.33-11.71,12.41-11.8c5.11-.07,10.23,0,15.34,0,8.68,0,8.58,0,8.15-8.77-.12-2.63-1.08-3.33-3.59-3.26-6.36.16-12.72.07-19.08,0-7.86,0-13.31-5-13.23-12.13S221.58,36.07,229.28,36c4.82,0,9.63,0,14.63,0-5.23-10.36-17.09-18-28.31-5.26a39.9,39.9,0,0,0-6.24,9.72,56.53,56.53,0,0,0-4.91,19.09c-1,12,.51,23.65,6.26,34.44a37.89,37.89,0,0,0,4.38,6.49C225.93,113.48,237.8,107.35,244,95.91Z"/></g></g></svg>