<svg xmlns="http://www.w3.org/2000/svg" viewBox="0 0 143.09 191.25"><defs><style>.cls-1{fill:#11184e;}</style></defs><title>Recurso 20</title><g id="Capa_2" data-name="Capa 2"><g id="Capa_1-2" data-name="Capa 1"><path class="cls-1" d="M114.23,83.8c5.66,0,11.32-.11,17,0,4.9.12,9.36,1.38,11.23,6.62s-.45,8.85-4.29,12.23q-48,42.24-95.85,84.62c-4.91,4.33-9,5.06-13,2.37s-4.71-6.84-2.52-13c7.58-21.31,15.06-42.66,22.81-63.9,1.64-4.48.5-5.39-3.89-5.29-10,.24-20,.1-30,.06a65.23,65.23,0,0,1-7-.45c-4-.43-6.88-2.24-8.18-6.25-1.38-4.2,0-7.5,3.14-10.28q12.29-11,24.6-21.92Q64.63,36.25,101,3.84c4.81-4.29,8.83-5,13-2.1,3.86,2.69,4.7,6.62,2.6,12.51-7.65,21.46-15.23,42.94-23,64.34-1.51,4.16-.9,5.56,3.73,5.28C102.88,83.53,108.56,83.79,114.23,83.8ZM40.46,172.9a19.32,19.32,0,0,0,2.68-1.25q41.21-36.39,82.37-72.82c.81-.72,2.25-1.38,1.72-2.72s-2-.85-3.11-.86q-18.75,0-37.5,0c-8.07,0-10-2.57-7.33-10.15C86.09,65.77,93,46.5,99.76,27.17c.88-2.51,2.48-5,2-8.86L15.89,94.7c2.19,1.67,3.9,1.12,5.48,1.13,11.5,0,23,0,34.5,0,8.58,0,10.59,2.75,7.8,10.66q-9.44,26.83-18.91,53.67C43.4,164,42.14,167.94,40.46,172.9Z"/></g></g></svg>