<svg xmlns="http://www.w3.org/2000/svg" viewBox="0 0 190.97 191.39"><defs><style>.cls-1{fill:#11184e;}</style></defs><title>Recurso 21</title><g id="Capa_2" data-name="Capa 2"><g id="Capa_1-2" data-name="Capa 1"><path class="cls-1" d="M95.15,191.38H6.2c-3.74,0-6.19-1.64-6.2-5.56s2.46-6,6.15-5.56c5.12.56,5.91-1.7,5.89-6.26Q11.82,100.31,12,26.6C12,9.68,21.64,0,38.6,0H152c17.33,0,27,9.61,27,26.78q0,73.71-.06,147.41c0,4.08.34,6.68,5.48,6.06,3.84-.46,6.62,1.54,6.51,5.72s-3.07,5.42-6.88,5.41Q139.62,191.35,95.15,191.38ZM89.93,53.71c0-12.66-.08-25.31,0-38,0-3.45-1.21-4.81-4.66-4.65-4.16.18-8.33,0-12.49,0-11.49,0-23-.13-34.48.05C27.25,11.35,23,15.82,23,26.81c0,21.32.1,42.64-.09,64,0,4.18,1.26,5.37,5.38,5.33q28.23-.3,56.46,0c4.3.06,5.34-1.39,5.27-5.42C89.79,78.36,89.93,66,89.93,53.71Zm11.12,0c0,12,.22,24-.11,36-.13,4.84.88,6.57,6.2,6.46,18.15-.38,36.32-.33,54.47,0,5,.09,6.59-1.18,6.52-6.34-.28-21-.1-42-.12-63,0-10.75-4.26-15.44-15-15.6-15.82-.25-31.65,0-47.47-.13-3.42,0-4.65,1.14-4.6,4.65C101.16,28.39,101.05,41.05,101.05,53.71Zm0,89.6c0,10.67.13,21.34-.07,32-.07,3.55.73,5,4.65,4.94,19.17-.2,38.33-.17,57.5,0,3.69,0,5-1.12,4.94-4.83q-.18-31.76,0-63.5c0-3.34-1-4.83-4.56-4.81q-29,.14-58,0c-3.52,0-4.57,1.33-4.51,4.74C101.16,122.31,101.05,132.81,101.05,143.31ZM89.93,144c0-10.67-.11-21.33.06-32,.06-3.65-1.15-5-4.88-5q-28.48.2-57,0c-3.76,0-5.26,1.06-5.22,5.12q.27,31.49,0,63c0,4,1.23,5.1,5.14,5.06,19-.18,38-.21,57,0,4.21.05,5-1.56,5-5.25C89.82,164.69,89.93,154.36,89.93,144Z"/></g></g></svg>