<svg xmlns="http://www.w3.org/2000/svg" viewBox="0 0 239.11 191.13"><defs><style>.cls-1{fill:#11184e;}</style></defs><title>Recurso 22</title><g id="Capa_2" data-name="Capa 2"><g id="Capa_1-2" data-name="Capa 1"><path class="cls-1" d="M60.27,23.49A23.31,23.31,0,0,1,102.74,10c6.08,8.92,6.05,20.29-.74,28.33-2.49,3-2.6,5.06-1,8.32,3.73,7.63,7.14,15.41,10.51,23.21,1.16,2.69,2.41,3.72,5.61,3,13.6-2.9,25.76.48,36.24,9.52,2.14,1.84,3.67,1.6,5.68.15,10.51-7.64,21-15.29,31.63-22.79,2.48-1.76,2.7-3.55,2-6.36-3.16-13.53,5.34-26.64,18.49-28.9,13.94-2.41,26.1,6.63,27.76,20.62,1.55,13.06-8.82,25.2-22.47,26.15a20.45,20.45,0,0,1-12.42-3.09c-2.33-1.47-4-1.45-6.23.2q-15.93,11.66-32.1,23c-2.4,1.69-3.16,3.17-1.85,6.17a38.57,38.57,0,0,1,1.18,28.74c-.93,2.71-.59,4.12,2,5.59q14.28,8.22,28.31,16.88c2.65,1.64,4.36.93,6.69-.61,8.6-5.69,19.39-5.57,27.22.32s11.15,14,9.3,23.75-9.37,16.76-19.28,18.56c-15,2.72-29.33-10.93-27-26,.54-3.52-.51-5.06-3.32-6.68-9-5.14-17.86-10.38-26.56-15.93-3.22-2-5-1.47-7.61,1-23.76,22.61-61.2,11.92-69.57-19.84-.77-3-2-4.07-5.07-4-10,.18-20,.13-30,0-2.65,0-4.08.72-5.22,3.38-5,11.56-16.44,16.87-28.26,13.43-10.47-3-17.89-14.27-16.54-25C1.67,99,11.37,90,23.5,89.9c10-.05,17.07,5.11,21.22,14,1.36,2.89,2.83,3.9,6,3.84q14.74-.27,29.5,0c3,.05,4.46-.86,5.11-3.94A38,38,0,0,1,99.67,81c2.86-2.19,3.08-4,1.57-7.09-3.68-7.46-7.15-15-10.48-22.67-1.28-3-2.76-4.12-6.27-4.07C70.67,47.42,60.25,37,60.27,23.49Zm95.39,90c0-17.44-12.9-30.28-30.28-30.23A30.35,30.35,0,0,0,125.5,144C142.62,144.07,155.7,130.86,155.66,113.5Zm-72.13-102c-7.49,0-12.27,4.76-12.25,12.13s4.84,12,12.35,12S95.9,30.8,95.88,23.51,90.93,11.45,83.53,11.48Zm132.06,24c-7.42,0-12.3,4.69-12.37,11.92s5.13,12.52,12.53,12.44S227.66,55,227.64,47.5,223.24,35.49,215.59,35.47Zm-.11,120c-7.28,0-12.23,4.91-12.26,12.08s4.92,12.15,12.15,12.19c7.83,0,12.33-4.48,12.27-12.33C227.59,159.83,223.08,155.41,215.48,155.42ZM35.64,113.69c0-7.35-4.77-12.45-11.81-12.55A12.09,12.09,0,0,0,11.22,113.6c0,7.14,5,12.06,12.27,12.08C31,125.71,35.62,121.19,35.64,113.69Z"/></g></g></svg>