<svg xmlns="http://www.w3.org/2000/svg" viewBox="0 0 191.3 191.26"><defs><style>.cls-1{fill:#11184e;}</style></defs><title>Recurso 23</title><g id="Capa_2" data-name="Capa 2"><g id="Capa_1-2" data-name="Capa 1"><path class="cls-1" d="M95.89,191.26q-41.25,0-82.49,0C4.1,191.25.05,187.19,0,177.85q0-16.26,0-32.5c0-8.54,3.19-12.16,11.6-13.25a53.88,53.88,0,0,1,6.48-.32c28.16,0,56.32-.1,84.49.09,4.25,0,5.37-1.3,5.25-5.38-.27-9.16-.16-18.33-.06-27.49.11-11.18,4-15.12,15.08-15.16q27-.07,54,0c10.44,0,14.43,4.12,14.44,14.6q0,39.75,0,79.49c0,9.29-4.07,13.32-13.43,13.32Q136.88,191.28,95.89,191.26Zm41.63-47.78c-12.65,0-25.3.09-37.94-.06-3.2,0-4.41.86-4.34,4.21q.27,14,0,28c-.06,3.2.86,4.33,4.2,4.31q38.19-.18,76.38,0c3.48,0,4.27-1.43,4.24-4.44-.08-9.15-.12-18.31,0-27.46,0-3.41-1.11-4.63-4.62-4.59C162.81,143.59,150.17,143.48,137.52,143.48Zm-90,36.34c10.66,0,21.32-.11,32,.07,3.49.06,4.68-1.13,4.62-4.57q-.22-13.48,0-27c.06-3.51-.9-5-4.79-4.94-21.15.18-42.3.15-63.45,0-3.49,0-4.67,1.11-4.6,4.58.18,8.83.24,17.66,0,26.48-.12,4.05,1,5.55,5.29,5.44C26.82,179.64,37.15,179.83,47.48,179.82Zm102.41-48c8.49,0,17-.12,25.46.06,3.36.07,4.8-.89,4.74-4.46-.17-9.15-.15-18.3,0-27.45,0-3.36-1-4.74-4.59-4.71-17.31.13-34.61.1-51.92,0-3.15,0-4.48,1-4.42,4.3q.22,14,0,28c-.06,3.21,1,4.41,4.28,4.35C132.25,131.65,141.07,131.77,149.89,131.77Z"/><path class="cls-1" d="M157.17,65.49c-5.33,0-10.66.12-16,0-6.25-.17-10-2.87-11.7-8.89-.79-2.8-2.24-3.22-4.66-3.19-8.33.07-16.66.16-25,0-3.4-.08-4.7.88-4.6,4.46.22,8.33.12,16.66.06,25-.07,9.79-8.37,15.37-17.16,11.08C54.35,82.25,30.71,70.34,7.05,58.47,2.69,56.29.11,52.57.15,47.68s2.56-8.57,7-10.77c23.51-11.8,47-23.69,70.6-35.27C87.09-3,95.23,2.53,95.29,13c0,8.16.14,16.33-.05,24.49-.08,3.37.89,4.83,4.46,4.75,8.33-.17,16.67-.08,25,0,2.35,0,4.11-.33,4.68-3.22,1.16-6,5.4-8.78,11.08-9,11.48-.37,23-1,34.45.28,10.26,1.11,16.83,8.74,16.36,18-.49,9.62-7.8,16.65-18.1,17.1C167.85,65.68,162.51,65.49,157.17,65.49ZM12,47.31a17.65,17.65,0,0,0,2.23,1.89q33,16.56,66.05,33.11C84,84.21,84,81.82,84,79.25c0-21,0-42,0-63,0-4-1.13-4.59-4.64-2.78C68.79,19,58,24.21,47.29,29.57,35.72,35.36,24.15,41.19,12,47.31ZM158.9,41.54H148.41c-8.71,0-8.62,0-8.14,8.85.14,2.49.89,3.67,3.49,3.65,10-.06,20,.06,30-.12,3.89-.07,6.29-2.36,6.14-6.39s-2.43-6-6.49-6C168.56,41.57,163.73,41.55,158.9,41.54Z"/></g></g></svg>