<svg xmlns="http://www.w3.org/2000/svg" viewBox="0 0 239.46 144.23"><defs><style>.cls-1{fill:#fff;}</style></defs><title>Recurso 24</title><g id="Capa_2" data-name="Capa 2"><g id="Capa_1-2" data-name="Capa 1"><path class="cls-1" d="M109.24,1.78Q94.11,14,79,26.14C72.61,31.26,66.34,36.5,59.9,41.51c-2.16,1.69-2.51,3-.82,5.27Q72.72,65.29,86.06,84c2,2.88,3.59,2.49,6,.58,11-8.69,22.14-17.12,33-25.95,3.47-2.83,5.49-2.47,8.67.5Q161.33,84.83,189.4,110c2.58,2.32,2.9,3.66.42,6.24q-9.51,9.9-18.53,20.28c-2,2.27-3.2,2.16-5.14.23-2.59-2.59-5.48-4.87-8.06-7.47-1.7-1.71-2.87-1.63-4.47.12-4.05,4.43-8.37,8.6-12.31,13.12-1.89,2.17-3.11,2.21-5.16.26-5.33-5-10.92-9.78-16.27-14.79-2.07-1.94-3.47-1.8-5.3.31-4,4.66-8.44,9-12.32,13.78-2.19,2.69-3.59,2.41-5.92.27-11.14-10.27-22.51-20.28-33.56-30.64-3-2.85-6-4.54-10.16-4-3.47.48-4.65-1.13-4.63-4.58q.13-37.48,0-75a6.59,6.59,0,0,1,3.33-6.16Q65.57,12.82,79.61,3.22A15.74,15.74,0,0,1,89.41.29c6.44.19,12.89.05,19.33.05Z"/><path class="cls-1" d="M191.33,94.19l-37.41-34.4c-3.8-3.5-7.55-7-11.44-10.44-1.87-1.63-1.92-2.85.16-4.22,1.11-.73,2.11-1.63,3.18-2.43,7-5.33,6.86-5.2,1.73-12.18-2.21-3-3.77-2.74-6.36-.71C126.14,41.66,111,53.36,95.9,65.17c-5,3.91-4.92,4-8.57-1.09C83.91,59.36,80.64,54.52,77,50c-2.09-2.6-2.15-4.09.65-6.32,17.06-13.6,34-27.39,50.9-41.16A8.5,8.5,0,0,1,134.5.35a2.8,2.8,0,0,0,.5,0C146.81-.9,157.52,1.06,167.13,9c6.51,5.35,14.19,9.29,21.32,13.89,1.34.87,2.91,1.46,2.91,3.63C191.31,48.61,191.33,70.72,191.33,94.19Z"/><path class="cls-1" d="M35.11,72.14c0,14.32-.1,28.64.08,43,.05,3.59-.76,5.05-4.66,4.93-8.82-.26-17.65-.19-26.48,0-3,0-4.06-.87-4-4Q.15,72.34,0,28.62c0-2.93.8-4.16,4-4.1,9.16.17,18.32.2,27.48,0,3.35-.08,3.73,1.38,3.71,4.16C35.06,43.16,35.11,57.65,35.11,72.14Zm-11.3,30.69c.13-4.38-2.2-6.86-6-6.8-3.69,0-6.11,1.91-6.31,5.64-.21,3.9,1.88,6.27,5.9,6.52S23.49,106.29,23.81,102.83Z"/><path class="cls-1" d="M239.38,72.46c0,14.14-.11,28.29.08,42.43,0,3.87-1.06,5.28-5.09,5.14-8.47-.28-17-.19-25.45,0-3.27.06-4.8-.67-4.78-4.37q.17-43.42,0-86.86c0-3.26,1.07-4.33,4.33-4.26,8.82.18,17.64.21,26.46,0,3.52-.1,4.55,1,4.51,4.52C239.29,43.5,239.38,58,239.38,72.46ZM222.36,96c-4.13-.14-7.15,2.47-7,6,.18,3.83,2.19,6.18,6.27,6.21,3.79,0,5.9-1.88,6.08-5.7C227.92,98.47,225.89,96.34,222.36,96Z"/></g></g></svg>