<svg xmlns="http://www.w3.org/2000/svg" viewBox="0 0 383.26 383.29"><defs><style>.cls-1{fill:#11184e;}</style></defs><title>Recurso 3</title><g id="Capa_2" data-name="Capa 2"><g id="Capa_1-2" data-name="Capa 1"><path class="cls-1" d="M0,330.9c1.31-4.41,2.44-8.9,5.3-12.64.89-1.16.23-2.1-.12-3.12-2.53-7.31-1.11-13.85,4.31-19.28q43.59-43.74,87.31-87.35a19.64,19.64,0,0,1,11.94-5.61c4.31-.53,8.6-1.2,12.79-1.79.61-1.32-.44-1.75-.87-2.4-3.09-4.63-3.21-9.56.14-13.91,1.35-1.76,1.42-2.66-.19-4.26q-22.06-21.87-43.94-43.92a5.47,5.47,0,0,0-4.62-1.7C28.12,137.17-5.64,99.27,1.55,55.84c.81-4.93,3.23-8.6,8.13-10.25s9.06-.21,12.61,3.34c9.18,9.17,18.4,18.3,27.49,27.56,1.63,1.66,3,2.1,5.18,1.3,4.9-1.81,9.86-3.49,14.86-5a4.66,4.66,0,0,0,3.44-3.45c1.49-4.75,2.92-9.53,4.72-14.17,1-2.6.6-4.25-1.39-6.2-8.84-8.62-17.44-17.49-26.27-26.12-4-3.91-6-8.27-4.22-13.77S52.27,1.63,57.55.86c42-6.17,78.56,25.78,77.85,68.28A11.22,11.22,0,0,0,139,78.23q31.8,31.44,63.26,63.23c2.19,2.21,3.26,2.23,5.47,0Q250.9,98.08,294.25,54.9a11.06,11.06,0,0,0,3-5c1.66-5.87,3.5-11.69,5.25-17.53a18.92,18.92,0,0,1,8.73-11.23c10.18-6,20.29-12.21,30.49-18.22,7.89-4.65,16.11-3.64,22.62,2.68,4.11,4,8.18,8,12.16,12.18,6.16,6.36,7.27,14.66,2.79,22.32-6.17,10.54-12.53,21-18.83,31.43a18.09,18.09,0,0,1-9.64,7.91,5.83,5.83,0,0,1-.7.25c-14.38,3.35-25,12-35.11,22.51-24,24.88-48.68,49.05-73.21,73.39-2.25,2.24-2.13,3.31.05,5.47q32.42,32.16,64.59,64.56a7.15,7.15,0,0,0,5.89,2.25c34.8-1.09,62.9,21.18,69.74,55.23a64.12,64.12,0,0,1,0,24.54c-.9,4.86-3.53,8.3-8.23,9.71s-8.84.16-12.33-3.34c-8.89-8.93-17.89-17.75-26.67-26.79-2.19-2.26-4.06-3-7.11-1.79-4.5,1.82-9.17,3.19-13.81,4.64a4.67,4.67,0,0,0-3.41,3.47q-2.33,7.68-5.1,15.23c-.72,1.95-.24,3.13,1.17,4.53,9.06,8.93,18,18,27.05,26.94,3.85,3.8,5.91,8,4.06,13.44s-6,7.48-11.39,8.27c-38.12,5.55-72.47-20.07-77.55-58.06a71.11,71.11,0,0,1-.31-11.95,6.7,6.7,0,0,0-2.06-5.6q-21.68-21.45-43.13-43.13c-1.82-1.84-2.88-2.12-5.13-.46-5.3,3.9-10.53,2.47-15.75-1.72-.7,4.73-1.43,9-1.93,13.25a20.49,20.49,0,0,1-6,12.57q-43.29,43.24-86.55,86.53c-5.64,5.63-12.23,7.36-19.86,4.73-.9-.3-1.74-1-2.78-.22-3.6,2.81-8,3.81-12.14,5.43H43.42Q13.17,370.14,0,339.88Zm326.92,39.45c-.29-1.84-1.6-2.52-2.53-3.45q-13.32-13.39-26.72-26.73c-3.94-3.9-5.13-8.36-3.33-13.64,2.05-6,4-12,6-18.07A12.65,12.65,0,0,1,309,299.9c5.58-1.77,11.16-3.57,16.64-5.61,6.23-2.31,11.27-1,15.9,3.76,8.67,9,17.59,17.69,26.43,26.49.68.69,1.3,1.94,2.31,1.67,1.36-.35.9-1.87,1.05-2.9a56.16,56.16,0,0,0-61.13-64.07,10.73,10.73,0,0,1-9.55-3.56q-33.36-33.6-66.91-67c-1.23-1.24-2.1-3-4.35-.73-10.72,11-21.61,21.78-32.52,32.57-1.56,1.54-1.41,2.41.09,3.83q6,5.69,11.64,11.64c4,4.12,4.78,9.85,1.64,14.38-1.59,2.29-.8,3.27.77,4.83,14.42,14.33,28.64,28.87,43.25,43,4.22,4.09,5.86,8.1,5.45,14.06-1.59,23.26,11.4,44.46,32.61,54.16A55.37,55.37,0,0,0,326.92,370.35ZM13,56.33a50,50,0,0,0-.62,19.19c5,30.51,30,50.27,60.82,48A11.8,11.8,0,0,1,83.4,127.4c14.87,15.13,29.95,30,44.9,45.08,1.51,1.51,2.47,2,4.55.59,4.69-3.15,10.25-2.42,14.39,1.55,3.87,3.71,7.72,7.46,11.35,11.4,1.84,2,2.87,1.74,4.66-.07,10.23-10.41,20.51-20.77,31-30.94,2.48-2.41,2.37-3.63,0-6-22.5-22.3-44.85-44.76-67.29-67.13-2.14-2.14-3.46-4.28-3.06-7.56A56.1,56.1,0,0,0,60.07,11.93c-1,.15-2.6-.29-3,1s1.09,1.82,1.85,2.58c9,9,17.94,18,27,27,4,4,5.26,8.55,3.38,14q-3.06,8.84-5.89,17.73A12.89,12.89,0,0,1,74.56,83c-5.8,1.88-11.62,3.74-17.36,5.78-5.57,2-10.17.79-14.3-3.4C34.15,76.52,25.29,67.74,16.44,59,15.51,58,14.8,56.74,13,56.33Zm338.36-45c-1.86-.06-3.35.89-4.84,1.79-8.24,4.92-16.32,10.13-24.75,14.7-5.42,2.94-9,6.69-10,12.91-2.07,13-9.49,22.52-18.78,31.65-40.66,40-80.74,80.5-121.15,120.71-2.67,2.66-2.46,4,.13,6.3a158.58,158.58,0,0,1,12.43,12.44c2.33,2.62,3.55,2.07,5.75-.13,39.45-39.59,79.23-78.85,118.34-118.76C319.08,82,330.23,73.05,345.23,69.57a14.24,14.24,0,0,0,1.74-.68,7.6,7.6,0,0,0,3.95-3.28c6.23-10.36,12.48-20.71,18.65-31.11a6.8,6.8,0,0,0-1.06-8.9c-4-4.1-8.1-8.13-12.18-12.17A6.75,6.75,0,0,0,351.32,11.29ZM84.6,360.38c-.87-.55-1.72-1.06-2.54-1.62-9.25-6.32-11-19.05-3.21-27.05q23.81-24.36,48.17-48.15c6.65-6.53,17.19-6.11,24.19,0,1.91,1.66,2.4,5.8,5.27,5,2.31-.63,4-3.6,5.92-5.53a8.51,8.51,0,0,1,.8-.79c2.63-1.86,2.57-3.34.13-5.74-17.23-17-34.28-34.16-51.39-51.27-8.69-8.7-8.67-8.68-16.81.83-1.06,1.23-1.18,1.72.29,2.78,11.22,8.11,12.15,19.77,2.41,29.53q-22.06,22.13-44.19,44.2c-9.94,9.92-21.55,9-29.81-2.42-.41-.56-.41-1.72-1.83-.95-7.49,4-8.56,10.65-2.56,16.65,15.35,15.35,30.9,30.51,46,46.12,9.46,9.78,11.81,6.48,18.56-.54A5.82,5.82,0,0,0,84.6,360.38ZM191.41,253.62c.61-.48,1.22-.88,1.74-1.38,1.87-1.83,3.58-3.86,5.6-5.5,2.26-1.85,1.88-3-.06-5q-26.3-26.06-52.39-52.29c-7.7-7.71-7.66-7.66-15.23.56-1.37,1.5-1.18,2.27.13,3.57q29.25,29.17,58.44,58.41C190.16,252.54,190.73,253,191.41,253.62ZM39.48,298c2.64.09,4.37-1.5,6.08-3.21Q67.77,272.53,90,250.31a16,16,0,0,0,2-2.22,6.71,6.71,0,0,0-.84-8.57,6.52,6.52,0,0,0-8.54-.7,19.61,19.61,0,0,0-2.49,2.25Q58.15,263,36.2,285a16.31,16.31,0,0,0-2.44,2.82,6.35,6.35,0,0,0-.1,6.75A6.42,6.42,0,0,0,39.48,298Zm106.3-1.17c-.23-2.83-1.5-5.09-4.17-6.16-2.94-1.17-5.58-.43-7.85,1.84q-23,23-46,46.06c-3.16,3.18-3.26,7.18-.5,10s6.84,2.72,10-.4q23.08-23,46.06-46A8,8,0,0,0,145.78,296.82Zm24.35-30c.72-5.09,1.35-9.88,2.09-14.65.26-1.66-.8-2.5-1.76-3.46q-18-18-35.92-35.91c-.69-.68-1.25-1.8-2.35-1.66-5.19.62-10.36,1.35-15.71,2.06C134.54,231.23,152.13,248.8,170.13,266.79ZM11.24,335A17.2,17.2,0,0,0,16,347.24C22.56,354,29.18,360.8,36.06,367.3c5,4.74,11.12,5.84,17.73,3.89,3.57-1.05,3.66-1.46,1-4.11Q36.71,349,18.57,330.89c-1.54-1.54-3.39-4.76-4.79-4-2.36,1.21-2.28,4.67-2.54,7.4C11.22,334.49,11.24,334.74,11.24,335Z"/><path class="cls-1" d="M292.72,278c0,3.64-10.84,14.34-14.44,14.25a5.12,5.12,0,0,1-4.79-3c-.92-1.91-1.05-4.05.42-5.63,3.29-3.55,6.71-7,10.29-10.24,1.57-1.43,3.72-1.29,5.62-.25A5.26,5.26,0,0,1,292.72,278Z"/><path class="cls-1" d="M96.68,110.39a5.27,5.27,0,0,1-5-2.89c-1-2-1.1-4.26.48-6a124,124,0,0,1,10-9.94c2.24-1.91,5-1.46,7.06.7s2.4,4.69.61,6.78c-3.15,3.66-6.74,6.93-10.19,10.33A4.67,4.67,0,0,1,96.68,110.39Z"/><path class="cls-1" d="M118.29,270.13a6.74,6.74,0,0,1-2.34,5.13Q93.21,298,70.48,320.71c-3,3-6.09,3.21-8.57.84s-2.35-5.7.77-8.82q22.56-22.64,45.17-45.23c2-2,4.15-3.26,7-2A5.19,5.19,0,0,1,118.29,270.13Z"/></g></g></svg>