<svg xmlns="http://www.w3.org/2000/svg" viewBox="0 0 495.14 495.23"><defs><style>.cls-1{fill:#11184e;}</style></defs><title>Recurso 4</title><g id="Capa_2" data-name="Capa 2"><g id="Capa_1-2" data-name="Capa 1"><path class="cls-1" d="M156.64,495.23H19.34Q4.64,490.58,0,475.89v-29c4,.12,8,.08,12,.41,3.36.29,4.24-1.23,4-4.22-.16-1.92,0-3.87,0-5.8.08-21.26-.16-42.53.38-63.78.29-11.51,9-20.17,20.39-21.57,9.78-1.21,19.63-.5,29.44-.41,4.27,0,5.7-.92,5.66-5.5-.24-25.61,0-51.23-.23-76.84,0-4.59,1.4-5.71,5.72-5.55,8.36.3,16.75.11,25.12.06,1.52,0,3.51.66,4.24-1.35a97.21,97.21,0,0,1,7.19-14.63c-18.55,0-36.25-.08-53.95.06-3.13,0-4.13-.8-4.07-4,.19-10.63,0-21.26.14-31.89.05-3.21-1-4.12-4.12-4.06q-13.29.28-26.58,0C13,207.62,5.08,201.78,1,190.29a8.52,8.52,0,0,0-1-1.56V19.52C4.89,4.79,15.39-.37,30.46,0,54,.63,77.5.17,101,.19c17,0,26.66,9.66,26.67,26.65q0,77.09,0,154.19c0,17.2-9.7,26.79-27,26.84-8.22,0-16.44.16-24.65-.07-3.46-.09-4.44,1.12-4.28,4.43a138.43,138.43,0,0,1,0,15c-.24,3.76,1.23,4.63,4.72,4.56,10.14-.2,20.3,0,30.45-.08,12.45,0,25,1.34,36.71-5.12,2.78-1.53,5-2.72,6.4-5.75a63.34,63.34,0,0,1,80-32.75c3.16,1.17,4.49.38,6.26-2,10-13.55,23.4-21.8,39.9-25.06,36.49-7.2,73.41,21.19,74.8,57.83.21,5.33,1.23,8.77,7,9.87a11.41,11.41,0,0,1,5.93,3.11c8.16,8.88,18.64,8.65,29.33,8a53.64,53.64,0,0,1,8.69,0c4.07.44,5.51-.68,5.47-5.17-.26-23.35-.19-46.72,0-70.08,0-3.64-.72-5.08-4.71-4.91-7.88.33-15.79.1-23.68.1-11.78,0-11.64,0-11.57-11.94,0-3.35,1.24-3.92,4.21-3.94,12.51-.09,12.43-.17,11.76-12.79-.13-2.49-.88-3.36-3.39-3.3-6.28.14-12.56.08-18.85,0-15.76-.13-25.51-9.88-25.55-25.75q-.1-37.93,0-75.88c0-16.32,9.86-26,26.28-26q28.77,0,57.52,0c17.08,0,34.16-.11,51.24.05,13.47.12,24.15,9.52,24.35,22.5q.65,41.31,0,82.64c-.18,12.48-10.43,21.93-22.88,22.43-4.5.18-9,.08-13.53.08-11.58,0-11.47,0-11.41,11.72,0,3.26.81,4.57,4.31,4.49,3.78-.07,8.73-1.81,11.1.81s.34,7.41.75,11.22c.32,3.08-.93,3.79-3.82,3.75-10.31-.16-20.63.19-30.93-.18-4.46-.16-5.25,1.37-5.23,5.44.17,28.36,0,56.71.21,85.07,0,4.61-1.41,5.61-5.69,5.5-10.44-.29-20.9-.1-31.64-.1,1.29,4.47,2.68,8.55,3.62,12.73.61,2.75,1.89,3.51,4.63,3.48,13.37-.15,26.75.09,40.12-.17,3.94-.07,4.74,1.22,4.72,4.89-.16,23.52,0,47.05-.15,70.57,0,3.33.88,4.42,4.3,4.38,14.82-.16,29.65-.07,44.47-.07,7.27,0,7.27,0,7.27,7V495.23H367.42q0-69.83-.15-139.66c0-3.52,1.2-4.25,4.44-4.22,15.79.14,31.58,0,47.36.11,2.93,0,4.31-.53,4.28-3.94q-.24-28,0-56.06c0-3.33-1.23-4.06-4.25-4-6.76.18-13.52.06-20.29.06-8.07,0-8.06,0-10.11,8a26.06,26.06,0,0,1-1.19,3.66c-9.69,23.37-29.12,36.34-54.6,36.37q-53.4,0-106.8,0c-21.9,0-43.81.15-65.72-.05-27.88-.25-50.55-19.08-55.71-45.76-.65-3.35,1-8.06-2.16-9.75-2.77-1.48-6.94-.16-10.45-.48s-4.25,1-4.23,4.33q.21,31.65,0,63.31c0,3.43,1,4.32,4.36,4.27,13.69-.17,27.38-.14,41.07-.05,16.68.11,26.33,9.85,26.37,26.53,0,19,0,38,0,57,0,3.84-1.59,8.62.66,11.26s7.29.6,11.07,1a2.57,2.57,0,0,0,.48,0c2.84-.34,4,.71,3.94,3.77-.19,6.43.1,12.89-.1,19.32-.39,12.08-6.18,19.84-17.52,23.91A8.71,8.71,0,0,0,156.64,495.23Zm90.52-175.76q42.54,0,85.08,0c7,0,13.83-.73,20.18-3.94,16.13-8.17,25-24.75,22.34-41.75-2.76-17.72-16.53-31.17-35-33.73-4.46-.61-7.43-1.36-5.42-6.85.65-1.76.45-3.82.67-5.74,2.36-20-11.82-42.19-31-48.47-25.48-8.37-49,1.72-60.7,26.07-3.13,6.49-3.13,6.49-9.11,2.87-28.86-17.46-62.36-5.13-72.69,26.91-1.1,3.39-2.48,4.77-6.15,5.23-20.13,2.56-34.63,18.2-35.51,37.8-1,23.29,17,41.43,41.68,41.55C190.12,319.58,218.64,319.47,247.16,319.47ZM88,447.26c17.07,0,34.14-.09,51.2.07,3.52,0,4.72-.88,4.69-4.58-.16-21.57,0-43.15-.1-64.72,0-7.71-2.86-10.48-10.52-10.49q-45.41,0-90.81,0c-7.76,0-10.51,2.72-10.53,10.41,0,21.58.11,43.15-.11,64.73,0,4.09,1.47,4.67,5,4.64C53.87,447.18,70.94,447.26,88,447.26ZM415.16,80.1c19.48,0,39-.11,58.45.09,4.06,0,5.61-.79,5.53-5.25-.28-15.78-.09-31.56-.12-47.34,0-9.15-2.25-11.39-11.45-11.39q-52.41,0-104.82,0c-9,0-11.49,2.53-11.51,11.46,0,15.78.12,31.56-.09,47.34,0,4,1,5.23,5.08,5.18C375.87,80,395.52,80.1,415.16,80.1ZM63.94,127.88c14.49,0,29-.13,43.47.09,3.73.06,4.55-1.13,4.53-4.64q-.21-35.26,0-70.53c0-3.5-.82-4.74-4.55-4.72q-43.47.21-86.94,0c-3.21,0-4.52.69-4.5,4.23q.19,35.74,0,71.49c0,3.63,1.39,4.15,4.53,4.12C35,127.8,49.45,127.88,63.94,127.88ZM64,144c-14.34,0-28.68.16-43-.1-4.16-.08-5.1,1.29-5,5.19.25,10.63.05,21.26.1,31.89,0,8.24,2.52,10.74,10.63,10.75q37.2,0,74.41,0c8,0,10.73-2.66,10.78-10.71.07-10.79-.17-21.59.11-32.37.11-4-1.42-4.76-5-4.72C92.62,144.1,78.28,144,64,144ZM431.2,367.53c-14.65,0-29.29.09-43.94-.06-3.11,0-4.18.79-4.14,4,.15,13.2.12,26.4,0,39.59,0,2.93.53,4.31,3.95,4.3q43.94-.19,87.88,0c3.14,0,4.15-.94,4.12-4.1-.14-13-.22-26.07,0-39.11.08-4-1.33-4.74-5-4.69C459.85,367.64,445.53,367.53,431.2,367.53Zm.45,63.86c-14.81,0-29.62.09-44.43-.08-3.19,0-4.14.91-4.1,4.06.15,13.2.12,26.41,0,39.61,0,2.95.58,4.31,4,4.3q44-.18,87.91,0c3.22,0,4.1-1.09,4.07-4.17-.14-13-.23-26.09,0-39.12.08-4-1.39-4.72-5-4.67C460,431.49,445.82,431.39,431.65,431.39ZM87.92,463.31H83.58c-21.09,0-42.18,0-63.27.05-1.5,0-3.56-1-4.27,1.72-2.18,8.48,1.91,14.11,10.64,14.11q61.1.07,122.18,0c8.22,0,10.52-2.57,10.85-10.61.17-4-.65-5.46-5.15-5.41C132.35,463.46,110.14,463.31,87.92,463.31ZM415.37,96h-3.86c-18.68,0-37.36.09-56-.07-3.43,0-4.36,1-4.31,4.36.12,8.81,2.75,11.79,11.36,11.8q52.67,0,105.32,0c8.6,0,11-2.71,11.27-11.3.1-3.71-.91-4.92-4.8-4.88C454.67,96.06,435,96,415.37,96ZM63.83,32.1c14.65,0,29.29,0,43.93,0,1.51,0,3.53,1,4.12-1.91,1.79-8.68-2.18-13.92-11-13.94q-36.93-.06-73.85,0c-8.69,0-10.87,2.55-11.15,11.3-.13,4,1.37,4.71,5,4.67C35.19,32,49.51,32.1,63.83,32.1ZM414.81,144h4.34c12.7,0,12.63,0,12.11-12.84-.1-2.47-.75-3.39-3.3-3.31-5.62.15-11.25,0-16.87,0-12.3,0-12.22,0-11.88,12.54.08,2.66.76,3.75,3.54,3.62C406.76,143.85,410.79,144,414.81,144Z"/><path class="cls-1" d="M64.27,175.94c-4,0-8.06-.21-12.07.06-3.51.24-4.28-1.22-4.3-4.45-.06-11.74-.17-11.74,11.38-11.74,5.64,0,11.28.15,16.9-.06,3.06-.12,3.74,1.07,3.81,3.91.28,12.28.36,12.28-11.86,12.28Z"/><path class="cls-1" d="M447,399.46c-4.34,0-8.68-.08-13,0-2,.05-3.06-.6-2.82-2.74a6.15,6.15,0,0,0,0-1c-.37-12.43-.37-12.43,12-12.43,5.63,0,11.26.07,16.89,0,2.24,0,3,.73,3.12,3,.83,13.09.89,13.09-12.29,13.09Z"/><path class="cls-1" d="M415.13,391.38c0,8.08,0,8.08-8.14,8.08-7.71,0-7.71,0-7.71-7.93,0-8.17,0-8.23,8-8.16C416.28,383.46,415,382.09,415.13,391.38Z"/><path class="cls-1" d="M415.33,463.31c-1.6,0-3.22.1-4.81,0-3.63-.26-9.18,1.67-10.45-.82-1.84-3.58-.66-8.71-.77-13.18,0-1.84,1.21-2,2.59-2,8.83,0,17.66,0,26.5,0,2,0,2.68.73,2.86,2.8,1.18,13.26,1.24,13.26-12.06,13.26Z"/><path class="cls-1" d="M463.13,455.68c0,7.63,0,7.63-7.48,7.63-8.58,0-8.58,0-8.57-8.55,0-1.28.09-2.57,0-3.84-.24-2.63.72-3.94,3.52-3.68,1.43.13,2.88,0,4.32,0C463.13,447.26,463.13,447.26,463.13,455.68Z"/></g></g></svg>