<svg xmlns="http://www.w3.org/2000/svg" viewBox="0 0 266.26 350.27"><defs><style>.cls-1{fill:#11184e;}</style></defs><title>Recurso 5</title><g id="Capa_2" data-name="Capa 2"><g id="Capa_1-2" data-name="Capa 1"><path class="cls-1" d="M133.11,31.49c42.78,0,85.56.07,128.34-.1,4,0,5.13,1.19,4.74,5a47.16,47.16,0,0,0,0,9c.27,3-.95,3.87-3.61,3.39-9.64-1.75-16.21,2.5-22.89,9.35-27.68,28.41-55.94,56.24-84.06,84.2a8.28,8.28,0,0,0-2.68,6.52c.07,65.6,0,131.21.15,196.81,0,3.86-1,4.78-4.75,4.69-10.35-.26-20.71-.24-31.06,0-3.39.08-4.08-1-4.08-4.2q.14-98.22.13-196.43a10,10,0,0,0-3.17-7.84Q64.78,96.72,19.61,51.39c-1.91-1.9-3.75-2.93-6.51-2.74-3.48.24-7,0-10.47.09C.65,48.8,0,48,0,46.1c.07-4,.12-8,0-12-.07-2.24.92-2.81,2.91-2.66,1.36.11,2.74,0,4.11,0Zm-19.83,95v-4.31c0-15.72.08-31.43-.06-47.15,0-3,.55-4.11,3.82-4q16.08.33,32.18,0c3.25-.07,3.87,1.07,3.85,4-.14,15.72-.08,31.44,0,47.15,0,1.28-.31,2.65.18,3.56l76.33-76.66H36.23Z"/><path class="cls-1" d="M69.14,202.91c7.73,0,15.45.09,23.18-.06,2.51,0,3.13.81,3.12,3.2q-.12,19.26.06,38.51c0,2.22-.54,3-2.89,3q-23.55-.14-47.1,0c-2.23,0-3.06-.66-3-3q.14-19.44,0-38.88c0-2.48,1-2.86,3.13-2.84C53.44,203,61.29,202.91,69.14,202.91Z"/><path class="cls-1" d="M197.64,202.91c7.49,0,15,.09,22.45,0,2.46-.05,3.47.43,3.44,3.21-.15,12.71-.13,25.43,0,38.15,0,2.6-.69,3.39-3.32,3.37q-23-.18-46,0c-2.87,0-3.55-.94-3.52-3.65q.18-18.88,0-37.78c0-2.67.86-3.36,3.42-3.32C181.93,203,189.79,202.91,197.64,202.91Z"/><path class="cls-1" d="M69.1,194.72c-7.73,0-15.46-.09-23.19.05-2.51,0-3.61-.55-3.45-3.29a104.8,104.8,0,0,0,0-11.21c-.13-2.55.9-3.15,3.26-3.14q23.37.12,46.75,0c2.26,0,3.06.69,3,3a114.87,114.87,0,0,0,.07,11.59c.15,2.61-.92,3.09-3.23,3C84.55,194.64,76.82,194.72,69.1,194.72Z"/><path class="cls-1" d="M197.05,194.72c-7.73,0-15.46-.09-23.19.05-2.47,0-3.29-.76-3.19-3.2.16-3.86.13-7.73,0-11.59-.06-2.1.7-2.84,2.81-2.84q23.75.09,47.5,0c2,0,2.55.76,2.5,2.65-.11,4.11-.16,8.23,0,12.34.09,2.3-.94,2.64-2.89,2.62C212.76,194.67,204.91,194.72,197.05,194.72Z"/><path class="cls-1" d="M238.5,21c-2.56-.49-7.91,1.35-8.45-.79-1.23-4.95-1.79-10.62,1-15.61A8.84,8.84,0,0,1,237.29.24a9.15,9.15,0,0,1,11,7,16.44,16.44,0,0,1,.44,4.42C248.53,21,248.51,21,238.5,21Z"/><path class="cls-1" d="M64.85,21.09c-2.5-.34-6.44,1.37-8.41-.65s-.54-5.91-.64-9C55.59,4.74,59.3.31,65,.18,70.82,0,75,4.51,75.08,11.12,75.27,21.09,75.27,21.09,64.85,21.09Z"/><path class="cls-1" d="M201.32,21c-10.18,0-10.12,0-10.15-9.72,0-3.41.72-6.41,3.32-8.77A9.35,9.35,0,0,1,210,7.43a12.83,12.83,0,0,1,.31,4.44c-.41,2.92,1.31,6.72-.85,8.58S203.75,20.77,201.32,21Z"/><path class="cls-1" d="M26.4,21.09c-2.48-.66-7.65,1.57-8.3-1-1.21-4.67-1.8-10.15.6-15A9.16,9.16,0,0,1,30.87,1a9.21,9.21,0,0,1,5.45,6.7c.77,3.82.25,7.7.33,11.56,0,1.52-.89,1.83-2.18,1.81C32,21.06,29.48,21.09,26.4,21.09Z"/></g></g></svg>