<svg xmlns="http://www.w3.org/2000/svg" viewBox="0 0 333.31 351.39"><defs><style>.cls-1{fill:#11184e;}</style></defs><title>Recurso 6</title><g id="Capa_2" data-name="Capa 2"><g id="Capa_1-2" data-name="Capa 1"><path class="cls-1" d="M76.91,92.05c1.25-.86,1.44-2.33,1.86-3.54C85.1,70,115.59,65,127.22,83a150,150,0,0,1,13.13,25.94c4.07,10.17,7.41,20.62,12.1,30.55a9.74,9.74,0,0,0,6.32,5.69c11.62,3.72,23.13,7.77,34.65,11.79,10.87,3.79,15,11.61,11.56,22.54-1.14,3.64,1.38,3.18,3.11,3.6a337,337,0,0,1,68.21,24.07,29.1,29.1,0,0,1,2.66,1.38,4.82,4.82,0,0,1,2.05,6.19c-.94,2.52-3.15,3.46-5.78,3a12.46,12.46,0,0,1-3.11-1.21c-24.75-12.14-50.89-20.17-77.65-26.38a5,5,0,0,0-5,1.33,148.1,148.1,0,0,0-21.77,24.61c-3,4.32-5.78,8.77-9.62,12.39-1.38,1.3-1.15,2.12.05,3.31,2.12,2.11,4,4.44,6.2,6.49,4.93,4.67,7.06,10.39,7.05,17.1,0,24.7.07,49.39,0,74.09-.06,12.57-9.33,22-21.23,21.95S129,342,128.86,329.4c-.15-20.83-.1-41.67,0-62.5a10.17,10.17,0,0,0-2.82-7.71c-3.6-3.8-6.51-8.36-10.48-11.67-4.33-3.61-10.07-.45-15.1-1.54-3.16-.68-6.44-.85-9.57-1.63-2.28-.58-2.85.14-3,2.22s-.75,3.94-.86,5.92C86.56,262,82.58,270,77.4,277.87c-11.72,17.8-22.81,36-34.31,53.95-8.66,13.53-25.38,15.41-36.51,4.29-7.5-7.49-8.72-18.48-3-28.21q21.69-36.69,43.53-73.29c1.8-3,2.25-4.49-1.5-6.3A49.6,49.6,0,0,1,29.55,215.7c-4.58-5.33-7.63-11.39-8.11-18.49-.12-1.85-.85-2.42-2.52-3C7.45,190.42,1.65,180.58,4.28,168.76,9.53,145.17,15,121.65,20.5,98.11A19.4,19.4,0,0,1,33.72,83.56,5.78,5.78,0,0,0,37.83,79c.66-2.52,1.41-5,2.26-7.51a14.06,14.06,0,0,1,16.08-9.72c3.93.63,7.85,1.39,11.72,2.33,7.71,1.88,12,8.57,10.47,16.42-.51,2.68-1.43,5.29-2.06,8C76,89.66,75.1,91.09,76.91,92.05ZM62.74,210.82c0,4.59.07,8,0,11.32-.05,1.72.41,2.77,2.18,3.34,4.15,1.33,8.29,2.7,12.34,4.3,2.29.91,2.78-.05,3-2,.78-5.93,1.67-11.84,2.43-17.78.35-2.67.69-5.45,3.63-6.39,3.17-1,5.37.84,7.38,3.16,7.58,8.78,15.31,17.43,22.87,26.23a4.79,4.79,0,0,0,5.14,1.86,84.09,84.09,0,0,0,15.38-4.55c2.54-1,2.58-1.83.7-3.73-8.57-8.71-16.93-17.63-25.56-26.29a7.57,7.57,0,0,1-2.32-7.68c2.55-12.2,4.88-24.43,7.51-36.61a9.11,9.11,0,0,0-1.06-7c-4.54-7.88-9-15.84-13.31-23.82-1.86-3.38-1-6.39,2-8,2.76-1.5,5.56-.52,7.55,2.67.4.63.72,1.31,1.08,2,5.51,9.91,11.45,19.61,16.38,29.81,3.51,7.28,8.51,11.28,16.28,13.5,14.11,4,27.92,9.13,41.88,13.71,3.52,1.15,6.63-.32,7.64-3.33a6.22,6.22,0,0,0-3.64-7.68,22,22,0,0,0-2.1-.78c-12.48-4.28-24.94-8.64-37.48-12.76a11.67,11.67,0,0,1-6.8-5.38c-4.17-7-7.14-14.5-9.93-22.11-3.52-9.58-6.47-19.39-11.31-28.44-3.16-5.91-7-11.22-13.2-14.36a16.1,16.1,0,0,0-21.71,7A71,71,0,0,0,85,104.33c-6.34,23.45-11.16,47.26-16.38,71C65.92,187.41,61.51,199.29,62.74,210.82Zm9.64-100.75c.25-7.68-3.28-12-9.93-13.46C56.86,95.37,51.26,94.2,45.66,93c-7.55-1.62-13.38,2-15.13,9.54q-7.68,33.3-15.19,66.65c-1.83,8.09,2.21,14.3,10.33,16.08,5.23,1.16,10.47,2.23,15.72,3.32,8,1.67,13.48-1.72,15.29-9.6,3.52-15.29,6.92-30.6,10.39-45.9C68.91,125,70.82,116.84,72.38,110.07ZM10.77,319.16a15,15,0,0,0,.65,5.06c1.89,4.81,5.25,8,10.43,8.49,5.36.55,9.3-2.06,12.13-6.53q19.89-31.43,39.83-62.82a9.5,9.5,0,0,0,1.54-3.75c.75-5.18,1.5-10.36,2.54-15.48.41-2-.28-2.68-2-3.11a72.23,72.23,0,0,1-13.75-4.71c-2.14-1-3-.32-4.07,1.47q-22.57,37.89-45.26,75.7C11.59,315.55,10.7,317.71,10.77,319.16Zm149.91-26.6h0c0-12.09-.08-24.17,0-36.25a15,15,0,0,0-4-10.55c-2.49-2.78-5.29-5.28-7.86-8a2.25,2.25,0,0,0-3.23-.48A63.22,63.22,0,0,1,129,243.77c-1.88.45-2,1-.75,2.37,2.47,2.64,4.72,5.5,7.36,8,3.09,2.88,4,6.21,4,10.35-.16,21.3-.05,42.6-.1,63.9,0,3.65.6,7,3.43,9.5a10.12,10.12,0,0,0,11.13,2c4.37-1.75,6.59-5.19,6.61-9.89C160.71,317.47,160.68,305,160.68,292.56Zm-35.06-127c-2,9.23-3.67,17.27-5.48,25.28-.45,2,.67,3,1.81,4.15,8.23,8.35,16.53,16.64,24.61,25.12,2.05,2.14,3,2,4.68-.29,8-10.5,16.17-20.94,25.57-30.27,2.19-2.17,2.19-2.92-.87-3.91-14.57-4.72-29.07-9.65-43.61-14.43C129.65,170.35,127.18,169.37,125.62,165.58Zm-73.11,54c0-7.24,0-13.46,0-19.68,0-1.43-.49-1.76-1.77-1.44-4.86,1.22-9.66.52-14.38-.73-3-.79-3.64,0-2.57,2.81C37.1,209.2,43.88,214.41,52.51,219.56ZM54.17,71.77a3,3,0,0,0-2.43.74c-2.71,2.46-3.22,6-3.26,9.19,0,2,3.21,1.44,5,2s3.38.74,5.08,1.12c7.6,1.67,7.73,1.54,9.4-6.06.53-2.41-.32-4-2.51-4.62C61.74,73.13,57.94,72.53,54.17,71.77Zm51,163.34L92.13,220.48c-.71,4-1.28,7.13-1.8,10.29-.2,1.22-.47,2.42,1.34,2.88A43.1,43.1,0,0,0,105.18,235.11Z"/><path class="cls-1" d="M189,34.65c-4.49,0-9-.09-13.47.06-1.24,0-3.6-1-3.49,1.36.1,2.2,2.38,1.07,3.65,1.15,2.86.19,5.73,0,8.6.07,4.38.08,6.16,1.87,6.21,6.12.25,19.43-12.74,37.86-31.12,44.15-5.17,1.77-7.66.52-9.32-4.68-1-3.09-2-6.15-2.84-9.29-.52-2-1.37-2.69-3.57-2.69-15.38,0-27.18-10.43-29-25.67a80.28,80.28,0,0,1,.05-19.41C116.58,11.48,127.93,1,142.47.06c13.25-.89,25,7.68,28.81,21.29.61,2.15,1.56,2.65,3.61,2.63,8.72-.1,17.46-.05,26.18,0a29.72,29.72,0,0,1,3,.06c3.2.33,5.11,2.1,5.08,5.35s-1.89,5.14-5.15,5.22c-5,.12-10,0-15,0Zm-63.66.81h0a90.67,90.67,0,0,0,.06,9.33,18.18,18.18,0,0,0,14.12,15.56c2.52.48,3.84.25,2.75-2.91-1.42-4.11-2.52-8.34-3.65-12.54-1.18-4.36,1-7.4,5.54-7.59,3-.13,6,0,9,0,9.78,0,9.78,0,9.05-9.75a18.23,18.23,0,0,0-17.89-16.75c-9.34-.26-17.8,6.68-18.87,15.73A76.31,76.31,0,0,0,125.37,35.46Zm40.19,12.43c-4.1,0-8.21,0-12.31,0-1.56,0-2.67,0-2,2.23,2.52,8.06,4.9,16.15,7.31,24.24.43,1.44,1.13,1.64,2.39.91,9.74-5.67,16.12-13.8,18.5-24.93.39-1.82-.08-2.5-2-2.46C173.52,48,169.54,47.89,165.56,47.89Z"/><path class="cls-1" d="M294.7,254.85c-.42,3.1-1.64,4.92-4.14,5.38-2.73.5-5.23-.4-6.08-3.14-2.06-6.66-3.88-13.4-5.6-20.15-.67-2.65.68-4.69,3.18-5.65s5.28-.51,6.14,2C290.71,240.54,292.68,248,294.7,254.85Z"/><path class="cls-1" d="M333.31,216.53a4.89,4.89,0,0,1-5.95,4.83c-6.9-1.57-13.74-3.45-20.47-5.62-2.61-.83-3.54-3.45-2.78-6.19a4.5,4.5,0,0,1,5.47-3.46c7,1.63,13.95,3.63,20.84,5.73C332.51,212.45,333.09,214.61,333.31,216.53Z"/><path class="cls-1" d="M323.07,244.81C323,247.46,322,249,320.28,250a4.47,4.47,0,0,1-5.57-.38c-4.94-4.75-9.84-9.55-14.5-14.57-2-2.12-1.38-4.73.69-6.69s4.64-2.27,6.74-.28c4.89,4.63,9.57,9.46,14.29,14.26A3.8,3.8,0,0,1,323.07,244.81Z"/></g></g></svg>