<svg xmlns="http://www.w3.org/2000/svg" viewBox="0 0 284.13 378.31"><defs><style>.cls-1{fill:#11184e;}</style></defs><title>Recurso 7</title><g id="Capa_2" data-name="Capa 2"><g id="Capa_1-2" data-name="Capa 1"><path class="cls-1" d="M221.58,245.49c-9.89,0-18.75,0-27.6,0-5.89,0-9.07-1.91-10.33-6.11-1.33-4.41.23-7.48,5.7-10.67,1.19-.7,1.09-1.31.78-2.37-2.53-8.62-14.21-17.47-23.19-17.74-2.19-.06-3.06,1.34-4.22,2.55-21.5,22.34-53.94,26.05-79.12,9a55.31,55.31,0,0,1-10.94-9.6,5.33,5.33,0,0,0-4.45-2.09c-15.72.08-31.44.11-47.16,0-2.67,0-3.55.79-3.3,3.38a39.79,39.79,0,0,1,0,6c-.31,5.77-3.91,9.28-9.24,9.09-5.11-.18-8.46-3.78-8.48-9.44C0,199.78,0,182.06,0,164.35c0-11.6,0-23.21,0-34.81,0-5.73,2.45-9.2,7-10,5-.94,8.25,1,10.49,6.57.63,1.56,1.55,1.64,2.85,1.64,13.6,0,27.2,0,40.8,0,2,0,2.6-.68,2.54-2.6-.11-3.61,0-7.24,0-10.85C63.68,107.32,67,104,74,104c21,0,41.92-.11,62.88.07,3.69,0,5-.75,4.71-4.64-.37-6-.09-6-5.91-6q-26,0-52,0c-5.22,0-8.57-2.7-9.39-7.31-1-5.38,2.82-10,8.7-10.19,7.23-.21,14.48-.22,21.71,0,3,.08,3.5-1,3.77-3.83.65-6.61-1-10.56-7.6-14.09a33.41,33.41,0,0,0-17.07-4.2q-22.65.24-45.29,0A21.36,21.36,0,0,1,26.71,14.76,22.13,22.13,0,0,1,39.77,11C56.62,11,73.46,11,90.3,11A6.92,6.92,0,0,0,95.56,9C108.14-3,126.07-3,138.67,8.94a6.94,6.94,0,0,0,5.26,2.1c17.22-.07,34.43-.11,51.65,0,11.44.08,20.1,8.17,21.3,19.54,1.08,10.27-6.14,20.17-16.59,22.77a27.34,27.34,0,0,1-6.69.5c-16.72,0-33.44,0-50.15,0-2.48,0-4.53.36-6.42,2.17a19,19,0,0,1-7.68,4.52c-3,.88-3.56,2.63-3.52,5.5.16,9.84.06,9.85,10,9.85,4.49,0,9-.08,13.47,0,6.31.15,9.37,3.28,9.45,9.56.07,5.11.11,10.23,0,15.34-.06,2.32.45,3.23,3.05,3.27,6.5.08,9.85,3.5,10.17,9.94a93.87,93.87,0,0,1,.16,10.47c-.18,3,1,3.77,3.76,4.06a93,93,0,0,1,48.8,20c21.8,17.34,34,40.31,38.79,67.47.35,2,.61,3.94.82,5.92.36,3.41.56,6.45,4.51,8.38,3.48,1.7,3.93,5.66,2.8,9.27a7.81,7.81,0,0,1-7.81,5.85c-7,.12-14,.06-21,.08H240c.27,1.92,1.57,2.81,2.46,3.9,13.46,16.41,26,33.39,35.71,52.43,16,31.39-3,61.93-26.19,72-36.27,15.73-77.15-11.92-75.36-51.42.44-9.69,4.73-18.26,9.21-26.63,8.74-16.35,19.91-31,31.61-45.33C218.64,249,219.81,247.62,221.58,245.49ZM46.79,145.24c-8.48,0-17,.1-25.44-.06-2.73-.06-3.66.62-3.63,3.51.16,12.84.18,25.69,0,38.54-.05,3.15,1.1,3.61,3.85,3.59,17.46-.11,34.92,0,52.38-.09a10.66,10.66,0,0,1,9.24,4.57c18.25,23.92,51.58,23.77,69.8-.28a10.13,10.13,0,0,1,8.62-4.28c22.72-.25,40.09,12.57,46.64,34.59.51,1.74,1.14,2.69,3.24,2.67q16.65-.17,33.3,0c2.34,0,2.93-.58,2.67-3-4.88-45-38.28-79.29-83.08-79.76-5.72,0-9.16-3.76-9.39-9.5q-.22-5.79-.23-11.6c0-1.75-.68-2.37-2.45-2.37q-34.25.06-68.48,0c-2.07,0-2.51.84-2.46,2.66.09,3.49.06,7,0,10.48-.09,7.16-3.18,10.3-10.25,10.33C63,145.27,54.9,145.23,46.79,145.24ZM230.32,262.77c-.37.17-.65.21-.79.38-1.37,1.61-2.77,3.21-4.06,4.88-10.92,14.12-21.67,28.33-28.84,44.86-5.35,12.3-2.85,23.54,5,33.63,8.09,10.36,19.05,15,32.23,13.76,21.7-2,40.84-27,27.82-51.2C252.81,292.5,242,277.38,230.32,262.77ZM131,32.18a13.86,13.86,0,0,0-27.72-.46A13.78,13.78,0,0,0,117,45.92,14,14,0,0,0,131,32.18Zm42.32,4.94c7.22,0,14.43,0,21.65,0,2.83,0,5-1.09,5-4.27,0-3-2-4.11-4.67-4.12-14.68,0-29.36,0-44,0-1.75,0-2.53.55-2.27,2.38a9.62,9.62,0,0,1,.06,3c-.47,2.56.64,3.16,3,3.12C159.12,37,166.21,37.12,173.3,37.12ZM60.92,36.79V36.6c7.08,0,14.2-.35,21.25.11,6.27.41,2.88-4,3.41-6.2.69-2.87-2.06-1.74-3.28-1.75-13.8-.1-27.61-.07-41.41-.05a11.52,11.52,0,0,0-3.33.28,3.75,3.75,0,0,0-2.86,4.57c.42,2.11,1.73,3.32,4.23,3.27C46.26,36.7,53.59,36.79,60.92,36.79Z"/><path class="cls-1" d="M229.85,349.2c-6.23-.28-11.62-1.59-16.46-4.7-4.6-2.94-5.89-7.72-3.34-12.24,2.31-4.09,7.06-5.63,11.64-3.14,5.73,3.12,11.1,2.78,16.68-.19a8.85,8.85,0,0,1,11.94,3.43,8.75,8.75,0,0,1-3,11.51A31.94,31.94,0,0,1,229.85,349.2Z"/></g></g></svg>