<svg xmlns="http://www.w3.org/2000/svg" viewBox="0 0 408.82 408.36"><defs><style>.cls-1{fill:#11184e;}</style></defs><title>Recurso 8</title><g id="Capa_2" data-name="Capa 2"><g id="Capa_1-2" data-name="Capa 1"><path class="cls-1" d="M408.82,404.21c-1.88,3.23-4.7,4.15-8.36,4.15q-99.78-.12-199.57,0c-3.36,0-6.45-.26-7.88-4s.76-5.79,3-8q14.69-14.69,29.34-29.42c.9-.9,2.11-1.6,2.63-3.49h-4.75q-88,0-176,0c-18.69,0-32.67-8-41.81-24.38A42.12,42.12,0,0,1,.07,318.42Q0,191.85.06,65.27c0-25.83,19.85-46.68,44.77-47.59,6.32-.23,8.42,1.72,8.44,8.15,0,17.59.11,35.19-.07,52.79,0,3.54.92,4.43,4.43,4.42q89-.17,178,0a8.51,8.51,0,0,0,6.62-2.74q36.18-36.43,72.5-72.71c10.08-10.1,20-10.08,30.13.06q7.33,7.35,14.67,14.71c9.68,9.73,9.64,19.8-.12,29.61Q345.78,65.68,332.1,79.41c-.89.89-2.15,1.55-2.42,3,1.38.93,2.87.48,4.26.49,12.51,0,25,0,37.52,0,7.44,0,9.21,1.77,9.21,9.17q0,56.6,0,113.18v5.94l6.41-6.35c3.2-3.2,6.39-6.42,9.59-9.61,4.89-4.88,7.7-4.85,12.15.11ZM12,288.57c7.65-7.71,15.71-12.75,25.41-14.5,3.3-.59,3.95-2,3.91-5-.16-10.66-.06-21.33-.06-32,0-2.43.12-4.84,2.34-6.47a5.67,5.67,0,0,1,6-.71c2.8,1.28,3.62,3.78,3.63,6.59,0,13.73.09,27.47,0,41.2,0,4.89-2.24,7-7.15,7.22a35.39,35.39,0,0,0-13.48,3.21c-13,6-22.13,21-20.26,33.34,2.82,18.73,15.77,30,34.85,30q95.2.06,190.42.06a7,7,0,0,0,5.56-2.32q10.61-10.86,21.45-21.49c2.87-2.81,6.55-2.91,8.91-.55,2.53,2.53,2.41,5.78-.36,8.92-.71.8-1.49,1.53-2.25,2.28q-27.09,27.15-54.18,54.32c-1,1-2.34,1.71-2.76,3.64H363.33c9.85,0,19.7-.1,29.54.07,3,0,4.23-.56,4-3.88-.3-5.31-.08-10.66-.08-16,0-8.78,0-8.78-8.93-8.89-.4,0-.8,0-1.19,0-4.29-.18-6.65-2.18-6.77-5.72-.13-3.7,2.3-6,6.72-6.26a63.7,63.7,0,0,1,7.18,0c2.14.12,3.15-.42,3-2.83q-.27-6.19,0-12.4c.11-2.45-1-2.84-3.06-2.84-3.18,0-6.4.45-9.54-.39a5.84,5.84,0,0,1,.47-11.38,18.75,18.75,0,0,1,3.18-.21c8.9-.14,8.9-.14,8.9-8.93,0-9.13,0-9.13-8.92-9.22-.53,0-1.07,0-1.6,0-4-.27-6.47-2.63-6.38-6.17.08-3.38,2.45-5.62,6.31-5.79,2.53-.11,5.07-.14,7.59,0,2.1.11,3.16-.34,3.05-2.8-.18-4.26-.14-8.53,0-12.79.07-2.17-.79-2.78-2.8-2.69-2.66.12-5.33.07-8,0-3.53-.11-5.8-1.82-6.11-5.5-.3-3.46,1.87-5.92,5.71-6.36a26.62,26.62,0,0,1,6.37-.06c3.72.46,5-.63,4.89-4.66-.29-13.33-.11-26.67-.11-40v-8.2c-1.66,1.58-2.72,2.53-3.72,3.53l-99.35,99.57c-4.52,4.53-8.07,5.33-10.89,2.46s-2.26-6.31,2.34-10.93Q325.58,266.53,366,226.1c1.66-1.65,2.77-3.22,2.76-5.81q-.14-60.6,0-121.2c0-3.49-1.22-4.17-4.38-4.13q-21.94.21-43.91,0a8.87,8.87,0,0,0-6.95,3Q254.29,157.39,195,216.76a17.49,17.49,0,0,1-7,4.38c-9.68,3.32-19.29,6.8-28.93,10.24-.88.31-2,.37-2.53,1.67H271.35c5.08,0,7.9,2.11,8,5.86s-2.76,6.14-7.69,6.14H108.81c-4.74,0-7.4-2.19-7.43-5.91s2.63-6,7.32-6.08c5-.07,10.12-.18,15.16.05,2.65.12,3.67-.93,4.48-3.28,5.3-15.34,10.94-30.57,16-46a36,36,0,0,1,9.83-15.56c7.47-7,14.54-14.46,21.81-21.7,1.9-1.9,4.1-3,6.85-1.93a5.81,5.81,0,0,1,3.84,4.73c.46,2.68-1.09,4.53-2.83,6.27-6.69,6.69-13.28,13.47-20.1,20-2.07,2-2.33,3.06-.09,5.22q11.53,11.06,22.59,22.61c2.19,2.3,3.24,1.85,5.19-.15,8-8.22,16.13-16.26,24.22-24.37q47.15-47.23,94.35-94.4c2.67-2.66,2.38-4-.12-6.36q-11.1-10.64-21.73-21.78c-2.24-2.35-3.37-2-5.49.09q-38.7,39-77.59,77.81a19.78,19.78,0,0,1-3.94,3.33c-2.51,1.46-5,.82-6.9-1.19a5.25,5.25,0,0,1-.94-6.63,19.21,19.21,0,0,1,3-3.66c9.2-9.27,18.45-18.48,27.63-27.76.87-.87,2.24-1.46,2.25-3.44h-4Q140,95,57.8,94.94c-3.69,0-4.61,1-4.6,4.66q.19,54,.06,108a22,22,0,0,1-.46,5.14,5.28,5.28,0,0,1-5.88,4.3,5.31,5.31,0,0,1-5.42-4.87,35.74,35.74,0,0,1-.23-5.18q0-85,0-170c0-7.62-.35-7.91-7.35-4.74C19.11,38.94,12,50.67,12,66.75Q12,175.55,12,284.34ZM329.84,12.21a5.28,5.28,0,0,0-4,1.47c-3.73,3.57-7.35,7.28-11.09,10.86-1.28,1.23-.63,2,.31,2.92,8.08,8.07,16.17,16.13,24.19,24.27,1.32,1.34,2.18,1.44,3.52,0,3.09-3.28,6.4-6.36,9.5-9.64,3.3-3.49,3.32-6.65-.06-10.14-5.73-5.91-11.59-11.69-17.43-17.49A6.67,6.67,0,0,0,329.84,12.21Zm-25.2,22.6c-.41.38-.92.8-1.38,1.27-2.55,2.53-5,5.13-7.66,7.58-1.41,1.31-1.32,2.17,0,3.49q12.21,12.06,24.25,24.29c1.21,1.22,2,1.31,3.17,0,2.46-2.62,5-5.19,7.63-7.62,1.53-1.41,1.54-2.31,0-3.8-8.05-7.94-16-16-24-24C306.15,35.54,305.7,34.8,304.64,34.81ZM155.13,190.34C148,205.6,148,205.8,158.56,216a11.23,11.23,0,0,1,.85.84,2.3,2.3,0,0,0,2.85.68c5-1.83,10-3.59,14.56-5.23C169.55,204.93,162.3,197.59,155.13,190.34Z"/><path class="cls-1" d="M326.33,365.77c-10.11,0-20.23,0-30.34,0-3.26,0-6.25-.48-7.57-3.88-1.23-3.16.29-5.59,2.53-7.82q31.51-31.5,62.95-63.07c2.22-2.23,4.63-3.75,7.8-2.46s3.83,4.14,3.83,7.25c0,20.67,0,41.33,0,62,0,5.8-2.24,7.93-8,7.95C347.09,365.8,336.71,365.77,326.33,365.77ZM310,353.63c-.28-.16-.07.06.14.06,13.57,0,27.15,0,40.72.11,3,0,2.66-1.77,2.66-3.65q0-19.18,0-38.39c0-.74.33-1.63.06-1.78Q331.57,332,310,353.63Z"/></g></g></svg>