<svg xmlns="http://www.w3.org/2000/svg" viewBox="0 0 383.22 383.26"><defs><style>.cls-1{fill:#11184e;}</style></defs><title>Recurso 9</title><g id="Capa_2" data-name="Capa 2"><g id="Capa_1-2" data-name="Capa 1"><path class="cls-1" d="M189.38,383.26c-3.38-2.18-4.26-5.34-4.22-9.23.14-15,0-29.91.12-44.86,0-2.89-.84-3.82-3.69-4-5.2-.37-10.39-1.1-15.56-1.86-4.37-.64-6.92-3.65-6.44-7.23.54-3.93,3.69-6.21,8.3-5.36a127.88,127.88,0,0,0,47.17,0c4.49-.84,7.58,1.3,8.15,5,.61,4-1.69,6.87-6.36,7.56-5,.74-10.11,1.45-15.19,1.81-2.84.2-3.72,1.12-3.69,4,.15,15,0,29.91.12,44.86,0,3.9-.84,7.05-4.22,9.24Z"/><path class="cls-1" d="M0,189.39c2.08-3.25,5.07-4.25,8.85-4.22,14.83.13,29.65,0,44.47.11,3.09,0,4.56-.44,4.75-4.08a121,121,0,0,1,5.73-30.36c1.22-3.86,3.79-5.83,7-5.54,4.41.39,6.78,4.31,5.27,9.18a123,123,0,0,0-5.26,26.3c-.26,3.09-.35,6.21-.45,9.32-.17,5.64-2.34,7.9-8,7.92-18.06,0-36.12,0-54.18.06A8.9,8.9,0,0,1,0,193.88Z"/><path class="cls-1" d="M191.81,287.44a95.81,95.81,0,1,1,95.62-95.8A95.88,95.88,0,0,1,191.81,287.44Zm-.32-32c10.35,0,20.7.06,31,0,12.25-.09,20.07-7.92,20.11-20.16q.11-27.68,0-55.35c0-10.81-5.79-17.8-16.41-19.92-1.94-.39-2.69-1.05-2.66-3.11a101.29,101.29,0,0,0-.32-13.82c-1.87-15-14.09-26.9-28.71-27.88-16.14-1.07-29.74,8.47-33.76,23.61-1.56,5.88-1.1,11.87-1.14,17.84,0,1.8-.2,2.87-2.39,3.33C146,162.35,140.62,169,140.6,180.41q0,27.3,0,54.6c0,12.53,7.77,20.33,20.23,20.42C171.05,255.5,181.27,255.44,191.49,255.44Z"/><path class="cls-1" d="M105.9,364c-9.35,0-18.7,0-28.05,0a5.3,5.3,0,0,0-4.47,2,12.5,12.5,0,0,1-18.31,1,12.69,12.69,0,0,1-.14-18.38,12.56,12.56,0,0,1,18.33.71,5.66,5.66,0,0,0,4.83,2c17.46,0,34.92-.1,52.38.05,3,0,3.72-.91,3.68-3.78q-.26-15.72,0-31.43c.05-2.72-1-3.91-3.27-5a131.93,131.93,0,0,1-40.22-31.2c-3.12-3.56-3.35-7.33-.6-9.93,3-2.83,6.7-2.42,10.07,1.4a122.45,122.45,0,0,0,41.72,30.95c3.51,1.6,5,4,5,7.86-.09,13.6,0,27.19-.06,40.78,0,7.78-5.1,12.93-12.86,13.05-9.35.15-18.7,0-28.06,0Z"/><path class="cls-1" d="M312.88,134.09a178.25,178.25,0,0,1,7.45,20,123.7,123.7,0,0,1,4.87,27.16c.18,3.18,1.11,4.14,4.39,4.1,14.46-.2,28.93-.09,43.4-.09,1,0,2,0,3,0,4.5.2,7.24,2.63,7.24,6.39S380.49,198,376,198c-13.85.09-27.69,0-41.54,0-4.61,0-9.23.07-13.84,0-5.26-.11-7.59-2.37-7.65-7.54a121.48,121.48,0,0,0-15.49-58.25c-3.44-6.23-.65-10.85,6.53-10.89q19.65-.09,39.29,0a6,6,0,0,0,5.13-2.14,12.69,12.69,0,1,1,18.22,17.65,12.39,12.39,0,0,1-18-.45,6.81,6.81,0,0,0-5.82-2.37C333,134.14,323.17,134.09,312.88,134.09Z"/><path class="cls-1" d="M277.26,19.22c9.23,0,18.45,0,27.68,0a6,6,0,0,0,5.13-2.18,12.44,12.44,0,0,1,18.3-.58,12.7,12.7,0,0,1,0,18.12A12.55,12.55,0,0,1,310.06,34,5.74,5.74,0,0,0,305.25,32c-17.58.05-35.17.07-52.75,0-2.54,0-3.43.61-3.39,3.29.15,10.85.13,21.7,0,32.55,0,2.27.89,3.25,2.77,4.18a130.21,130.21,0,0,1,34.75,25c3.33,3.32,3.59,7.13.79,9.87s-6.45,2.43-9.86-.93a122,122,0,0,0-30.72-22.33c-10.83-5.48-10.51-3-10.45-17.13.05-11.1,0-22.19,0-33.29,0-8.92,5-13.85,13.91-13.91S268.28,19.22,277.26,19.22Z"/><path class="cls-1" d="M236.4,330.8c0-6.86.08-13.73,0-20.59-.05-3.81,1.45-6.31,5-7.89a120.81,120.81,0,0,0,36.14-24.9c3.44-3.39,7.07-3.66,9.86-.93s2.45,6.68-1.05,10.16a130.51,130.51,0,0,1-34.21,24.51c-2.24,1.11-3,2.31-3,4.8q.21,16.1,0,32.18c0,2.44.68,3.18,3.14,3.17q26.76-.15,53.52,0a5,5,0,0,0,4.11-1.94,12.7,12.7,0,1,1,18.34,17.53,12.42,12.42,0,0,1-18.29-.84,5.61,5.61,0,0,0-4.82-2q-26.94.06-53.89,0c-10.14,0-14.81-4.73-14.83-14.9Q236.39,340,236.4,330.8Z"/><path class="cls-1" d="M104.3,32c-8.73,0-17.46,0-26.2,0a5.69,5.69,0,0,0-4.84,2A12.69,12.69,0,1,1,55.09,16.3a12.44,12.44,0,0,1,18.29,1,5.57,5.57,0,0,0,4.86,1.95q26.94-.06,53.89,0c10,0,14.69,4.73,14.71,14.62,0,9.48.07,19,0,28.44,0,2.28.53,2.82,2.71,2a101.65,101.65,0,0,1,14.77-4c3.81-.74,7.05,1.11,7.88,4.45.91,3.67-.95,6.92-4.95,7.87A178.42,178.42,0,0,0,143,80.26c-5,2-8.83-1.19-8.9-7.09-.1-8.23,0-16.47,0-24.7,0-4.12-.2-8.25.07-12.35.2-3.17-.56-4.32-4-4.21C121.52,32.2,112.91,32,104.3,32Z"/><path class="cls-1" d="M59.69,134.09c-4.74,0-9.47,0-14.21,0S36.67,134,32.72,138c-4.72,4.73-13,3-17.24-2.33a12.69,12.69,0,0,1,1.4-17.26c5.05-4.56,13-4.52,17.54.48a7.21,7.21,0,0,0,6.09,2.53c11-.11,22-.19,32.91,0,3.19.06,4.85-1.06,6.5-3.64a126.41,126.41,0,0,1,30.35-32.72c3.87-2.93,7.85-2.49,10,1,1.92,3,1.17,6.39-2.33,9.1A121.63,121.63,0,0,0,91,123.9c-7.69,11.55-4.06,10.1-19.32,10.18C67.67,134.11,63.68,134.09,59.69,134.09Z"/><path class="cls-1" d="M313.5,249.17c10.55,0,21.1,0,31.66,0,1.54,0,2.11-1.07,2.94-2,5.29-5.7,13.29-6,18.59-.78a12.68,12.68,0,1,1-18.55,17.26,5.24,5.24,0,0,0-4.53-1.79q-19.62,0-39.24,0c-7.66,0-10.38-4.53-6.72-11.21a120.12,120.12,0,0,0,12.46-33.05c.13-.61.31-1.21.49-1.8,1.14-3.76,4-5.59,7.65-4.83,3.39.72,5.46,4,4.72,7.7a131.22,131.22,0,0,1-8.26,26.3C314.18,246.25,313.25,247.38,313.5,249.17Z"/><path class="cls-1" d="M70.11,249.17c-1.83-4.77-3.56-9.14-5.18-13.54a106.14,106.14,0,0,1-4.58-16.52c-.79-4.05,1.1-7.32,4.62-8.07,3.73-.79,6.79,1.09,7.71,5.19a135,135,0,0,0,13.58,35.82c2.9,5.26-.28,9.83-6.61,9.86q-19.64.1-39.26,0c-2.33,0-4,.37-5.8,2.33a12.57,12.57,0,0,1-18.07.35,12.73,12.73,0,0,1,0-18.12,12.33,12.33,0,0,1,18,.29c1.84,2.05,3.67,2.48,6.14,2.46C50.37,249.13,60.05,249.17,70.11,249.17Z"/><path class="cls-1" d="M185.22,35.09c0-9.23-.06-18.45,0-27.68.05-4.94,3.25-8,7.35-7.32,3.5.58,5.4,3.18,5.42,7.78,0,12.85,0,25.69,0,38.53v4.11c0,7.34,0,7.25,7.51,7.89,4.09.34,8.17.94,12.21,1.66,3.86.68,6.12,3.67,5.69,7.09-.45,3.66-3.45,6.08-7.53,5.44a186.72,186.72,0,0,0-24.53-2.39c-4-.09-6.11-2.82-6.15-7.44C185.17,53.54,185.22,44.31,185.22,35.09Z"/><path class="cls-1" d="M191.4,242.67c-10.1,0-20.21,0-30.31,0-5.57,0-7.71-2.15-7.72-7.68q0-27.33,0-54.64c0-5.7,2.17-7.89,8-7.9q30.32-.08,60.63,0c5.77,0,7.91,2.22,7.92,8q0,27.14,0,54.27c0,6-2.09,8-8.17,8Q206.56,242.69,191.4,242.67Zm19.4-38.08a19.18,19.18,0,0,0-37.08-7.05A19,19,0,0,0,182,220.82c1.92,1.11,3.26,2.1,3.71,4.56.54,3,2.94,4.53,6.06,4.46s5.34-1.68,5.87-4.72c.38-2.15,1.47-3.09,3.21-4.06C207.4,217.41,210.5,211.61,210.8,204.59Z"/><path class="cls-1" d="M191.46,159.63c-5.36,0-10.72-.09-16.08,0-2.27.06-3.13-.67-3-3,.24-4.22-.26-8.47.38-12.69a19.09,19.09,0,0,1,37.72-.05c.67,4.47.19,9,.37,13.44.09,2.28-1.34,2.25-2.93,2.25C202.43,159.61,197,159.63,191.46,159.63Z"/><path class="cls-1" d="M191.55,210.75a6.33,6.33,0,0,1-6.23-6.51,6.31,6.31,0,0,1,12.61.15A6.33,6.33,0,0,1,191.55,210.75Z"/></g></g></svg>