<svg xmlns="http://www.w3.org/2000/svg" viewBox="0 0 192.07 190.44"><defs><style>.cls-1{fill:#fff;}</style></defs><title>Recurso 25</title><g id="Capa_2" data-name="Capa 2"><g id="Capa_1-2" data-name="Capa 1"><path class="cls-1" d="M95.91,190.34c-30,0-60-.08-90,.1-4.31,0-5.31-1.11-5.77-5.48-.91-8.77,1.48-15.19,9.6-19.08,12.32-5.91,16-15.43,14.86-29-1.34-16.22-.22-32.63-.37-48.95,0-3.79.92-5.43,5-5.11a102.06,102.06,0,0,0,14,0c3.49-.21,4.54.94,4.52,4.46-.15,20.49.1,41-.2,61.47-.08,5.11,1.31,6.63,6.39,6.39,10.95-.5,9.43,1.31,9.48-9.68.07-18.49,0-37,0-55.48,0-7.09,0-7.09,6.84-7.09,3.84,0,7.69.26,11.49-.07s5.1,1,5.06,4.94c-.19,20.32.09,40.65-.21,61-.08,5.09,1.3,6.56,6.39,6.43,12.11-.33,12.12-.08,12.12-12.06,0-18.5.08-37-.07-55.48,0-3.59.82-5.1,4.72-4.81a107.64,107.64,0,0,0,14.48,0c3.66-.23,4.43,1.24,4.41,4.59-.13,20.32-.07,40.64-.06,61,0,6.64,0,6.71,6.38,6.64,10.54-.11,9.27,1.47,9.31-9.24.07-19.33.11-38.65,0-58,0-3.93,1.14-5.29,5.1-5a101.91,101.91,0,0,0,14,0c3.66-.24,4.43,1.25,4.41,4.59-.12,20.83,0,41.65-.15,62.47,0,3.78,1.1,6.14,4.19,8.25,5.5,3.76,10.59,8.1,16.07,11.87,2.94,2,3.92,4.31,3.87,7.85-.21,12.47-.07,12.47-12.4,12.47Z"/><path class="cls-1" d="M96.06,70.54c-30.16,0-60.33-.08-90.49.1-4.22,0-4.94-1.3-5.35-5.29C-.7,56.6,2,51.48,10.28,47.06,38.06,32.33,65.28,16.5,92.65,1a6.28,6.28,0,0,1,6.94.1q44.58,25.16,89.25,50.15a4.94,4.94,0,0,1,2.88,5.19c-.26,4.47,1.39,10.25-.83,13.08-2.36,3-8.41,1-12.84,1C150.72,70.59,123.39,70.54,96.06,70.54Zm12.08-29.71c0-7.46-4.61-12.22-11.93-12.29-7.49-.07-12.5,4.93-12.44,12.42A12,12,0,0,0,96.08,53.11C103.15,53.09,108.13,48,108.14,40.83Z"/></g></g></svg>