<svg xmlns="http://www.w3.org/2000/svg" viewBox="0 0 23.2 23.03"><defs><style>.cls-1{fill:#414671;}</style></defs><title>Recurso 1</title><g id="Capa_2" data-name="Capa 2"><g id="Capa_1-2" data-name="Capa 1"><path class="cls-1" d="M13.46,19.05c0-1.15,0-2.3,0-3.45,0-.42.1-.6.56-.57s1.13,0,1.69,0c.35,0,.53-.07.57-.46.11-.83.25-1.65.4-2.47.07-.38-.05-.54-.44-.54-.73,0-1.47,0-2.2,0-.42,0-.61-.1-.58-.55s0-.92,0-1.38c0-1.32.43-1.8,1.73-2l.25,0c1.39-.08,1.39-.08,1.39-1.5s0-1.46-1.48-1.62a7.27,7.27,0,0,0-2.55.12,3.93,3.93,0,0,0-3,3.6c-.06.89-.05,1.79,0,2.69,0,.47-.1.69-.62.65s-1.26,0-1.88,0c-.34,0-.49.12-.48.48,0,.85,0,1.71,0,2.57,0,.34.13.43.44.42.69,0,1.38,0,2.07,0,.36,0,.47.13.47.47q0,3.54,0,7.08c0,.5-.27.49-.61.41-4.58-1.16-7.64-4-8.79-8.57A11.5,11.5,0,0,1,7.31.85a11.6,11.6,0,1,1,6.9,22.09c-.72.17-.75.16-.75-.57V19.05"/></g></g></svg>