<svg xmlns="http://www.w3.org/2000/svg" viewBox="0 0 22.99 23.01"><defs><style>.cls-1{fill:#414671;}</style></defs><title>Recurso 2</title><g id="Capa_2" data-name="Capa 2"><g id="Capa_1-2" data-name="Capa 1"><path class="cls-1" d="M23,11.63c0,1.69,0,3.45-.1,5.22A6.45,6.45,0,0,1,16.36,23q-4.83.09-9.68,0a6.45,6.45,0,0,1-6.6-6.38c-.07-3-.11-6,0-9,0-1.89.22-3.75,1.59-5.26A6.18,6.18,0,0,1,5.92.16a99.46,99.46,0,0,1,11.19,0,6.41,6.41,0,0,1,5.75,5.72c.17,1.9.09,3.79.13,5.76M11.47,21c1.56,0,3.12,0,4.67,0,1.87-.06,3.48-.64,4.33-2.49a7.94,7.94,0,0,0,.5-2.82c.09-1.6,0-3.2,0-4.8a34.93,34.93,0,0,0-.19-5A4,4,0,0,0,17.15,2.2a69,69,0,0,0-11.32,0A4,4,0,0,0,2.22,5.38,10.65,10.65,0,0,0,2,7.49c0,2.34,0,4.67,0,7a16,16,0,0,0,.22,3A4,4,0,0,0,5.44,20.8a32.85,32.85,0,0,0,6,.2"/><path class="cls-1" d="M17.33,11.55a5.87,5.87,0,1,1-5.81-5.89,5.89,5.89,0,0,1,5.81,5.89m-5.89,3.88a3.89,3.89,0,1,0,.07-7.78,3.89,3.89,0,1,0-.07,7.78"/><path class="cls-1" d="M17.64,4A1.3,1.3,0,0,1,19,5.32,1.33,1.33,0,0,1,17.66,6.7a1.37,1.37,0,0,1-1.35-1.36A1.36,1.36,0,0,1,17.64,4"/></g></g></svg>