<svg xmlns="http://www.w3.org/2000/svg" viewBox="0 0 189.95 190.23"><defs><style>.cls-1{fill:#00a7e1;}</style></defs><title>Recurso 8</title><g id="Capa_2" data-name="Capa 2"><g id="Capa_1-2" data-name="Capa 1"><path class="cls-1" d="M95.31,0A89.55,89.55,0,0,1,119,3c5.29,1.5,5.45,2,1.71,5.7-3.19,3.17-6.62,6.14-9.48,9.59-3.12,3.75-6.79,4.63-11.46,4.34-26.2-1.6-47.85,7.71-63.48,28.82-32.44,43.81-7.4,106.6,46,115.13C122.44,173,158,149,166.3,109.27c1.48-7.1,2.7-14.44.91-21.79a6.22,6.22,0,0,1,1.84-6.36q6.62-6.47,13.09-13.07c2.36-2.4,3.32-1.72,4.22,1.32,11.72,39.31-6.08,85.23-41.31,106.31-38.41,23-83.44,18.59-116.1-12.19C12.7,148.19,3.31,129,.68,106.53c-5-43,18.44-83.39,58.55-99.65A93.56,93.56,0,0,1,95.31,0Z"/><path class="cls-1" d="M94.37,148.19c-26.08-.55-47-18.26-51.58-43.89A52.75,52.75,0,0,1,75.65,45.55c8.72-3.38,17.88-3.8,27.06-3,5.91.51,9,8.29,5.14,12.84-4.54,5.3-9.17,9.57-17.47,9.55-13.63,0-25.65,13.66-26.24,27.4-.6,14.13,4.74,24.94,17.76,30.66,18.74,8.23,42.46-1.88,43.69-27,.39-7.85,6.11-11.15,11-15,3.39-2.64,10,1.27,10.6,5.43,4,29.47-13.3,54.22-42.42,60.52A102.24,102.24,0,0,1,94.37,148.19Z"/><path class="cls-1" d="M158.19,69.57c-4.93-.77-9.92-1.3-14.77-2.39-5.13-1.15-9.1-.39-13,3.69C121.19,80.67,111.37,90,102,99.64c-2.75,2.84-4.59,2.88-7.33.06-9.84-10.11-8.5-7.14-.28-15.75,8.63-9,17.59-17.76,26.52-26.5a7.27,7.27,0,0,0,2.32-7.53c-1.16-5.52-1.72-11.16-2.52-16.76a7.93,7.93,0,0,1,2.55-7.2c7.24-7.14,14.48-14.28,21.54-21.59,3-3.15,4.45-2.23,5.81,1.39,2.52,6.7,5.4,13.26,7.91,20a8.88,8.88,0,0,0,5.71,5.69c6.71,2.46,13.29,5.31,20,7.85,3.32,1.26,4.44,2.67,1.46,5.59-7.6,7.47-15.11,15-22.65,22.59C161.66,68.76,160.25,69.92,158.19,69.57Z"/></g></g></svg>