<svg xmlns="http://www.w3.org/2000/svg" viewBox="0 0 207.74 168.89"><defs><style>.cls-1{fill:#414671;}</style></defs><title>Recurso 1</title><g id="Capa_2" data-name="Capa 2"><g id="Capa_1-2" data-name="Capa 1"><path class="cls-1" d="M65.33,168.89c78.4,0,121.27-65,121.27-121.31,0-1.84,0-3.68-.12-5.51A86.83,86.83,0,0,0,207.74,20a84.86,84.86,0,0,1-24.48,6.71A42.76,42.76,0,0,0,202,3.12a85.26,85.26,0,0,1-27.07,10.35,42.67,42.67,0,0,0-72.63,38.88A121,121,0,0,1,14.46,7.81,42.69,42.69,0,0,0,27.65,64.73a42.28,42.28,0,0,1-19.3-5.34c0,.18,0,.36,0,.55a42.63,42.63,0,0,0,34.2,41.79,42.52,42.52,0,0,1-19.25.73A42.66,42.66,0,0,0,63.1,132.08a85.46,85.46,0,0,1-52.93,18.25A88.53,88.53,0,0,1,0,149.74a120.64,120.64,0,0,0,65.33,19.15"/></g></g></svg>