<svg xmlns="http://www.w3.org/2000/svg" viewBox="0 0 22.88 22.9"><defs><style>.cls-1{fill:#414671;}</style></defs><title>Recurso 3</title><g id="Capa_2" data-name="Capa 2"><g id="Capa_1-2" data-name="Capa 1"><path class="cls-1" d="M11.61,22.8a11,11,0,0,1-4.89-1A2.12,2.12,0,0,0,5,21.63c-1.4.41-2.82.76-4.24,1.11-.23.06-.52.28-.7.06s0-.47.1-.71c.38-1.43.76-2.87,1.17-4.3a1.79,1.79,0,0,0-.14-1.3c-2-4.37-1.6-8.54,1.4-12.3A11.35,11.35,0,0,1,20.06,4a11.29,11.29,0,0,1-5.18,18.27,8.1,8.1,0,0,1-1.53.36,8.87,8.87,0,0,1-1.74.19M11.48,1.88a9.63,9.63,0,0,0-2.72.35A9.5,9.5,0,0,0,3.05,16a2,2,0,0,1,.22,1.8c-.24.64-.35,1.33-.57,2s0,.62.51.48c.79-.23,1.6-.38,2.39-.63a1.39,1.39,0,0,1,1.16.16A9.48,9.48,0,0,0,13.2,20.8a9.69,9.69,0,0,0,7.87-10.11,9.78,9.78,0,0,0-9.59-8.81"/><path class="cls-1" d="M14.39,16.87A8.63,8.63,0,0,1,10.1,15.2a12.61,12.61,0,0,1-4-4.62,3.32,3.32,0,0,1,.39-3.91A1.21,1.21,0,0,1,8.63,7a12.9,12.9,0,0,0,.54,1.26A1.35,1.35,0,0,1,8.84,10a.7.7,0,0,0-.11,1,7.79,7.79,0,0,0,3.76,3.18c.45.21.68-.07.93-.35,1-1.1,1-1.1,2.32-.48a2.23,2.23,0,0,1,.48.26c.33.24.94.17.93.77a2.06,2.06,0,0,1-.78,1.75,3.07,3.07,0,0,1-2,.68"/></g></g></svg>