<?xml version="1.0" encoding="UTF-8"?>
<svg id="Capa_2" data-name="Capa 2" xmlns="http://www.w3.org/2000/svg" xmlns:xlink="http://www.w3.org/1999/xlink" viewBox="0 0 140.55 330.47">
  <defs>
    <style>
      .cls-1 {
        fill: url(#Degradado_sin_nombre_51-3);
      }

      .cls-2 {
        fill: #161d51;
      }

      .cls-3 {
        filter: url(#drop-shadow-1);
      }

      .cls-4 {
        fill: url(#Degradado_sin_nombre_51);
      }

      .cls-5 {
        opacity: .1;
      }

      .cls-6 {
        fill: url(#Degradado_sin_nombre_51-2);
      }
    </style>
    <filter id="drop-shadow-1" filterUnits="userSpaceOnUse">
      <feOffset dx="-5" dy="5"/>
      <feGaussianBlur result="blur" stdDeviation="5"/>
      <feFlood flood-color="#000" flood-opacity=".15"/>
      <feComposite in2="blur" operator="in"/>
      <feComposite in="SourceGraphic"/>
    </filter>
    <linearGradient id="Degradado_sin_nombre_51" data-name="Degradado sin nombre 51" x1="-36.13" y1="273.6" x2="109.22" y2="21.84" gradientUnits="userSpaceOnUse">
      <stop offset="0" stop-color="#b3b3b3"/>
      <stop offset="1" stop-color="#fff"/>
    </linearGradient>
    <linearGradient id="Degradado_sin_nombre_51-2" data-name="Degradado sin nombre 51" x1="37.32" y1="330.86" x2="47.02" y2="314.05" xlink:href="#Degradado_sin_nombre_51"/>
    <linearGradient id="Degradado_sin_nombre_51-3" data-name="Degradado sin nombre 51" x1="58.78" y1="328.71" x2="60.76" y2="325.29" xlink:href="#Degradado_sin_nombre_51"/>
  </defs>
  <g id="Capa_1-2" data-name="Capa 1">
    <g class="cls-3">
      <path class="cls-4" d="M68.57,188.92c1.01-.14,1.45-1.43,1.24-2.42-.21-1-.81-1.88-1.04-2.87-.63-2.81,1.9-5.44,1.83-8.31-.06-2.3-1.78-4.26-2.1-6.54,8.08,2.08,16.56-.28,24.56-2.62,2.56-.75,5.17-1.52,7.39-3.01,2.64-1.76,4.55-4.41,6.27-7.08,2.05-3.17,3.99-6.85,3.18-10.54-.11-.48-.27-.97-.6-1.35-.5-.56-1.28-.76-1.9-1.18-2.01-1.32-1.87-4.44-.63-6.5,.42-.69,.95-1.44,.78-2.23-.09-.41-.35-.75-.62-1.06-1.27-1.5-2.78-2.81-4.45-3.84-1.16-.72-2.4-1.32-3.4-2.24s-1.73-2.29-1.47-3.62c.14-.74,.69-1.39,1.35-1.73l.65-1.5c-.35-.72-.39-1.55-.43-2.35-.13-3.03-.22-6.23,1.22-8.9l.38-2.24c.63-1.89,.92-3.89,.85-5.88-.02-.57-.07-1.15,.08-1.71,.11-.41,.32-.79,.5-1.18,.24-.53,.42-1.09,.6-1.65,.68-2.12,1.36-4.27,1.47-6.49,.06-1.29-.07-2.59,.23-3.85,.45-1.93,1.84-3.48,3.18-4.95,3.08-3.37,6.17-6.74,9.25-10.11,1.54-1.69,3.09-3.38,4.73-4.97,4.75-4.61,10.27-8.36,15.93-11.78,.82-.49,1.67-1,2.24-1.77s.81-1.87,.3-2.69l.24-2.02c.56-2.66-.55-5.36-1.64-7.85-.24-.54-.49-1.11-.93-1.5-1.5-1.32-3.9,.05-5.81-.5,.47,3.47,.83,7.36-1.32,10.13-1.92,2.48-5.42,3.39-7.18,5.98-.49,.73-.98,1.67-1.86,1.72-.39,.02-.75-.14-1.12-.26-1.64-.51-3.56,.06-4.66,1.38-.95-.82-2.56-.72-3.39,.22-4.44-2.53-9.63-3.7-14.72-3.32,.71-1.43,2.07-2.44,2.87-3.82,.62-1.07,.87-2.31,1.27-3.48,1.35-4,4.36-7.21,6.09-11.06,.16-.35,.3-.72,.26-1.09-.09-.74-.85-1.19-1.53-1.51-5.44-2.59-10.88-5.17-16.31-7.76-3.47-1.65-6.96-3.31-10.16-5.44-5-3.33-9.24-7.79-12.31-12.95l-2.12-1.55c-2.06-2.37-5.66-3.27-8.58-2.13-.56,.22-1.2,.49-1.71,.19-.24-.14-.4-.38-.63-.53-.45-.29-1.07-.14-1.48,.19s-.67,.82-.91,1.3c-.84,1.64-1.69,3.29-2.53,4.93-2-1.22-1.87-4.5-3.88-5.71-.87-.53-1.94-.53-2.96-.55-2.41-.04-4.93-.31-6.98-1.58-1.03-.64-2.01-1.55-3.37-1.12-.06,.02-.12,.06-.15,.11-1.07,1.3-.26,1.74-.26,2.28,0,1.25-.21,1.29-.85,1.83-1.62,1.36-3.25,2.73-4.84,4.12-.28,.25-.58,.52-.67,.88-.1,.38,.05,.78,.18,1.16,1.21,3.48,.97,7.44-.63,10.76-.77,1.59-1.89,3.07-3.46,3.89-1.59,.82-3.48,.88-5.1,1.65-.28,.13-.57,.31-.7,.59-.18,.4,.03,.86-.01,1.29-.07,.71-.79,1.21-.91,1.91-.11,.69,.38,1.32,.68,1.95s.27,1.61-.4,1.8l-.41,2.57c-.25,2.25,1.25,4.37,1.18,6.63-.07,2.09-1.42,4.37-.25,6.09,.54,.79,1.52,1.23,1.66,2.37,0,.01,0,.03,0,.05-.35,1.8-2.4,.58-3.67,1.16-.73,.34-1.02,1.19-1.25,1.96-.57,1.95-1.14,3.9-1.71,5.85-.3,1.04-.61,2.07-1.05,3.06-.62,1.38-1.49,2.64-1.98,4.06-.5,1.47-.56,3.05-.85,4.58-.59,3.09-2.14,6.25-1.13,9.23,.23,.68,.6,1.33,1.17,1.76,.15,.11,.32,.22,.41,.38,.13,.23,.09,.51,0,.76-.32,.88-1.23,1.5-2.17,1.49-.28,0-.57-.06-.84,.03-.56,.19-.74,.91-.66,1.5s.32,1.17,.23,1.76c-.07,.5-.37,.93-.51,1.42-.27,.94,.07,1.98-.23,2.91-.16,.5-.5,.92-.76,1.38-.75,1.32-.85,2.99-.25,4.38s1.88,2.47,3.36,2.83c-.91,.76-1.61,1.75-2.03,2.86l.98,1.82c.83,.82,1.18,2,1.51,3.12,.44,1.52,.88,3.05,1.32,4.57,.15,.51,.38,1.11,.89,1.25,.74,.2,1.66-.69,2.08,.7-.65,1.74-.9,3.62-.73,5.46,.12,1.24,.35,2.7-.56,3.56-.39,.37-.98,.6-1.15,1.11-.24,.74,.54,1.7-.02,2.24-.23,.22-.57,.24-.87,.34-.92,.3-1.36,1.36-1.42,2.32s.16,1.93,.04,2.89c-.08,.64-.31,1.26-.27,1.9,.07,1.04,.84,1.89,1.24,2.85,.52,1.28,.36,2.71,.35,4.09-.01,1.38,.19,2.9,1.21,3.83l-.63,1.85c-2.4,1.85-4.66,4.39-4.69,7.42-.01,1.38,.45,2.73,.7,4.06l.63,2.71c.42,1.4,.58,3,1.38,4.28,.32,.52,.75,1,.86,1.6,.2,1.02-.57,1.97-1.37,2.63s-1.74,1.28-2.08,2.26c-.36,1.01,.01,2.13,.03,3.2,.02,1.24-.46,2.47-1.3,3.38-.2,.22-.43,.42-.57,.68-.15,.29-.19,.63-.17,.95,.1,1.2,1.03,2.33,.72,3.49-.23,.86-1.1,1.57-.92,2.44,.08,.37,.35,.68,.46,1.05,.16,.53-.05,1.1-.2,1.63-.46,1.67-.35,3.49,.32,5.09l.09,2.54c.36,1.79,.72,3.58,1.08,5.37,.06,.28,.11,.57,.06,.84-.16,.83-1.13,1.17-1.83,1.64-.96,.65-1.48,2.21-.57,2.92,.16,.13,.35,.21,.49,.37,.29,.34,.2,.86,.14,1.3-.22,1.6,.29,3.29,1.36,4.5,.72,.81,1.74,1.58,1.71,2.66-.02,.7-.49,1.42-.19,2.05,.16,.34,.5,.55,.72,.85,.26,.36,.33,.81,.39,1.25,.23,1.75,.34,3.52,.33,5.28,0,.66,0,1.42,1.43,1.41,.14,0,.28-.05,.41-.11,1.23-.56,3.12,.24,2.86,1.87,0,.04-.02,.09-.05,.13-.92,1.44-1.51,.78-2.19,.73-.93-.07-1.7,.98-2.62,.84-.58-.09-1.19-.64-1.63,.51,.85,1.36,2.31,1.26,3.62,1.52,.98,.2,2.04,.8,2.13,1.79,.05,.54-.22,1.06-.47,1.54-.35,.65-.7,1.31-1.05,1.96-.29,.53-.58,1.12-.46,1.72,.21,1.06,1.66,1.7,1.51,2.77-.12,.84-1.24,1.46-.98,2.28,.1,.32,.4,.53,.65,.76,1.16,1.06,1.35,3.02,.41,4.28-.38,.51-.92,.95-1,1.57-.11,.88,.77,1.8,.32,2.56l-1.42,2.9c-1.23,2.17-1.46,4.89-.63,7.24,.18,.52,.42,1.03,.5,1.57,.09,.63-.03,1.27-.15,1.89-.32,1.69-.68,3.45-1.73,4.81-.24,.31-.52,.61-.61,1-.24,1.11,1.19,1.75,2.3,1.96-1.01,.05-2.01,.1-3.02,.15-.59,.03-1.29,.14-1.52,.68-.11,.27-.07,.57-.02,.85l2.02,12.78c.03,.18,.09,.36,.21,.51,2.18,2.92,4.65-2,7.06-1.05-.26,2.53-.16,5.1,.28,7.61,.2,1.14,.52,2.36,1.41,3.11,.5,.42,1.12,.66,1.75,.84,6.92,2.06,15.02-.91,21.29,2.67-2.92-5.21-5.91-10.74-5.81-16.7,.01-.71,.08-1.44,.4-2.08,.34-.65,.92-1.13,1.5-1.57,2.3-1.72,5.05-3.32,5.89-6.07,.88-2.89-.68-6.28,.76-8.95,.7-1.31,2.01-2.17,3.16-3.12,3.84-3.16,6.42-8.19,5.63-13.1-.07-.41-.16-.84-.43-1.15-.25-.3-.62-.47-.98-.6-1.36-.52-2.84-.73-4.3-.63-.44,.03-.93,.08-1.3-.17-.41-.28-.52-.82-.7-1.29-.59-1.61-2.14-2.63-3.33-3.87s-2.06-3.23-1.04-4.62l1.45-3.06c-.36-1.65,.49-3.5,1.99-4.29,.78-.41,1.73-.58,2.33-1.23,.28-.3,.46-.68,.74-.97,.6-.61,1.54-.71,2.4-.68s1.74,.16,2.55-.12,1.5-1.17,1.2-1.97c-.09-.24-.26-.45-.36-.69-.31-.69-.03-1.51,.38-2.14s.95-1.19,1.26-1.88c.81-1.83-.23-3.92-.29-5.92-.05-1.88,.8-3.7,2.04-5.1,1.24-1.4,2.86-2.43,4.53-3.28-1.35-.31-2.67-.79-3.91-1.42-.22-.11-.46-.25-.55-.48-.22-.56,.59-1.22,.52-1.45-.08-.28-.07-.57,.19-.71,4.53-2.45,2.94,3.75,6.74,3.02,.12-.02,.25-.06,.36-.12,1.52-.76,1.88-2.47,1.58-3.95-.22-1.1-.76-2.12-1.3-3.11-.14-.27-.31-.55-.6-.64-.24-.07-.49,.02-.72,.11-1.02,.39-2.05,.79-3.07,1.18,.49,.07,1,.16,1.38,.48s.53,.95,.18,1.3c-.18,.18-.44,.24-.68,.28-.89,.16-1.81,.2-2.71,.12-1.15-1.17,.92-1.47,.6-2.24-1.35,.34-2.83-.38-3.63-1.52s-1-2.62-.83-4c.12-.96,.42-1.91,.36-2.88-.1-1.68-1.26-3.19-.59-5.03,.04-.1,.1-.2,.17-.29,1.29-1.54,2.9-.42,4.18,.44,2.77,1.88,6.18,2.83,9.53,2.63,1.42-.08,2.95-.43,3.82-1.56l1.87-1.41Z"/>
      <path class="cls-6" d="M34.67,308.58c-.09,1.63,.05,3.25,.18,4.88,.46,5.51,.92,11.03,1.38,16.54,.01,.13,.04,.29,.16,.33,.08,.03,.17-.01,.25-.05,1.19-.53,2.53-.52,3.83-.51,1.76,.02,3.51,.04,5.27,.06,.6,0,1.21,.02,1.76,.24,.43,.18,.86,.49,1.31,.38,.5-.11,.78-.68,1.26-.85,.35-.13,.82-.06,1.03-.37,.07-.1,.09-.23,.17-.31,.14-.16,.4-.13,.58-.04s.34,.25,.52,.35c.7,.38,1.56-.2,1.92-.91s.4-1.53,.72-2.26c-1.31-.38-2.71,.3-4.08,.17-1.17-.11-2.21-.8-3.07-1.61s-1.59-1.74-2.49-2.5c-1.29-1.09-2.86-1.77-4.26-2.71-1.4-.94-2.7-2.27-2.93-3.94-.05-.35-.06-.74-.3-1-.53-.58-1.75-.08-2.14-.76-.22-.39,.04-.9,.38-1.19,.87-.75,2.31-.89,.21-4.63l-.54-.12-1.13,.81Z"/>
      <path class="cls-1" d="M58.12,328.25c-.24-.06-.47-.18-.66-.35-.06-.05-.11-.11-.13-.18-.01-.06,0-.12,.01-.18,.04-.18,.1-.38,.24-.5,.21-.17,.52-.09,.78-.13,.63-.09,1.01-.78,1.62-.95,.27-.07,.55-.04,.82-.06h.38c.24,0,.5-.02,.73,.07,.17,.07,.32,.21,.34,.39,.02,.22-.18,.42-.39,.49s-.45,.06-.67,.07c-.68,.03-1.35,.32-1.83,.8l-1.24,.52Z"/>
    </g>
    <g class="cls-5">
      <g>
        <path class="cls-2" d="M25.93,20.48c1.02,1.07,2.02,2.17,3.07,3.22,.64,.64,1.41,1.36,2.35,1.48,1.91,.24,2.18-1.82,2.21-3.22,.02-.77,.04-1.52,.13-2.29,.07-.64,.06-1.6,.36-2.18,.25-.49,.37-.87,1.07-.47,.32,.18,.54,.68,.7,1,.4,.78,.38,1.59,.55,2.42,.17,.89,.58,1.36,1.27,1.92,1.03,.83,1.43,1.79,2.19,2.82,1.17,1.59,3.63,1.72,5.45,1.87,2.27,.19,4.44-.35,5.94-2.16,1.41-1.7,2.03-4.02,1.79-6.21-.07-.65-.16-1.8-.7-2.27-.71-.62-1.9,0-2.69,.06-1.62,.12-4.1-.34-4.94-1.93-.58-1.1-.63-2.33-1.32-3.43-.85-1.34-1.85-2.5-1.95-4.16s.47-3.11,1.56-4.27c.27-.28-.16-.71-.42-.42-1.28,1.35-1.93,3.18-1.71,5.04,.27,2.26,2.13,3.67,2.77,5.76,.25,.81,.33,1.62,.89,2.28,.61,.72,1.55,1.14,2.43,1.41,1,.31,2.06,.4,3.09,.27,.62-.08,1.06-.34,1.64-.04,.74,.39,.76,1.49,.79,2.29,.12,2.78-1.31,6.01-4.13,6.92-1.34,.43-2.81,.33-4.18,.12-1.21-.19-2.78-.3-3.65-1.25-.63-.69-.9-1.64-1.52-2.34-.36-.4-.8-.65-1.19-1.01-.79-.72-.8-1.49-.95-2.44s-1.07-3.48-2.41-3.38c-.77,.06-.89,1.07-1.01,1.64-.28,1.37-.43,2.77-.46,4.17-.01,.64,.04,1.37-.21,1.96-.63,1.45-2.07,.74-2.93-.02-1.23-1.11-2.33-2.41-3.47-3.61-.27-.28-.69,.14-.42,.42h0Z"/>
        <path class="cls-2" d="M15.93,34.45c3.31,.97,6.74,1.51,10.19,1.54,.93,0,1.86-.03,2.8-.08s1.98-.21,2.69,.48c1.54,1.5-1.42,1.77-1.73,3.03-.27,1.09,.72,2.44,1.21,3.32,.45,.82,.93,1.62,1.45,2.39,.25,.38,.53,.9,1,1.05,.7,.22,1.17-.38,1.42-.96,.08-.19,.1-.49,.2-.66,.66-1.05,1.2-.48,1.83-.12,.8,.46,1.59,.92,2.39,1.38,.18,.1,.38,0,.44-.18,.32-.92,.33-1.76,.04-2.69l-.21,.37c3.33-.77,6.18,2.14,9.49,1.73,1.78-.22,1.28-1.29,1.56-2.78,.19-1.04,.45-2.41,1.46-2.85,1.08-.47,2.49-.26,3.67-.27,.84,0,1.81,.1,2.61-.2,.72-.27,1.19-.88,1.67-1.45,1.24-1.47,2.34-3.06,3.35-4.69,1.08-1.75,2.06-3.55,3.03-5.36,.92-1.72,1.56-3.11,1.57-5.09,.04-5.21-.02-10.42-.03-15.64,0-.39-.6-.39-.6,0,0,4.39,.02,8.78,.03,13.17,0,.98,.03,1.96,0,2.94-.04,1.32-.47,2.4-1.07,3.54-.89,1.68-1.79,3.37-2.76,5.01-1.03,1.74-2.13,3.44-3.39,5.02-.75,.95-1.51,2.04-2.82,2.13-1.08,.08-2.19,.03-3.28,.04-1.28,.01-2.51-.23-3.19,1.05-.34,.64-.58,1.37-.74,2.07-.15,.63-.02,2.28-.55,2.65-.71,.5-2.3,.05-3.06-.17-.87-.25-1.7-.59-2.55-.89-1.49-.53-2.99-.91-4.56-.55-.15,.04-.26,.22-.21,.37,.25,.83,.24,1.55-.04,2.37l.44-.18c-.8-.46-1.59-.92-2.39-1.38-.41-.24-.97-.7-1.48-.71-1.22-.02-.93,1.39-1.5,1.99-.88,.92-1.95-1.47-2.24-1.96-.47-.8-.95-1.62-1.32-2.47s-.16-1.59,.66-1.96c.2-.09,.45-.17,.63-.3,.3-.22,.53-.49,.62-.86,.19-.8-.34-1.64-1.02-2.03-1.18-.68-2.84-.28-4.12-.24-3.87,.12-7.72-.41-11.43-1.5-.37-.11-.53,.47-.16,.58h0Z"/>
        <path class="cls-2" d="M35.81,44.04c.08,1.28-.08,2.52-.48,3.74-.04,.12,.03,.28,.14,.34,1.03,.54,3.08,.39,2.98,2-.09,1.3-1.32,2.19-1.51,3.48-.05,.35-.04,.76,.19,1.05,.42,.52,1.06,.39,1.32,1.14,.19,.57,.15,1.21,.23,1.8,.09,.66,.24,1.31,.46,1.95,.11,.33,.23,.77,.56,.94,.2,.1,.41,.03,.62,.05,.39,.03,.68,.22,1.01,.41,.81,.46,1.38,.49,2.1-.12,.63-.53,1.06-.36,1.8-.4,.35-.02,.68-.11,.91-.38,.35-.4,.38-.99,.44-1.5,.1-.94,.08-1.88,.23-2.82,.27-1.7,.83-3.37,1.27-5.03,.49-1.84,.99-3.69,1.48-5.53,.1-.37-.48-.53-.58-.16-.78,2.92-1.57,5.84-2.34,8.76-.35,1.33-.51,2.61-.59,3.97-.05,.77,.04,1.97-.92,2.09-.47,.06-.93-.12-1.39,.06-.4,.15-.62,.52-1,.7-.64,.31-1.13-.25-1.7-.49s-1.03-.18-1.36-.84-.39-1.54-.45-2.23c-.07-.77-.08-1.71-.72-2.26-.45-.39-1.11-.44-.93-1.24,.15-.67,.61-1.23,.95-1.81,.48-.83,.85-1.97,.21-2.82-.69-.92-2.01-.77-2.95-1.27l.14,.34c.42-1.27,.59-2.56,.51-3.9-.02-.38-.62-.39-.6,0h0Z"/>
        <path class="cls-2" d="M59.56,38.24l7.15-.13,3.2-.06,1.73-.03c.9-.02,1.13,.12,1.32,.97,.96,4.47,.42,9.07,.06,13.57s-.22,9.31-.48,13.96-1.24,9.43-2.36,14.05c-.22,.93-.38,3.23-1.42,3.41-.21,.04-.49-.02-.7-.03-.72-.03-.84,.06-1.36-.49-.59-.63-.26-.73-.17-1.48,.06-.51,0-.95-.41-1.31-.34-.3-2.87-.83-2.31-1.55,.13-.16,.11-.45-.13-.5-2.86-.61-5.73-1.16-8.62-1.64-1.44-.24-2.89-.46-4.33-.67-.58-.08-1.2-.1-1.77-.24-.53-.13-1.19-.48-1.42-.96-.14-.28-.15-.8-.21-1.1-.24-1.18-.5-2.35-.96-3.47-.53-1.28-1.19-2.38-1.32-3.79-.2-2.14,.27-4.31-.87-6.27-.19-.33-.71-.03-.52,.3,1.32,2.26,.35,4.93,1.01,7.36,.36,1.34,1.17,2.51,1.57,3.85,.36,1.21,.34,2.73,.87,3.86,.41,.89,1.69,.78,2.5,.9,1.53,.21,3.06,.44,4.58,.69,3.13,.51,6.24,1.1,9.34,1.76l-.13-.5c-.34,.44-.35,.84-.02,1.31,.49,.7,1.22,.45,1.83,.86,.39,.26,.69,.99,.67,1.4-.01,.19-.12,.4-.16,.59-.05,.28-.1,.54-.01,.82,.18,.59,.7,.76,1.26,.82,.62,.07,2.04,.36,2.63,0,.68-.42,.72-1.9,.89-2.58,.7-2.84,1.37-5.68,1.87-8.56,.97-5.58,.83-11.15,1.04-16.79s1.22-10.78,.46-16.15c-.1-.73-.11-2.36-.79-2.87-.31-.23-.81-.14-1.15-.14-.82,0-1.64,.03-2.46,.04l-9.86,.17c-.39,0-.39,.61,0,.6h0Z"/>
        <path class="cls-2" d="M11.92,61.01c1.09-.19,2.33-.59,3.43-.59s1.02,.43,1.44,1.15c.19,.33,.4,.67,.65,.97,.43,.51,.95,.86,1.58,1.06,.42,.13,.87,.13,1.29,.25,.81,.23,1.08,.62,1.54,1.22,1.04,1.36,2.12,.92,3.66,1.11,.6,.07,1.22,.17,1.79-.09,.92-.43,1.13-1.66,2.37-1.46,.93,.15,1.88,.4,2.79,.66,1.51,.42,2,1.29,2.14,2.78,.05,.59,.06,1.22,.34,1.76,.38,.75,1.12,.99,1.8,1.42,1.67,1.05,3.19,3,4.12,4.73,.51,.94,.64,1.99,.99,2.99s.82,1.91,1.36,2.78c.71,1.15,2.05,1.44,3.1,.44,1.54-1.47,.03-4.5,1.73-5.62,.32-.21,.02-.73-.3-.52-1.15,.75-1.09,2.08-1.12,3.32-.03,1.33-1.13,4.34-2.89,2.08-.69-.88-1.19-2.17-1.49-3.23-.52-1.83-1.17-3.14-2.34-4.66-.49-.64-1-1.27-1.58-1.83-.65-.62-1.39-.97-2.12-1.46-1.61-1.1-.49-3.28-1.75-4.61-1.03-1.09-3.06-1.29-4.45-1.57-.53-.1-1.12-.2-1.62,.04-.92,.44-.68,1.43-1.99,1.54-.39,.03-.82-.09-1.21-.13-.45-.04-.87,.04-1.31,.02-1.24-.05-1.41-.96-2.18-1.67-.66-.61-1.48-.6-2.31-.82-1.35-.36-1.86-1.48-2.5-2.6-.3-.53-.51-.75-1.15-.7-1.31,.1-2.67,.46-3.96,.68-.38,.07-.22,.64,.16,.58h0Z"/>
        <path class="cls-2" d="M8.68,66.93c.97,.86,1.91,1.76,2.78,2.72,1.01,1.11,2.29,2.35,2.65,3.85,.34,1.4-.56,4.54,.95,5.48,.75,.47,2.12,.12,2.97,.26,1.66,.28,2.57,1.34,3.59,2.57,1.48,1.79,2.88,3.91,4.76,5.32,1.22,.91,2.08,1.54,2.55,3.05,.41,1.29,.71,2.62,1.06,3.93,.58,2.17,.93,4.9,2.62,6.53,.54,.52,1.21,.94,1.95,1.08,1.06,.21,1.46-.53,2.46-.64,.92-.1,1.73,.56,2.68,.23,.68-.23,1.15-.81,1.4-1.47,.42-1.1,.28-2.42,.28-3.57,0-1.65-.03-3.3,.07-4.95,.17-3.09,.78-6.15,2.44-8.81,.2-.33-.31-.63-.52-.3-2.49,4-2.61,8.74-2.59,13.32,0,1.2,.17,2.57-.12,3.74-.26,1.04-1.04,1.68-2.15,1.5-.44-.07-.86-.22-1.31-.26-.93-.08-1.66,.74-2.51,.61-1.57-.23-2.52-1.84-3-3.19-.84-2.33-1.32-4.8-1.97-7.19-.22-.81-.45-1.64-.92-2.34-.6-.9-1.56-1.33-2.38-2-1.74-1.43-3.09-3.46-4.52-5.2s-2.64-2.59-4.85-2.67c-.88-.03-1.73,0-2.1-.94-.24-.62-.13-1.5-.12-2.16,.01-1.01,0-2.02-.44-2.95-1.09-2.31-3.41-4.33-5.28-5.98-.29-.25-.71,.17-.42,.42h0Z"/>
        <path class="cls-2" d="M67.93,23c1.91,.49,3.56,1.49,5.15,2.6s3.31,2.3,4.78,3.67c2.4,2.24,4.06,5.03,6.82,6.9,1.69,1.15,2.91,2.39,4.11,4.03,.91,1.24,1.72,2.26,3.14,2.93,3.36,1.58,6.05,3.93,8.74,6.44,.28,.26,.71-.16,.42-.42-2.59-2.42-5.23-4.84-8.46-6.36-.91-.43-1.71-.85-2.37-1.64-.62-.73-1.14-1.54-1.73-2.3-1.02-1.32-2.18-2.27-3.55-3.2-3.07-2.08-4.88-5.37-7.72-7.71-2.68-2.21-5.75-4.65-9.17-5.53-.37-.1-.53,.48-.16,.58h0Z"/>
        <path class="cls-2" d="M73.15,61.66h16.91c1.33,0,2.65,0,3.98,0,.65,0,2.08,.31,2.65-.19,.5-.44,.32-1.55,.35-2.11,.07-1.25-.24-4.32,1.67-4.34,.39,0,.39-.61,0-.6-1.81,.02-2.09,1.88-2.17,3.32-.04,.7-.08,1.39-.12,2.09-.05,.93-.13,1.23-1.13,1.23h-4.48c-5.89,0-11.77,0-17.66,0-.39,0-.39,.6,0,.6h0Z"/>
        <path class="cls-2" d="M120.48,55.29c-.97,.98-.81,2.43-.27,3.58,.33,.71,.77,1.36,1.19,2.02,.46,.73,.94,1.45,1.42,2.17,.21,.32,.73,.02,.52-.3-.79-1.18-1.59-2.36-2.3-3.6-.58-1.02-1.09-2.47-.13-3.44,.27-.28-.15-.7-.42-.42h0Z"/>
        <path class="cls-2" d="M95.86,61.44c-1.06,1.43-1.79,3.06-2.06,4.83-.26,1.66,.06,3.61-.9,5.08-.53,.82-1.43,1.28-2.06,2.02-.4,.47-.69,1.01-.9,1.59-.42,1.16-.83,3.22-.45,4.42,.07,.21,.18,.32,.29,.51,.35,.58,.52,.88,.49,1.59-.02,.63-.33,1.48,.02,2.08,.54,.92,2.26,.56,3.12,.54,1.84-.04,3.65-.22,5.41-.77,1.48-.46,2.73-.65,3.73,.82,.64,.94,.8,2.12,.97,3.21,.06,.38,.64,.22,.58-.16-.24-1.51-.54-3.16-1.79-4.19-1.17-.96-2.33-.67-3.65-.26-2,.62-4.07,.74-6.16,.76-.36,0-1.11,.15-1.4-.04-.49-.32-.35-.82-.31-1.27,.06-.66,.19-1.33-.06-1.97-.3-.77-.73-1.25-.69-2.16s.11-1.75,.35-2.6c.31-1.06,.89-1.8,1.72-2.5,.58-.49,1.11-.96,1.47-1.64,.67-1.29,.57-2.81,.7-4.21,.19-1.98,.9-3.78,2.08-5.38,.23-.31-.29-.61-.52-.3h0Z"/>
        <path class="cls-2" d="M89.9,84.02c-.6,4.26-2.43,8.28-5.35,11.45-1.21,1.31-2.78,2.45-3.32,4.23s-.43,4.21-.26,6.12c.77,8.72,10.55,12.52,17.68,14.85,.37,.12,.53-.46,.16-.58-3.93-1.28-7.9-2.69-11.28-5.14-1.75-1.27-3.37-2.83-4.52-4.67s-1.5-3.98-1.51-6.18-.08-4.42,1.46-6.17c1.15-1.3,2.44-2.42,3.48-3.82,2.16-2.92,3.53-6.34,4.04-9.93,.05-.38-.52-.54-.58-.16h0Z"/>
        <path class="cls-2" d="M84.32,112.66l-2.86,3.48h.42c-3.23-2.62-5.76,2.75-7,4.85-.28,.47-.53,1-.85,1.44-.59,.81-1,1.07-1.95,1.11-1.31,.06-2.64-.01-3.95-.02-2.63-.01-5.26-.03-7.89-.04-.16,0-.3,.14-.3,.3,.04,1.31,.07,2.63,.11,3.94,.02,.55,.3,1.59-.23,1.94-.35,.23-1.56,.04-1.99,.05-2.9,.07-5.81,.14-8.71,.21-.66,.02-1.33,.03-1.99,.05-.29,0-.94-.08-1.2,.14-.47,.4-.23,1.31-.22,1.83,.03,2.9,.06,5.81,.1,8.71,0,.39,.6,.39,.6,0-.03-2.82-.06-5.64-.09-8.46,0-.35-.14-.93-.01-1.24-.08-.25,.01-.35,.29-.31,.18-.06,.36-.08,.54-.07,.66-.05,1.33-.03,1.99-.05,1.49-.04,2.99-.07,4.48-.11,1.41-.03,2.82-.07,4.23-.1,.67-.02,2.09,.26,2.64-.25,.49-.45,.21-1.54,.19-2.11-.04-1.39-.08-2.78-.12-4.18l-.3,.3c2.3,.01,4.61,.02,6.91,.04,1.15,0,2.3,.01,3.45,.02,.86,0,1.91,.17,2.74-.16,.53-.22,.83-.62,1.13-1.09,.58-.92,1.11-1.88,1.67-2.82,.95-1.61,2.92-5.44,5.33-3.49,.12,.09,.31,.14,.42,0l2.86-3.48c.24-.3-.18-.72-.42-.42h0Z"/>
        <path class="cls-2" d="M69.62,84.82c.87,.66,1.71,1.5,2.2,2.49,.69,1.38,.07,2.2-.49,3.41-.74,1.61-1.38,3.27-1.85,4.98-.21,.76-.39,1.56-.33,2.35,.07,.99,.57,1.74,.35,2.77-.12,.55-.36,.73-.17,1.32,.25,.76,1,1.45,1.42,2.1,1.12,1.75,2.18,4.15,1.52,6.24-.56,1.79-2.13,3.09-3.32,4.47-2.24,2.61-3.98,5.58-5.25,8.77-.14,.36,.44,.51,.58,.16,1.58-3.96,3.95-7.13,6.73-10.31,1.01-1.15,1.94-2.44,2.05-4.02,.14-1.88-.71-3.86-1.68-5.42-.68-1.1-1.6-1.75-1.27-3.17,.15-.65,.21-.96-.02-1.64-.76-2.18,.18-4.42,.99-6.47,.43-1.11,.96-2.15,1.46-3.22,.26-.57,.4-1.05,.23-1.67-.4-1.47-1.68-2.76-2.85-3.65-.31-.23-.61,.29-.3,.52h0Z"/>
        <path class="cls-2" d="M40.98,100.4c1.19,.68,2.23,1.54,3.08,2.62,.5,.63,.8,1.43,1.5,1.82,.45,.25,.99,.21,1.19,.87,.09,.28,.04,.65,.04,.94,0,.87-.05,1.75-.2,2.61-.24,1.35-.91,2.44-1.32,3.72-.35,1.08-.2,2.27-.17,3.38,.04,1.56,.09,3.11,.14,4.67,.11,3.2,.26,6.39,.43,9.58,.02,.38,.62,.39,.6,0-.19-3.44-.34-6.88-.46-10.32-.06-1.8-.13-3.61-.15-5.41-.02-1.59,.74-2.71,1.19-4.16,.43-1.38,.56-2.85,.54-4.29-.01-.7-.02-1.68-.72-2.06-.12-.07-.25-.08-.38-.11-.58-.17-.67-.1-1.08-.64-.32-.42-.6-.88-.94-1.29-.85-.99-1.86-1.79-2.99-2.44-.34-.19-.64,.33-.3,.52h0Z"/>
        <path class="cls-2" d="M32.94,100.16c-1.71-.02-3.43-.03-5.14,0-.12,0-.27,.09-.29,.22-.31,1.71-.26,3.44,.27,5.1,.56,1.74,1.55,3.28,1.93,5.09,.63,3.07,.29,6.65,2.48,9.19,.44,.51,1.12,.86,1.5,1.41,.75,1.07-.17,2.13-.13,3.23,.06,1.61,1.08,3.21,1.49,4.75,1.05,3.92,.93,8.03-.23,11.91-.11,.37,.47,.53,.58,.16,1.11-3.69,1.28-7.61,.43-11.38-.22-.99-.52-1.97-.88-2.92-.44-1.16-1-2.17-.67-3.45,.18-.71,.54-1.32,.25-2.06-.22-.57-.72-.94-1.17-1.33-3.27-2.88-2.17-7.46-3.5-11.19-.75-2.1-1.89-3.86-1.96-6.17-.01-.42-.07-.96,.05-1.36,.25-.86,.76-.61,1.48-.61,1.17,0,2.34,0,3.51,.02,.39,0,.39-.59,0-.6h0Z"/>
        <path class="cls-2" d="M23.8,142.03c7.46,.29,14.92,0,22.33-.89,.38-.04,.38-.65,0-.6-7.41,.88-14.88,1.17-22.33,.89-.39-.01-.39,.59,0,.6h0Z"/>
        <path class="cls-2" d="M23.2,142.44l.76,7.3c.23,2.22,.34,4.49,.71,6.69,.24,1.43,1.05,1.69,2.36,1.79,3.35,.24-.06,2.99,.27,4.73,.24,1.31,1.79,2.13,2.99,2.3,1.32,.18,2.55-.43,3.51,.8,.42,.54,.68,.77,1.39,.92,1.09,.23,1.64,.56,2.45,1.31,.58,.53,1.23,.84,2,1,2.11,.45,4.42,.39,6.57,.43,2.59,.04,5.23-.19,7.74,.56s4.61,2.2,6.33,4.09c.26,.29,.68-.14,.42-.42-2.4-2.64-5.64-4.42-9.22-4.75-2.23-.2-4.5-.05-6.74-.12s-5.16,.22-6.81-1.34c-.42-.4-.77-.84-1.31-1.07-.36-.16-.74-.16-1.12-.24-.66-.15-.91-.49-1.35-.95-1.25-1.33-2.78-.48-4.36-.94-.39-.11-.8-.29-1.09-.58-.35-.34-.81-1.2-.78-1.72s.59-1.11,.84-1.57c.26-.49,.48-1.04,.43-1.61-.12-1.29-1.27-1.38-2.31-1.44-.96-.05-1.52-.53-1.65-1.55-.08-.65-.14-1.3-.2-1.95l-.38-3.65-.84-8.03c-.04-.38-.64-.38-.6,0h0Z"/>
        <path class="cls-2" d="M60.13,130.13c.15,16.95,.3,33.9,.46,50.85l.03,3.72c0,.7-.2,1.8,.22,2.42,.38,.56,1.27,.67,1.82,.94,1.06,.53,1.89,1.38,2.5,2.39,.2,.33,.72,.03,.52-.3-.73-1.21-1.76-2.19-3.06-2.77-.47-.21-.62-.26-1-.72-.48-.59-.39-.99-.4-1.72l-.03-3.22c-.04-4.13-.07-8.27-.11-12.4-.08-8.35-.15-16.7-.23-25.05-.04-4.71-.08-9.43-.13-14.14,0-.39-.6-.39-.6,0h0Z"/>
        <path class="cls-2" d="M7.17,144.61c.19,1.87,1.4,3.27,2.76,4.48,.75,.67,1.54,1.29,2.22,2.04s1.15,1.58,1.8,2.31c1.36,1.52,3.42,1.34,4.97,2.53,.72,.56,1.4,.75,2.29,.88,1.26,.18,2.41,.58,3.5,1.23,.33,.2,.63-.32,.3-.52-.8-.48-1.64-.86-2.54-1.09-1.09-.28-2.2-.2-3.13-.93-.58-.45-1.12-.8-1.84-1.01-.99-.29-1.97-.43-2.77-1.15-.66-.6-1.12-1.39-1.67-2.09s-1.18-1.3-1.84-1.88c-1.49-1.31-3.24-2.69-3.45-4.81-.04-.38-.64-.38-.6,0h0Z"/>
        <path class="cls-2" d="M24.78,157.81c.07,2.63,.23,5.25,.49,7.86,.13,1.31,.28,2.61,.45,3.91,.07,.51,.14,1.03,.22,1.54,.06,.39,.12,.78,.17,1.17-.35,.32-.74,.51-1.19,.58-.95,.33-2,.41-2.84,1.01-.67,.48-.99,1.16-1.32,1.89-.89,1.97-2.11,3.68-3.84,5-1.26,.96-3.32,1.45-3.89,3.08-.38,1.09-.17,2.4-.37,3.53-.11,.6-.23,1.4-.68,1.86-.54,.55-1.44,.55-2.13,.67-1.56,.27-3.59,.93-3.75,2.82-.03,.3,.09,.56,.08,.85-.05,1.09-.45,1.18-1.39,1.21-1.23,.03-2.47,.06-3.7,.09-.39,0-.39,.61,0,.6,1-.02,2.01-.05,3.01-.07,.68-.02,1.7,.16,2.33-.19,.29-.16,.42-.4,.48-.72,.19-1.05-.56-1.8,.34-2.81,1.37-1.52,3.64-.66,5.05-1.91,1.02-.91,1.09-2.7,1.16-3.96,.03-.56,.04-1.04,.17-1.59,.2-.81,.69-1.18,1.38-1.58s1.44-.77,2.11-1.26c1.23-.9,2.29-2.02,3.12-3.29,.42-.64,.75-1.32,1.06-2.01,.54-1.22,1.18-1.88,2.49-2.28,.93-.29,2.86-.25,2.94-1.51,.08-1.08-.34-2.37-.48-3.44-.16-1.22-.29-2.45-.41-3.67-.23-2.45-.37-4.91-.44-7.37-.01-.39-.61-.39-.6,0h0Z"/>
        <path class="cls-2" d="M3.16,204.82c15.59-.65,31.03-3.24,46.63-3.87,.38-.02,.39-.62,0-.6-15.59,.63-31.03,3.22-46.63,3.87-.38,.02-.39,.62,0,.6h0Z"/>
        <path class="cls-2" d="M8.91,243.87c8.92,.96,17.67-1.48,26.46-2.54,.38-.05,.38-.65,0-.6-8.8,1.06-17.54,3.51-26.46,2.54-.38-.04-.38,.56,0,.6h0Z"/>
        <path class="cls-2" d="M6.73,108.76c.75,0,2.33,.31,2.9-.36,.26-.31,.2-.69,.26-1.06,.11-.7,.51-1.16,1.04-1.6,.45-.38,.94-.71,1.39-1.09,.61-.51,1.28-1.2,2.14-1.15,1.26,.07,.84,1.57,1.88,1.99,.79,.32,1.96,.16,2.76-.02,1.16-.26,1.7-1.03,2.59-1.72,.41-.32,1.28-.96,1.75-.6,.23,.18,.35,.63,.61,.85,.87,.73,2.04,.67,3.1,.57,.38-.03,.39-.64,0-.6-.76,.07-1.62,.17-2.33-.18-.45-.22-.6-.62-.87-.98-.05-.07-.07-.15-.13-.21-.53-.49-1.43,0-1.96,.3-1.07,.61-1.63,1.7-2.91,1.98-.55,.12-1.62,.29-2.18,.09-.71-.25-.57-.93-.93-1.42-1.19-1.65-3.16,.05-4.2,.88-.73,.59-1.63,1.11-2.09,1.96-.19,.36-.12,.84-.28,1.16-.45,.86-1.73,.59-2.54,.6-.39,0-.39,.6,0,.6h0Z"/>
      </g>
    </g>
  </g>
</svg>