<?xml version="1.0" encoding="UTF-8"?>
<svg id="Capa_2" data-name="Capa 2" xmlns="http://www.w3.org/2000/svg" viewBox="0 0 9.9 12.9">
  <defs>
    <style>
      .cls-1 {
        fill: #fff;
      }

      .cls-2 {
        fill: #1c1e4c;
      }
    </style>
  </defs>
  <g id="Capa_1-2" data-name="Capa 1">
    <g>
      <g>
        <circle class="cls-1" cx="4.91" cy="4.84" r="2.25"/>
        <path class="cls-1" d="M4.91,2.84c1.1,0,2,.9,2,2s-.9,2-2,2-2-.9-2-2,.9-2,2-2m0-.5c-1.38,0-2.5,1.12-2.5,2.5s1.12,2.5,2.5,2.5,2.5-1.12,2.5-2.5-1.12-2.5-2.5-2.5h0Z"/>
      </g>
      <g>
        <path class="cls-2" d="M4.93,12.65c-.27,0-.52-.13-.71-.37-1.25-1.58-2.65-3.45-3.59-5.61-.55-1.28-.51-2.65,.12-3.87C1.39,1.56,2.56,.65,3.88,.36c.35-.08,.71-.11,1.06-.11,2.6,0,4.62,2.01,4.71,4.67,0,.68-.22,1.44-.65,2.31-.94,1.91-2.19,3.6-3.29,4.99-.21,.27-.49,.42-.77,.42Zm.02-8.95c-.71,0-1.28,.55-1.29,1.24,0,.33,.12,.65,.36,.89,.24,.25,.57,.38,.91,.38h0c.35,0,.67-.13,.92-.38,.24-.24,.37-.55,.37-.88,0-.69-.56-1.25-1.25-1.25v-.25s-.01,.25-.01,.25Z"/>
        <path class="cls-1" d="M4.94,.5c2.38,0,4.37,1.83,4.46,4.43,0,.72-.27,1.48-.62,2.2-.88,1.79-2.04,3.39-3.27,4.95-.17,.21-.37,.32-.58,.32-.18,0-.36-.09-.51-.27-1.37-1.73-2.67-3.51-3.56-5.55C-.31,3.85,1.54,1.12,3.93,.61c.34-.07,.68-.11,1.01-.11m0,5.96c.84,0,1.53-.68,1.53-1.51,0-.82-.68-1.5-1.5-1.5,0,0,0,0-.01,0-.85,0-1.53,.66-1.54,1.49-.01,.83,.68,1.52,1.52,1.52h0m0-6.46h0c-.37,0-.75,.04-1.11,.12C2.44,.42,1.2,1.38,.53,2.69-.13,3.97-.18,5.42,.41,6.77c.95,2.19,2.37,4.07,3.62,5.66,.24,.3,.56,.46,.9,.46,.36,0,.71-.18,.97-.51,1.11-1.41,2.37-3.11,3.32-5.04,.45-.91,.67-1.7,.67-2.41-.09-2.82-2.22-4.93-4.96-4.93h0Zm0,6.46v-.5c-.28,0-.54-.11-.73-.31-.19-.19-.29-.44-.29-.71,0-.56,.46-1,1.04-1,.55,0,1.01,.46,1.01,1,0,.26-.1,.51-.29,.7-.2,.2-.46,.3-.74,.3v.5h0Z"/>
      </g>
    </g>
  </g>
</svg>